G04 #@! TF.GenerationSoftware,KiCad,Pcbnew,(5.1.2)-2*
G04 #@! TF.CreationDate,2019-08-19T13:28:15+03:00*
G04 #@! TF.ProjectId,Main board,4d61696e-2062-46f6-9172-642e6b696361,rev?*
G04 #@! TF.SameCoordinates,Original*
G04 #@! TF.FileFunction,Soldermask,Bot*
G04 #@! TF.FilePolarity,Negative*
%FSLAX46Y46*%
G04 Gerber Fmt 4.6, Leading zero omitted, Abs format (unit mm)*
G04 Created by KiCad (PCBNEW (5.1.2)-2) date 2019-08-19 13:28:15*
%MOMM*%
%LPD*%
G04 APERTURE LIST*
%ADD10C,0.100000*%
G04 APERTURE END LIST*
D10*
G36*
X60779487Y-115148996D02*
G01*
X61016253Y-115247068D01*
X61016255Y-115247069D01*
X61229339Y-115389447D01*
X61410553Y-115570661D01*
X61552932Y-115783747D01*
X61651004Y-116020513D01*
X61701000Y-116271861D01*
X61701000Y-116528139D01*
X61651004Y-116779487D01*
X61577720Y-116956410D01*
X61552931Y-117016255D01*
X61410553Y-117229339D01*
X61229339Y-117410553D01*
X61016255Y-117552931D01*
X61016254Y-117552932D01*
X61016253Y-117552932D01*
X60779487Y-117651004D01*
X60528139Y-117701000D01*
X60271861Y-117701000D01*
X60020513Y-117651004D01*
X59783747Y-117552932D01*
X59783746Y-117552932D01*
X59783745Y-117552931D01*
X59570661Y-117410553D01*
X59389447Y-117229339D01*
X59247069Y-117016255D01*
X59222280Y-116956410D01*
X59148996Y-116779487D01*
X59099000Y-116528139D01*
X59099000Y-116271861D01*
X59148996Y-116020513D01*
X59247068Y-115783747D01*
X59389447Y-115570661D01*
X59570661Y-115389447D01*
X59783745Y-115247069D01*
X59783747Y-115247068D01*
X60020513Y-115148996D01*
X60271861Y-115099000D01*
X60528139Y-115099000D01*
X60779487Y-115148996D01*
X60779487Y-115148996D01*
G37*
G36*
X51701000Y-117701000D02*
G01*
X49099000Y-117701000D01*
X49099000Y-115099000D01*
X51701000Y-115099000D01*
X51701000Y-117701000D01*
X51701000Y-117701000D01*
G37*
G36*
X160204072Y-112984063D02*
G01*
X160400301Y-113043589D01*
X160400303Y-113043590D01*
X160581145Y-113140252D01*
X160739660Y-113270340D01*
X160869748Y-113428855D01*
X160966410Y-113609697D01*
X160966411Y-113609699D01*
X161025937Y-113805928D01*
X161041000Y-113958868D01*
X161041000Y-116041132D01*
X161025937Y-116194072D01*
X160975679Y-116359748D01*
X160966410Y-116390303D01*
X160869748Y-116571145D01*
X160739660Y-116729660D01*
X160622437Y-116825860D01*
X160581146Y-116859747D01*
X160400300Y-116956411D01*
X160204071Y-117015937D01*
X160000000Y-117036036D01*
X159795928Y-117015937D01*
X159599699Y-116956411D01*
X159599697Y-116956410D01*
X159418855Y-116859748D01*
X159260340Y-116729660D01*
X159164140Y-116612437D01*
X159130253Y-116571146D01*
X159033589Y-116390300D01*
X158974063Y-116194071D01*
X158961956Y-116071145D01*
X158959000Y-116041132D01*
X158959001Y-113958867D01*
X158974064Y-113805930D01*
X158974064Y-113805928D01*
X159033590Y-113609699D01*
X159033591Y-113609697D01*
X159130253Y-113428855D01*
X159260341Y-113270340D01*
X159418856Y-113140252D01*
X159599698Y-113043590D01*
X159599700Y-113043589D01*
X159795929Y-112984063D01*
X160000000Y-112963964D01*
X160204072Y-112984063D01*
X160204072Y-112984063D01*
G37*
G36*
X137204072Y-112984063D02*
G01*
X137400301Y-113043589D01*
X137400303Y-113043590D01*
X137581145Y-113140252D01*
X137739660Y-113270340D01*
X137869748Y-113428855D01*
X137966410Y-113609697D01*
X137966411Y-113609699D01*
X138025937Y-113805928D01*
X138041000Y-113958868D01*
X138041000Y-116041132D01*
X138025937Y-116194072D01*
X137975679Y-116359748D01*
X137966410Y-116390303D01*
X137869748Y-116571145D01*
X137739660Y-116729660D01*
X137622437Y-116825860D01*
X137581146Y-116859747D01*
X137400300Y-116956411D01*
X137204071Y-117015937D01*
X137000000Y-117036036D01*
X136795928Y-117015937D01*
X136599699Y-116956411D01*
X136599697Y-116956410D01*
X136418855Y-116859748D01*
X136260340Y-116729660D01*
X136164140Y-116612437D01*
X136130253Y-116571146D01*
X136033589Y-116390300D01*
X135974063Y-116194071D01*
X135961956Y-116071145D01*
X135959000Y-116041132D01*
X135959001Y-113958867D01*
X135974064Y-113805930D01*
X135974064Y-113805928D01*
X136033590Y-113609699D01*
X136033591Y-113609697D01*
X136130253Y-113428855D01*
X136260341Y-113270340D01*
X136418856Y-113140252D01*
X136599698Y-113043590D01*
X136599700Y-113043589D01*
X136795929Y-112984063D01*
X137000000Y-112963964D01*
X137204072Y-112984063D01*
X137204072Y-112984063D01*
G37*
G36*
X142204072Y-112984063D02*
G01*
X142400301Y-113043589D01*
X142400303Y-113043590D01*
X142581145Y-113140252D01*
X142739660Y-113270340D01*
X142869748Y-113428855D01*
X142966410Y-113609697D01*
X142966411Y-113609699D01*
X143025937Y-113805928D01*
X143041000Y-113958868D01*
X143041000Y-116041132D01*
X143025937Y-116194072D01*
X142975679Y-116359748D01*
X142966410Y-116390303D01*
X142869748Y-116571145D01*
X142739660Y-116729660D01*
X142622437Y-116825860D01*
X142581146Y-116859747D01*
X142400300Y-116956411D01*
X142204071Y-117015937D01*
X142000000Y-117036036D01*
X141795928Y-117015937D01*
X141599699Y-116956411D01*
X141599697Y-116956410D01*
X141418855Y-116859748D01*
X141260340Y-116729660D01*
X141164140Y-116612437D01*
X141130253Y-116571146D01*
X141033589Y-116390300D01*
X140974063Y-116194071D01*
X140961956Y-116071145D01*
X140959000Y-116041132D01*
X140959001Y-113958867D01*
X140974064Y-113805930D01*
X140974064Y-113805928D01*
X141033590Y-113609699D01*
X141033591Y-113609697D01*
X141130253Y-113428855D01*
X141260341Y-113270340D01*
X141418856Y-113140252D01*
X141599698Y-113043590D01*
X141599700Y-113043589D01*
X141795929Y-112984063D01*
X142000000Y-112963964D01*
X142204072Y-112984063D01*
X142204072Y-112984063D01*
G37*
G36*
X147204072Y-112984063D02*
G01*
X147400301Y-113043589D01*
X147400303Y-113043590D01*
X147581145Y-113140252D01*
X147739660Y-113270340D01*
X147869748Y-113428855D01*
X147966410Y-113609697D01*
X147966411Y-113609699D01*
X148025937Y-113805928D01*
X148041000Y-113958868D01*
X148041000Y-116041132D01*
X148025937Y-116194072D01*
X147975679Y-116359748D01*
X147966410Y-116390303D01*
X147869748Y-116571145D01*
X147739660Y-116729660D01*
X147622437Y-116825860D01*
X147581146Y-116859747D01*
X147400300Y-116956411D01*
X147204071Y-117015937D01*
X147000000Y-117036036D01*
X146795928Y-117015937D01*
X146599699Y-116956411D01*
X146599697Y-116956410D01*
X146418855Y-116859748D01*
X146260340Y-116729660D01*
X146164140Y-116612437D01*
X146130253Y-116571146D01*
X146033589Y-116390300D01*
X145974063Y-116194071D01*
X145961956Y-116071145D01*
X145959000Y-116041132D01*
X145959001Y-113958867D01*
X145974064Y-113805930D01*
X145974064Y-113805928D01*
X146033590Y-113609699D01*
X146033591Y-113609697D01*
X146130253Y-113428855D01*
X146260341Y-113270340D01*
X146418856Y-113140252D01*
X146599698Y-113043590D01*
X146599700Y-113043589D01*
X146795929Y-112984063D01*
X147000000Y-112963964D01*
X147204072Y-112984063D01*
X147204072Y-112984063D01*
G37*
G36*
X165204072Y-112984063D02*
G01*
X165400301Y-113043589D01*
X165400303Y-113043590D01*
X165581145Y-113140252D01*
X165739660Y-113270340D01*
X165869748Y-113428855D01*
X165966410Y-113609697D01*
X165966411Y-113609699D01*
X166025937Y-113805928D01*
X166041000Y-113958868D01*
X166041000Y-116041132D01*
X166025937Y-116194072D01*
X165975679Y-116359748D01*
X165966410Y-116390303D01*
X165869748Y-116571145D01*
X165739660Y-116729660D01*
X165622437Y-116825860D01*
X165581146Y-116859747D01*
X165400300Y-116956411D01*
X165204071Y-117015937D01*
X165000000Y-117036036D01*
X164795928Y-117015937D01*
X164599699Y-116956411D01*
X164599697Y-116956410D01*
X164418855Y-116859748D01*
X164260340Y-116729660D01*
X164164140Y-116612437D01*
X164130253Y-116571146D01*
X164033589Y-116390300D01*
X163974063Y-116194071D01*
X163961956Y-116071145D01*
X163959000Y-116041132D01*
X163959001Y-113958867D01*
X163974064Y-113805930D01*
X163974064Y-113805928D01*
X164033590Y-113609699D01*
X164033591Y-113609697D01*
X164130253Y-113428855D01*
X164260341Y-113270340D01*
X164418856Y-113140252D01*
X164599698Y-113043590D01*
X164599700Y-113043589D01*
X164795929Y-112984063D01*
X165000000Y-112963964D01*
X165204072Y-112984063D01*
X165204072Y-112984063D01*
G37*
G36*
X170204072Y-112984063D02*
G01*
X170400301Y-113043589D01*
X170400303Y-113043590D01*
X170581145Y-113140252D01*
X170739660Y-113270340D01*
X170869748Y-113428855D01*
X170966410Y-113609697D01*
X170966411Y-113609699D01*
X171025937Y-113805928D01*
X171041000Y-113958868D01*
X171041000Y-116041132D01*
X171025937Y-116194072D01*
X170975679Y-116359748D01*
X170966410Y-116390303D01*
X170869748Y-116571145D01*
X170739660Y-116729660D01*
X170622437Y-116825860D01*
X170581146Y-116859747D01*
X170400300Y-116956411D01*
X170204071Y-117015937D01*
X170000000Y-117036036D01*
X169795928Y-117015937D01*
X169599699Y-116956411D01*
X169599697Y-116956410D01*
X169418855Y-116859748D01*
X169260340Y-116729660D01*
X169164140Y-116612437D01*
X169130253Y-116571146D01*
X169033589Y-116390300D01*
X168974063Y-116194071D01*
X168961956Y-116071145D01*
X168959000Y-116041132D01*
X168959001Y-113958867D01*
X168974064Y-113805930D01*
X168974064Y-113805928D01*
X169033590Y-113609699D01*
X169033591Y-113609697D01*
X169130253Y-113428855D01*
X169260341Y-113270340D01*
X169418856Y-113140252D01*
X169599698Y-113043590D01*
X169599700Y-113043589D01*
X169795929Y-112984063D01*
X170000000Y-112963964D01*
X170204072Y-112984063D01*
X170204072Y-112984063D01*
G37*
G36*
X183204072Y-112984063D02*
G01*
X183400301Y-113043589D01*
X183400303Y-113043590D01*
X183581145Y-113140252D01*
X183739660Y-113270340D01*
X183869748Y-113428855D01*
X183966410Y-113609697D01*
X183966411Y-113609699D01*
X184025937Y-113805928D01*
X184041000Y-113958868D01*
X184041000Y-116041132D01*
X184025937Y-116194072D01*
X183975679Y-116359748D01*
X183966410Y-116390303D01*
X183869748Y-116571145D01*
X183739660Y-116729660D01*
X183622437Y-116825860D01*
X183581146Y-116859747D01*
X183400300Y-116956411D01*
X183204071Y-117015937D01*
X183000000Y-117036036D01*
X182795928Y-117015937D01*
X182599699Y-116956411D01*
X182599697Y-116956410D01*
X182418855Y-116859748D01*
X182260340Y-116729660D01*
X182164140Y-116612437D01*
X182130253Y-116571146D01*
X182033589Y-116390300D01*
X181974063Y-116194071D01*
X181961956Y-116071145D01*
X181959000Y-116041132D01*
X181959001Y-113958867D01*
X181974064Y-113805930D01*
X181974064Y-113805928D01*
X182033590Y-113609699D01*
X182033591Y-113609697D01*
X182130253Y-113428855D01*
X182260341Y-113270340D01*
X182418856Y-113140252D01*
X182599698Y-113043590D01*
X182599700Y-113043589D01*
X182795929Y-112984063D01*
X183000000Y-112963964D01*
X183204072Y-112984063D01*
X183204072Y-112984063D01*
G37*
G36*
X201204072Y-112984063D02*
G01*
X201400301Y-113043589D01*
X201400303Y-113043590D01*
X201581145Y-113140252D01*
X201739660Y-113270340D01*
X201869748Y-113428855D01*
X201966410Y-113609697D01*
X201966411Y-113609699D01*
X202025937Y-113805928D01*
X202041000Y-113958868D01*
X202041000Y-116041132D01*
X202025937Y-116194072D01*
X201975679Y-116359748D01*
X201966410Y-116390303D01*
X201869748Y-116571145D01*
X201739660Y-116729660D01*
X201622437Y-116825860D01*
X201581146Y-116859747D01*
X201400300Y-116956411D01*
X201204071Y-117015937D01*
X201000000Y-117036036D01*
X200795928Y-117015937D01*
X200599699Y-116956411D01*
X200599697Y-116956410D01*
X200418855Y-116859748D01*
X200260340Y-116729660D01*
X200164140Y-116612437D01*
X200130253Y-116571146D01*
X200033589Y-116390300D01*
X199974063Y-116194071D01*
X199961956Y-116071145D01*
X199959000Y-116041132D01*
X199959001Y-113958867D01*
X199974064Y-113805930D01*
X199974064Y-113805928D01*
X200033590Y-113609699D01*
X200033591Y-113609697D01*
X200130253Y-113428855D01*
X200260341Y-113270340D01*
X200418856Y-113140252D01*
X200599698Y-113043590D01*
X200599700Y-113043589D01*
X200795929Y-112984063D01*
X201000000Y-112963964D01*
X201204072Y-112984063D01*
X201204072Y-112984063D01*
G37*
G36*
X196204072Y-112984063D02*
G01*
X196400301Y-113043589D01*
X196400303Y-113043590D01*
X196581145Y-113140252D01*
X196739660Y-113270340D01*
X196869748Y-113428855D01*
X196966410Y-113609697D01*
X196966411Y-113609699D01*
X197025937Y-113805928D01*
X197041000Y-113958868D01*
X197041000Y-116041132D01*
X197025937Y-116194072D01*
X196975679Y-116359748D01*
X196966410Y-116390303D01*
X196869748Y-116571145D01*
X196739660Y-116729660D01*
X196622437Y-116825860D01*
X196581146Y-116859747D01*
X196400300Y-116956411D01*
X196204071Y-117015937D01*
X196000000Y-117036036D01*
X195795928Y-117015937D01*
X195599699Y-116956411D01*
X195599697Y-116956410D01*
X195418855Y-116859748D01*
X195260340Y-116729660D01*
X195164140Y-116612437D01*
X195130253Y-116571146D01*
X195033589Y-116390300D01*
X194974063Y-116194071D01*
X194961956Y-116071145D01*
X194959000Y-116041132D01*
X194959001Y-113958867D01*
X194974064Y-113805930D01*
X194974064Y-113805928D01*
X195033590Y-113609699D01*
X195033591Y-113609697D01*
X195130253Y-113428855D01*
X195260341Y-113270340D01*
X195418856Y-113140252D01*
X195599698Y-113043590D01*
X195599700Y-113043589D01*
X195795929Y-112984063D01*
X196000000Y-112963964D01*
X196204072Y-112984063D01*
X196204072Y-112984063D01*
G37*
G36*
X206204072Y-112984063D02*
G01*
X206400301Y-113043589D01*
X206400303Y-113043590D01*
X206581145Y-113140252D01*
X206739660Y-113270340D01*
X206869748Y-113428855D01*
X206966410Y-113609697D01*
X206966411Y-113609699D01*
X207025937Y-113805928D01*
X207041000Y-113958868D01*
X207041000Y-116041132D01*
X207025937Y-116194072D01*
X206975679Y-116359748D01*
X206966410Y-116390303D01*
X206869748Y-116571145D01*
X206739660Y-116729660D01*
X206622437Y-116825860D01*
X206581146Y-116859747D01*
X206400300Y-116956411D01*
X206204071Y-117015937D01*
X206000000Y-117036036D01*
X205795928Y-117015937D01*
X205599699Y-116956411D01*
X205599697Y-116956410D01*
X205418855Y-116859748D01*
X205260340Y-116729660D01*
X205164140Y-116612437D01*
X205130253Y-116571146D01*
X205033589Y-116390300D01*
X204974063Y-116194071D01*
X204961956Y-116071145D01*
X204959000Y-116041132D01*
X204959001Y-113958867D01*
X204974064Y-113805930D01*
X204974064Y-113805928D01*
X205033590Y-113609699D01*
X205033591Y-113609697D01*
X205130253Y-113428855D01*
X205260341Y-113270340D01*
X205418856Y-113140252D01*
X205599698Y-113043590D01*
X205599700Y-113043589D01*
X205795929Y-112984063D01*
X206000000Y-112963964D01*
X206204072Y-112984063D01*
X206204072Y-112984063D01*
G37*
G36*
X153041000Y-117031000D02*
G01*
X150959000Y-117031000D01*
X150959000Y-112969000D01*
X153041000Y-112969000D01*
X153041000Y-117031000D01*
X153041000Y-117031000D01*
G37*
G36*
X189041000Y-117031000D02*
G01*
X186959000Y-117031000D01*
X186959000Y-112969000D01*
X189041000Y-112969000D01*
X189041000Y-117031000D01*
X189041000Y-117031000D01*
G37*
G36*
X176041000Y-117031000D02*
G01*
X173959000Y-117031000D01*
X173959000Y-112969000D01*
X176041000Y-112969000D01*
X176041000Y-117031000D01*
X176041000Y-117031000D01*
G37*
G36*
X212041000Y-117031000D02*
G01*
X209959000Y-117031000D01*
X209959000Y-112969000D01*
X212041000Y-112969000D01*
X212041000Y-117031000D01*
X212041000Y-117031000D01*
G37*
G36*
X42454071Y-112484063D02*
G01*
X42650300Y-112543589D01*
X42831146Y-112640253D01*
X42872437Y-112674140D01*
X42989660Y-112770340D01*
X43119748Y-112928855D01*
X43181075Y-113043590D01*
X43216411Y-113109699D01*
X43275937Y-113305928D01*
X43275937Y-113305930D01*
X43291000Y-113458867D01*
X43291000Y-115541133D01*
X43290298Y-115548257D01*
X43275937Y-115694072D01*
X43225235Y-115861211D01*
X43216410Y-115890303D01*
X43119748Y-116071145D01*
X42989660Y-116229660D01*
X42831145Y-116359748D01*
X42650303Y-116456410D01*
X42650301Y-116456411D01*
X42454072Y-116515937D01*
X42250000Y-116536036D01*
X42045929Y-116515937D01*
X41849700Y-116456411D01*
X41849698Y-116456410D01*
X41668856Y-116359748D01*
X41510341Y-116229660D01*
X41380253Y-116071145D01*
X41283591Y-115890303D01*
X41274766Y-115861211D01*
X41224064Y-115694072D01*
X41209703Y-115548257D01*
X41209001Y-115541133D01*
X41209000Y-113458868D01*
X41224063Y-113305931D01*
X41224063Y-113305929D01*
X41283589Y-113109700D01*
X41380253Y-112928854D01*
X41414140Y-112887563D01*
X41510340Y-112770340D01*
X41668855Y-112640252D01*
X41849697Y-112543590D01*
X41849699Y-112543589D01*
X42045928Y-112484063D01*
X42250000Y-112463964D01*
X42454071Y-112484063D01*
X42454071Y-112484063D01*
G37*
G36*
X38291000Y-116531000D02*
G01*
X36209000Y-116531000D01*
X36209000Y-112469000D01*
X38291000Y-112469000D01*
X38291000Y-116531000D01*
X38291000Y-116531000D01*
G37*
G36*
X234394072Y-113700918D02*
G01*
X234639939Y-113802759D01*
X234751328Y-113877187D01*
X234861211Y-113950609D01*
X235049391Y-114138789D01*
X235197242Y-114360063D01*
X235299082Y-114605928D01*
X235351000Y-114866937D01*
X235351000Y-115133063D01*
X235328323Y-115247068D01*
X235299082Y-115394072D01*
X235197241Y-115639939D01*
X235161070Y-115694072D01*
X235082435Y-115811758D01*
X235049390Y-115861212D01*
X234861212Y-116049390D01*
X234639939Y-116197241D01*
X234639938Y-116197242D01*
X234639937Y-116197242D01*
X234394072Y-116299082D01*
X234133063Y-116351000D01*
X233866937Y-116351000D01*
X233605928Y-116299082D01*
X233360063Y-116197242D01*
X233360062Y-116197242D01*
X233360061Y-116197241D01*
X233138788Y-116049390D01*
X232950610Y-115861212D01*
X232917566Y-115811758D01*
X232838930Y-115694072D01*
X232802759Y-115639939D01*
X232700918Y-115394072D01*
X232671677Y-115247068D01*
X232649000Y-115133063D01*
X232649000Y-114866937D01*
X232700918Y-114605928D01*
X232802758Y-114360063D01*
X232950609Y-114138789D01*
X233138789Y-113950609D01*
X233248672Y-113877187D01*
X233360061Y-113802759D01*
X233605928Y-113700918D01*
X233866937Y-113649000D01*
X234133063Y-113649000D01*
X234394072Y-113700918D01*
X234394072Y-113700918D01*
G37*
G36*
X249394072Y-113700918D02*
G01*
X249639939Y-113802759D01*
X249751328Y-113877187D01*
X249861211Y-113950609D01*
X250049391Y-114138789D01*
X250197242Y-114360063D01*
X250299082Y-114605928D01*
X250351000Y-114866937D01*
X250351000Y-115133063D01*
X250328323Y-115247068D01*
X250299082Y-115394072D01*
X250197241Y-115639939D01*
X250161070Y-115694072D01*
X250082435Y-115811758D01*
X250049390Y-115861212D01*
X249861212Y-116049390D01*
X249639939Y-116197241D01*
X249639938Y-116197242D01*
X249639937Y-116197242D01*
X249394072Y-116299082D01*
X249133063Y-116351000D01*
X248866937Y-116351000D01*
X248605928Y-116299082D01*
X248360063Y-116197242D01*
X248360062Y-116197242D01*
X248360061Y-116197241D01*
X248138788Y-116049390D01*
X247950610Y-115861212D01*
X247917566Y-115811758D01*
X247838930Y-115694072D01*
X247802759Y-115639939D01*
X247700918Y-115394072D01*
X247671677Y-115247068D01*
X247649000Y-115133063D01*
X247649000Y-114866937D01*
X247700918Y-114605928D01*
X247802758Y-114360063D01*
X247950609Y-114138789D01*
X248138789Y-113950609D01*
X248248672Y-113877187D01*
X248360061Y-113802759D01*
X248605928Y-113700918D01*
X248866937Y-113649000D01*
X249133063Y-113649000D01*
X249394072Y-113700918D01*
X249394072Y-113700918D01*
G37*
G36*
X244394072Y-113700918D02*
G01*
X244639939Y-113802759D01*
X244751328Y-113877187D01*
X244861211Y-113950609D01*
X245049391Y-114138789D01*
X245197242Y-114360063D01*
X245299082Y-114605928D01*
X245351000Y-114866937D01*
X245351000Y-115133063D01*
X245328323Y-115247068D01*
X245299082Y-115394072D01*
X245197241Y-115639939D01*
X245161070Y-115694072D01*
X245082435Y-115811758D01*
X245049390Y-115861212D01*
X244861212Y-116049390D01*
X244639939Y-116197241D01*
X244639938Y-116197242D01*
X244639937Y-116197242D01*
X244394072Y-116299082D01*
X244133063Y-116351000D01*
X243866937Y-116351000D01*
X243605928Y-116299082D01*
X243360063Y-116197242D01*
X243360062Y-116197242D01*
X243360061Y-116197241D01*
X243138788Y-116049390D01*
X242950610Y-115861212D01*
X242917566Y-115811758D01*
X242838930Y-115694072D01*
X242802759Y-115639939D01*
X242700918Y-115394072D01*
X242671677Y-115247068D01*
X242649000Y-115133063D01*
X242649000Y-114866937D01*
X242700918Y-114605928D01*
X242802758Y-114360063D01*
X242950609Y-114138789D01*
X243138789Y-113950609D01*
X243248672Y-113877187D01*
X243360061Y-113802759D01*
X243605928Y-113700918D01*
X243866937Y-113649000D01*
X244133063Y-113649000D01*
X244394072Y-113700918D01*
X244394072Y-113700918D01*
G37*
G36*
X255351000Y-116351000D02*
G01*
X252649000Y-116351000D01*
X252649000Y-113649000D01*
X255351000Y-113649000D01*
X255351000Y-116351000D01*
X255351000Y-116351000D01*
G37*
G36*
X94394072Y-113700918D02*
G01*
X94639939Y-113802759D01*
X94751328Y-113877187D01*
X94861211Y-113950609D01*
X95049391Y-114138789D01*
X95197242Y-114360063D01*
X95299082Y-114605928D01*
X95351000Y-114866937D01*
X95351000Y-115133063D01*
X95328323Y-115247068D01*
X95299082Y-115394072D01*
X95197241Y-115639939D01*
X95161070Y-115694072D01*
X95082435Y-115811758D01*
X95049390Y-115861212D01*
X94861212Y-116049390D01*
X94639939Y-116197241D01*
X94639938Y-116197242D01*
X94639937Y-116197242D01*
X94394072Y-116299082D01*
X94133063Y-116351000D01*
X93866937Y-116351000D01*
X93605928Y-116299082D01*
X93360063Y-116197242D01*
X93360062Y-116197242D01*
X93360061Y-116197241D01*
X93138788Y-116049390D01*
X92950610Y-115861212D01*
X92917566Y-115811758D01*
X92838930Y-115694072D01*
X92802759Y-115639939D01*
X92700918Y-115394072D01*
X92671677Y-115247068D01*
X92649000Y-115133063D01*
X92649000Y-114866937D01*
X92700918Y-114605928D01*
X92802758Y-114360063D01*
X92950609Y-114138789D01*
X93138789Y-113950609D01*
X93248672Y-113877187D01*
X93360061Y-113802759D01*
X93605928Y-113700918D01*
X93866937Y-113649000D01*
X94133063Y-113649000D01*
X94394072Y-113700918D01*
X94394072Y-113700918D01*
G37*
G36*
X99394072Y-113700918D02*
G01*
X99639939Y-113802759D01*
X99751328Y-113877187D01*
X99861211Y-113950609D01*
X100049391Y-114138789D01*
X100197242Y-114360063D01*
X100299082Y-114605928D01*
X100351000Y-114866937D01*
X100351000Y-115133063D01*
X100328323Y-115247068D01*
X100299082Y-115394072D01*
X100197241Y-115639939D01*
X100161070Y-115694072D01*
X100082435Y-115811758D01*
X100049390Y-115861212D01*
X99861212Y-116049390D01*
X99639939Y-116197241D01*
X99639938Y-116197242D01*
X99639937Y-116197242D01*
X99394072Y-116299082D01*
X99133063Y-116351000D01*
X98866937Y-116351000D01*
X98605928Y-116299082D01*
X98360063Y-116197242D01*
X98360062Y-116197242D01*
X98360061Y-116197241D01*
X98138788Y-116049390D01*
X97950610Y-115861212D01*
X97917566Y-115811758D01*
X97838930Y-115694072D01*
X97802759Y-115639939D01*
X97700918Y-115394072D01*
X97671677Y-115247068D01*
X97649000Y-115133063D01*
X97649000Y-114866937D01*
X97700918Y-114605928D01*
X97802758Y-114360063D01*
X97950609Y-114138789D01*
X98138789Y-113950609D01*
X98248672Y-113877187D01*
X98360061Y-113802759D01*
X98605928Y-113700918D01*
X98866937Y-113649000D01*
X99133063Y-113649000D01*
X99394072Y-113700918D01*
X99394072Y-113700918D01*
G37*
G36*
X104394072Y-113700918D02*
G01*
X104639939Y-113802759D01*
X104751328Y-113877187D01*
X104861211Y-113950609D01*
X105049391Y-114138789D01*
X105197242Y-114360063D01*
X105299082Y-114605928D01*
X105351000Y-114866937D01*
X105351000Y-115133063D01*
X105328323Y-115247068D01*
X105299082Y-115394072D01*
X105197241Y-115639939D01*
X105161070Y-115694072D01*
X105082435Y-115811758D01*
X105049390Y-115861212D01*
X104861212Y-116049390D01*
X104639939Y-116197241D01*
X104639938Y-116197242D01*
X104639937Y-116197242D01*
X104394072Y-116299082D01*
X104133063Y-116351000D01*
X103866937Y-116351000D01*
X103605928Y-116299082D01*
X103360063Y-116197242D01*
X103360062Y-116197242D01*
X103360061Y-116197241D01*
X103138788Y-116049390D01*
X102950610Y-115861212D01*
X102917566Y-115811758D01*
X102838930Y-115694072D01*
X102802759Y-115639939D01*
X102700918Y-115394072D01*
X102671677Y-115247068D01*
X102649000Y-115133063D01*
X102649000Y-114866937D01*
X102700918Y-114605928D01*
X102802758Y-114360063D01*
X102950609Y-114138789D01*
X103138789Y-113950609D01*
X103248672Y-113877187D01*
X103360061Y-113802759D01*
X103605928Y-113700918D01*
X103866937Y-113649000D01*
X104133063Y-113649000D01*
X104394072Y-113700918D01*
X104394072Y-113700918D01*
G37*
G36*
X109394072Y-113700918D02*
G01*
X109639939Y-113802759D01*
X109751328Y-113877187D01*
X109861211Y-113950609D01*
X110049391Y-114138789D01*
X110197242Y-114360063D01*
X110299082Y-114605928D01*
X110351000Y-114866937D01*
X110351000Y-115133063D01*
X110328323Y-115247068D01*
X110299082Y-115394072D01*
X110197241Y-115639939D01*
X110161070Y-115694072D01*
X110082435Y-115811758D01*
X110049390Y-115861212D01*
X109861212Y-116049390D01*
X109639939Y-116197241D01*
X109639938Y-116197242D01*
X109639937Y-116197242D01*
X109394072Y-116299082D01*
X109133063Y-116351000D01*
X108866937Y-116351000D01*
X108605928Y-116299082D01*
X108360063Y-116197242D01*
X108360062Y-116197242D01*
X108360061Y-116197241D01*
X108138788Y-116049390D01*
X107950610Y-115861212D01*
X107917566Y-115811758D01*
X107838930Y-115694072D01*
X107802759Y-115639939D01*
X107700918Y-115394072D01*
X107671677Y-115247068D01*
X107649000Y-115133063D01*
X107649000Y-114866937D01*
X107700918Y-114605928D01*
X107802758Y-114360063D01*
X107950609Y-114138789D01*
X108138789Y-113950609D01*
X108248672Y-113877187D01*
X108360061Y-113802759D01*
X108605928Y-113700918D01*
X108866937Y-113649000D01*
X109133063Y-113649000D01*
X109394072Y-113700918D01*
X109394072Y-113700918D01*
G37*
G36*
X239394072Y-113700918D02*
G01*
X239639939Y-113802759D01*
X239751328Y-113877187D01*
X239861211Y-113950609D01*
X240049391Y-114138789D01*
X240197242Y-114360063D01*
X240299082Y-114605928D01*
X240351000Y-114866937D01*
X240351000Y-115133063D01*
X240328323Y-115247068D01*
X240299082Y-115394072D01*
X240197241Y-115639939D01*
X240161070Y-115694072D01*
X240082435Y-115811758D01*
X240049390Y-115861212D01*
X239861212Y-116049390D01*
X239639939Y-116197241D01*
X239639938Y-116197242D01*
X239639937Y-116197242D01*
X239394072Y-116299082D01*
X239133063Y-116351000D01*
X238866937Y-116351000D01*
X238605928Y-116299082D01*
X238360063Y-116197242D01*
X238360062Y-116197242D01*
X238360061Y-116197241D01*
X238138788Y-116049390D01*
X237950610Y-115861212D01*
X237917566Y-115811758D01*
X237838930Y-115694072D01*
X237802759Y-115639939D01*
X237700918Y-115394072D01*
X237671677Y-115247068D01*
X237649000Y-115133063D01*
X237649000Y-114866937D01*
X237700918Y-114605928D01*
X237802758Y-114360063D01*
X237950609Y-114138789D01*
X238138789Y-113950609D01*
X238248672Y-113877187D01*
X238360061Y-113802759D01*
X238605928Y-113700918D01*
X238866937Y-113649000D01*
X239133063Y-113649000D01*
X239394072Y-113700918D01*
X239394072Y-113700918D01*
G37*
G36*
X130351000Y-116351000D02*
G01*
X127649000Y-116351000D01*
X127649000Y-113649000D01*
X130351000Y-113649000D01*
X130351000Y-116351000D01*
X130351000Y-116351000D01*
G37*
G36*
X124394072Y-113700918D02*
G01*
X124639939Y-113802759D01*
X124751328Y-113877187D01*
X124861211Y-113950609D01*
X125049391Y-114138789D01*
X125197242Y-114360063D01*
X125299082Y-114605928D01*
X125351000Y-114866937D01*
X125351000Y-115133063D01*
X125328323Y-115247068D01*
X125299082Y-115394072D01*
X125197241Y-115639939D01*
X125161070Y-115694072D01*
X125082435Y-115811758D01*
X125049390Y-115861212D01*
X124861212Y-116049390D01*
X124639939Y-116197241D01*
X124639938Y-116197242D01*
X124639937Y-116197242D01*
X124394072Y-116299082D01*
X124133063Y-116351000D01*
X123866937Y-116351000D01*
X123605928Y-116299082D01*
X123360063Y-116197242D01*
X123360062Y-116197242D01*
X123360061Y-116197241D01*
X123138788Y-116049390D01*
X122950610Y-115861212D01*
X122917566Y-115811758D01*
X122838930Y-115694072D01*
X122802759Y-115639939D01*
X122700918Y-115394072D01*
X122671677Y-115247068D01*
X122649000Y-115133063D01*
X122649000Y-114866937D01*
X122700918Y-114605928D01*
X122802758Y-114360063D01*
X122950609Y-114138789D01*
X123138789Y-113950609D01*
X123248672Y-113877187D01*
X123360061Y-113802759D01*
X123605928Y-113700918D01*
X123866937Y-113649000D01*
X124133063Y-113649000D01*
X124394072Y-113700918D01*
X124394072Y-113700918D01*
G37*
G36*
X119394072Y-113700918D02*
G01*
X119639939Y-113802759D01*
X119751328Y-113877187D01*
X119861211Y-113950609D01*
X120049391Y-114138789D01*
X120197242Y-114360063D01*
X120299082Y-114605928D01*
X120351000Y-114866937D01*
X120351000Y-115133063D01*
X120328323Y-115247068D01*
X120299082Y-115394072D01*
X120197241Y-115639939D01*
X120161070Y-115694072D01*
X120082435Y-115811758D01*
X120049390Y-115861212D01*
X119861212Y-116049390D01*
X119639939Y-116197241D01*
X119639938Y-116197242D01*
X119639937Y-116197242D01*
X119394072Y-116299082D01*
X119133063Y-116351000D01*
X118866937Y-116351000D01*
X118605928Y-116299082D01*
X118360063Y-116197242D01*
X118360062Y-116197242D01*
X118360061Y-116197241D01*
X118138788Y-116049390D01*
X117950610Y-115861212D01*
X117917566Y-115811758D01*
X117838930Y-115694072D01*
X117802759Y-115639939D01*
X117700918Y-115394072D01*
X117671677Y-115247068D01*
X117649000Y-115133063D01*
X117649000Y-114866937D01*
X117700918Y-114605928D01*
X117802758Y-114360063D01*
X117950609Y-114138789D01*
X118138789Y-113950609D01*
X118248672Y-113877187D01*
X118360061Y-113802759D01*
X118605928Y-113700918D01*
X118866937Y-113649000D01*
X119133063Y-113649000D01*
X119394072Y-113700918D01*
X119394072Y-113700918D01*
G37*
G36*
X114394072Y-113700918D02*
G01*
X114639939Y-113802759D01*
X114751328Y-113877187D01*
X114861211Y-113950609D01*
X115049391Y-114138789D01*
X115197242Y-114360063D01*
X115299082Y-114605928D01*
X115351000Y-114866937D01*
X115351000Y-115133063D01*
X115328323Y-115247068D01*
X115299082Y-115394072D01*
X115197241Y-115639939D01*
X115161070Y-115694072D01*
X115082435Y-115811758D01*
X115049390Y-115861212D01*
X114861212Y-116049390D01*
X114639939Y-116197241D01*
X114639938Y-116197242D01*
X114639937Y-116197242D01*
X114394072Y-116299082D01*
X114133063Y-116351000D01*
X113866937Y-116351000D01*
X113605928Y-116299082D01*
X113360063Y-116197242D01*
X113360062Y-116197242D01*
X113360061Y-116197241D01*
X113138788Y-116049390D01*
X112950610Y-115861212D01*
X112917566Y-115811758D01*
X112838930Y-115694072D01*
X112802759Y-115639939D01*
X112700918Y-115394072D01*
X112671677Y-115247068D01*
X112649000Y-115133063D01*
X112649000Y-114866937D01*
X112700918Y-114605928D01*
X112802758Y-114360063D01*
X112950609Y-114138789D01*
X113138789Y-113950609D01*
X113248672Y-113877187D01*
X113360061Y-113802759D01*
X113605928Y-113700918D01*
X113866937Y-113649000D01*
X114133063Y-113649000D01*
X114394072Y-113700918D01*
X114394072Y-113700918D01*
G37*
G36*
X224394072Y-113700918D02*
G01*
X224639939Y-113802759D01*
X224751328Y-113877187D01*
X224861211Y-113950609D01*
X225049391Y-114138789D01*
X225197242Y-114360063D01*
X225299082Y-114605928D01*
X225351000Y-114866937D01*
X225351000Y-115133063D01*
X225328323Y-115247068D01*
X225299082Y-115394072D01*
X225197241Y-115639939D01*
X225161070Y-115694072D01*
X225082435Y-115811758D01*
X225049390Y-115861212D01*
X224861212Y-116049390D01*
X224639939Y-116197241D01*
X224639938Y-116197242D01*
X224639937Y-116197242D01*
X224394072Y-116299082D01*
X224133063Y-116351000D01*
X223866937Y-116351000D01*
X223605928Y-116299082D01*
X223360063Y-116197242D01*
X223360062Y-116197242D01*
X223360061Y-116197241D01*
X223138788Y-116049390D01*
X222950610Y-115861212D01*
X222917566Y-115811758D01*
X222838930Y-115694072D01*
X222802759Y-115639939D01*
X222700918Y-115394072D01*
X222671677Y-115247068D01*
X222649000Y-115133063D01*
X222649000Y-114866937D01*
X222700918Y-114605928D01*
X222802758Y-114360063D01*
X222950609Y-114138789D01*
X223138789Y-113950609D01*
X223248672Y-113877187D01*
X223360061Y-113802759D01*
X223605928Y-113700918D01*
X223866937Y-113649000D01*
X224133063Y-113649000D01*
X224394072Y-113700918D01*
X224394072Y-113700918D01*
G37*
G36*
X229394072Y-113700918D02*
G01*
X229639939Y-113802759D01*
X229751328Y-113877187D01*
X229861211Y-113950609D01*
X230049391Y-114138789D01*
X230197242Y-114360063D01*
X230299082Y-114605928D01*
X230351000Y-114866937D01*
X230351000Y-115133063D01*
X230328323Y-115247068D01*
X230299082Y-115394072D01*
X230197241Y-115639939D01*
X230161070Y-115694072D01*
X230082435Y-115811758D01*
X230049390Y-115861212D01*
X229861212Y-116049390D01*
X229639939Y-116197241D01*
X229639938Y-116197242D01*
X229639937Y-116197242D01*
X229394072Y-116299082D01*
X229133063Y-116351000D01*
X228866937Y-116351000D01*
X228605928Y-116299082D01*
X228360063Y-116197242D01*
X228360062Y-116197242D01*
X228360061Y-116197241D01*
X228138788Y-116049390D01*
X227950610Y-115861212D01*
X227917566Y-115811758D01*
X227838930Y-115694072D01*
X227802759Y-115639939D01*
X227700918Y-115394072D01*
X227671677Y-115247068D01*
X227649000Y-115133063D01*
X227649000Y-114866937D01*
X227700918Y-114605928D01*
X227802758Y-114360063D01*
X227950609Y-114138789D01*
X228138789Y-113950609D01*
X228248672Y-113877187D01*
X228360061Y-113802759D01*
X228605928Y-113700918D01*
X228866937Y-113649000D01*
X229133063Y-113649000D01*
X229394072Y-113700918D01*
X229394072Y-113700918D01*
G37*
G36*
X219394072Y-113700918D02*
G01*
X219639939Y-113802759D01*
X219751328Y-113877187D01*
X219861211Y-113950609D01*
X220049391Y-114138789D01*
X220197242Y-114360063D01*
X220299082Y-114605928D01*
X220351000Y-114866937D01*
X220351000Y-115133063D01*
X220328323Y-115247068D01*
X220299082Y-115394072D01*
X220197241Y-115639939D01*
X220161070Y-115694072D01*
X220082435Y-115811758D01*
X220049390Y-115861212D01*
X219861212Y-116049390D01*
X219639939Y-116197241D01*
X219639938Y-116197242D01*
X219639937Y-116197242D01*
X219394072Y-116299082D01*
X219133063Y-116351000D01*
X218866937Y-116351000D01*
X218605928Y-116299082D01*
X218360063Y-116197242D01*
X218360062Y-116197242D01*
X218360061Y-116197241D01*
X218138788Y-116049390D01*
X217950610Y-115861212D01*
X217917566Y-115811758D01*
X217838930Y-115694072D01*
X217802759Y-115639939D01*
X217700918Y-115394072D01*
X217671677Y-115247068D01*
X217649000Y-115133063D01*
X217649000Y-114866937D01*
X217700918Y-114605928D01*
X217802758Y-114360063D01*
X217950609Y-114138789D01*
X218138789Y-113950609D01*
X218248672Y-113877187D01*
X218360061Y-113802759D01*
X218605928Y-113700918D01*
X218866937Y-113649000D01*
X219133063Y-113649000D01*
X219394072Y-113700918D01*
X219394072Y-113700918D01*
G37*
G36*
X67337142Y-114248242D02*
G01*
X67485101Y-114309529D01*
X67618255Y-114398499D01*
X67731501Y-114511745D01*
X67820471Y-114644899D01*
X67881758Y-114792858D01*
X67913000Y-114949925D01*
X67913000Y-115110075D01*
X67881758Y-115267142D01*
X67820471Y-115415101D01*
X67731501Y-115548255D01*
X67618255Y-115661501D01*
X67485101Y-115750471D01*
X67337142Y-115811758D01*
X67180075Y-115843000D01*
X67019925Y-115843000D01*
X66862858Y-115811758D01*
X66714899Y-115750471D01*
X66581745Y-115661501D01*
X66468499Y-115548255D01*
X66379529Y-115415101D01*
X66318242Y-115267142D01*
X66287000Y-115110075D01*
X66287000Y-114949925D01*
X66318242Y-114792858D01*
X66379529Y-114644899D01*
X66468499Y-114511745D01*
X66581745Y-114398499D01*
X66714899Y-114309529D01*
X66862858Y-114248242D01*
X67019925Y-114217000D01*
X67180075Y-114217000D01*
X67337142Y-114248242D01*
X67337142Y-114248242D01*
G37*
G36*
X88173000Y-115803000D02*
G01*
X86547000Y-115803000D01*
X86547000Y-114177000D01*
X88173000Y-114177000D01*
X88173000Y-115803000D01*
X88173000Y-115803000D01*
G37*
G36*
X67337142Y-111698242D02*
G01*
X67485101Y-111759529D01*
X67618255Y-111848499D01*
X67731501Y-111961745D01*
X67820471Y-112094899D01*
X67881758Y-112242858D01*
X67913000Y-112399925D01*
X67913000Y-112560075D01*
X67881758Y-112717142D01*
X67820471Y-112865101D01*
X67731501Y-112998255D01*
X67618255Y-113111501D01*
X67485101Y-113200471D01*
X67337142Y-113261758D01*
X67180075Y-113293000D01*
X67019925Y-113293000D01*
X66862858Y-113261758D01*
X66714899Y-113200471D01*
X66581745Y-113111501D01*
X66468499Y-112998255D01*
X66379529Y-112865101D01*
X66318242Y-112717142D01*
X66287000Y-112560075D01*
X66287000Y-112399925D01*
X66318242Y-112242858D01*
X66379529Y-112094899D01*
X66468499Y-111961745D01*
X66581745Y-111848499D01*
X66714899Y-111759529D01*
X66862858Y-111698242D01*
X67019925Y-111667000D01*
X67180075Y-111667000D01*
X67337142Y-111698242D01*
X67337142Y-111698242D01*
G37*
G36*
X87597142Y-111658242D02*
G01*
X87745101Y-111719529D01*
X87878255Y-111808499D01*
X87991501Y-111921745D01*
X88080471Y-112054899D01*
X88141758Y-112202858D01*
X88173000Y-112359925D01*
X88173000Y-112520075D01*
X88141758Y-112677142D01*
X88080471Y-112825101D01*
X87991501Y-112958255D01*
X87878255Y-113071501D01*
X87745101Y-113160471D01*
X87597142Y-113221758D01*
X87440075Y-113253000D01*
X87279925Y-113253000D01*
X87122858Y-113221758D01*
X86974899Y-113160471D01*
X86841745Y-113071501D01*
X86728499Y-112958255D01*
X86639529Y-112825101D01*
X86578242Y-112677142D01*
X86547000Y-112520075D01*
X86547000Y-112359925D01*
X86578242Y-112202858D01*
X86639529Y-112054899D01*
X86728499Y-111921745D01*
X86841745Y-111808499D01*
X86974899Y-111719529D01*
X87122858Y-111658242D01*
X87279925Y-111627000D01*
X87440075Y-111627000D01*
X87597142Y-111658242D01*
X87597142Y-111658242D01*
G37*
G36*
X67337142Y-109148242D02*
G01*
X67485101Y-109209529D01*
X67618255Y-109298499D01*
X67731501Y-109411745D01*
X67820471Y-109544899D01*
X67881758Y-109692858D01*
X67913000Y-109849925D01*
X67913000Y-110010075D01*
X67881758Y-110167142D01*
X67820471Y-110315101D01*
X67731501Y-110448255D01*
X67618255Y-110561501D01*
X67485101Y-110650471D01*
X67337142Y-110711758D01*
X67180075Y-110743000D01*
X67019925Y-110743000D01*
X66862858Y-110711758D01*
X66714899Y-110650471D01*
X66581745Y-110561501D01*
X66468499Y-110448255D01*
X66379529Y-110315101D01*
X66318242Y-110167142D01*
X66287000Y-110010075D01*
X66287000Y-109849925D01*
X66318242Y-109692858D01*
X66379529Y-109544899D01*
X66468499Y-109411745D01*
X66581745Y-109298499D01*
X66714899Y-109209529D01*
X66862858Y-109148242D01*
X67019925Y-109117000D01*
X67180075Y-109117000D01*
X67337142Y-109148242D01*
X67337142Y-109148242D01*
G37*
G36*
X87597142Y-109108242D02*
G01*
X87745101Y-109169529D01*
X87878255Y-109258499D01*
X87991501Y-109371745D01*
X88080471Y-109504899D01*
X88141758Y-109652858D01*
X88173000Y-109809925D01*
X88173000Y-109970075D01*
X88141758Y-110127142D01*
X88080471Y-110275101D01*
X87991501Y-110408255D01*
X87878255Y-110521501D01*
X87745101Y-110610471D01*
X87597142Y-110671758D01*
X87440075Y-110703000D01*
X87279925Y-110703000D01*
X87122858Y-110671758D01*
X86974899Y-110610471D01*
X86841745Y-110521501D01*
X86728499Y-110408255D01*
X86639529Y-110275101D01*
X86578242Y-110127142D01*
X86547000Y-109970075D01*
X86547000Y-109809925D01*
X86578242Y-109652858D01*
X86639529Y-109504899D01*
X86728499Y-109371745D01*
X86841745Y-109258499D01*
X86974899Y-109169529D01*
X87122858Y-109108242D01*
X87279925Y-109077000D01*
X87440075Y-109077000D01*
X87597142Y-109108242D01*
X87597142Y-109108242D01*
G37*
G36*
X67337142Y-106598242D02*
G01*
X67485101Y-106659529D01*
X67618255Y-106748499D01*
X67731501Y-106861745D01*
X67820471Y-106994899D01*
X67881758Y-107142858D01*
X67913000Y-107299925D01*
X67913000Y-107460075D01*
X67881758Y-107617142D01*
X67820471Y-107765101D01*
X67731501Y-107898255D01*
X67618255Y-108011501D01*
X67485101Y-108100471D01*
X67337142Y-108161758D01*
X67180075Y-108193000D01*
X67019925Y-108193000D01*
X66862858Y-108161758D01*
X66714899Y-108100471D01*
X66581745Y-108011501D01*
X66468499Y-107898255D01*
X66379529Y-107765101D01*
X66318242Y-107617142D01*
X66287000Y-107460075D01*
X66287000Y-107299925D01*
X66318242Y-107142858D01*
X66379529Y-106994899D01*
X66468499Y-106861745D01*
X66581745Y-106748499D01*
X66714899Y-106659529D01*
X66862858Y-106598242D01*
X67019925Y-106567000D01*
X67180075Y-106567000D01*
X67337142Y-106598242D01*
X67337142Y-106598242D01*
G37*
G36*
X87597142Y-106558242D02*
G01*
X87745101Y-106619529D01*
X87878255Y-106708499D01*
X87991501Y-106821745D01*
X88080471Y-106954899D01*
X88141758Y-107102858D01*
X88173000Y-107259925D01*
X88173000Y-107420075D01*
X88141758Y-107577142D01*
X88080471Y-107725101D01*
X87991501Y-107858255D01*
X87878255Y-107971501D01*
X87745101Y-108060471D01*
X87597142Y-108121758D01*
X87440075Y-108153000D01*
X87279925Y-108153000D01*
X87122858Y-108121758D01*
X86974899Y-108060471D01*
X86841745Y-107971501D01*
X86728499Y-107858255D01*
X86639529Y-107725101D01*
X86578242Y-107577142D01*
X86547000Y-107420075D01*
X86547000Y-107259925D01*
X86578242Y-107102858D01*
X86639529Y-106954899D01*
X86728499Y-106821745D01*
X86841745Y-106708499D01*
X86974899Y-106619529D01*
X87122858Y-106558242D01*
X87279925Y-106527000D01*
X87440075Y-106527000D01*
X87597142Y-106558242D01*
X87597142Y-106558242D01*
G37*
G36*
X67337142Y-104048242D02*
G01*
X67485101Y-104109529D01*
X67618255Y-104198499D01*
X67731501Y-104311745D01*
X67820471Y-104444899D01*
X67881758Y-104592858D01*
X67913000Y-104749925D01*
X67913000Y-104910075D01*
X67881758Y-105067142D01*
X67820471Y-105215101D01*
X67731501Y-105348255D01*
X67618255Y-105461501D01*
X67485101Y-105550471D01*
X67337142Y-105611758D01*
X67180075Y-105643000D01*
X67019925Y-105643000D01*
X66862858Y-105611758D01*
X66714899Y-105550471D01*
X66581745Y-105461501D01*
X66468499Y-105348255D01*
X66379529Y-105215101D01*
X66318242Y-105067142D01*
X66287000Y-104910075D01*
X66287000Y-104749925D01*
X66318242Y-104592858D01*
X66379529Y-104444899D01*
X66468499Y-104311745D01*
X66581745Y-104198499D01*
X66714899Y-104109529D01*
X66862858Y-104048242D01*
X67019925Y-104017000D01*
X67180075Y-104017000D01*
X67337142Y-104048242D01*
X67337142Y-104048242D01*
G37*
G36*
X87597142Y-104008242D02*
G01*
X87745101Y-104069529D01*
X87878255Y-104158499D01*
X87991501Y-104271745D01*
X88080471Y-104404899D01*
X88141758Y-104552858D01*
X88173000Y-104709925D01*
X88173000Y-104870075D01*
X88141758Y-105027142D01*
X88080471Y-105175101D01*
X87991501Y-105308255D01*
X87878255Y-105421501D01*
X87745101Y-105510471D01*
X87597142Y-105571758D01*
X87440075Y-105603000D01*
X87279925Y-105603000D01*
X87122858Y-105571758D01*
X86974899Y-105510471D01*
X86841745Y-105421501D01*
X86728499Y-105308255D01*
X86639529Y-105175101D01*
X86578242Y-105027142D01*
X86547000Y-104870075D01*
X86547000Y-104709925D01*
X86578242Y-104552858D01*
X86639529Y-104404899D01*
X86728499Y-104271745D01*
X86841745Y-104158499D01*
X86974899Y-104069529D01*
X87122858Y-104008242D01*
X87279925Y-103977000D01*
X87440075Y-103977000D01*
X87597142Y-104008242D01*
X87597142Y-104008242D01*
G37*
G36*
X47748213Y-99906249D02*
G01*
X47842652Y-99934897D01*
X47929687Y-99981418D01*
X48005975Y-100044025D01*
X48068582Y-100120313D01*
X48115103Y-100207348D01*
X48143751Y-100301787D01*
X48153424Y-100400000D01*
X48143751Y-100498213D01*
X48115103Y-100592652D01*
X48068582Y-100679687D01*
X48005975Y-100755975D01*
X47929687Y-100818582D01*
X47842652Y-100865103D01*
X47748213Y-100893751D01*
X47674612Y-100901000D01*
X46325388Y-100901000D01*
X46251787Y-100893751D01*
X46157348Y-100865103D01*
X46070313Y-100818582D01*
X45994025Y-100755975D01*
X45931418Y-100679687D01*
X45884897Y-100592652D01*
X45856249Y-100498213D01*
X45846576Y-100400000D01*
X45856249Y-100301787D01*
X45884897Y-100207348D01*
X45931418Y-100120313D01*
X45994025Y-100044025D01*
X46070313Y-99981418D01*
X46157348Y-99934897D01*
X46251787Y-99906249D01*
X46325388Y-99899000D01*
X47674612Y-99899000D01*
X47748213Y-99906249D01*
X47748213Y-99906249D01*
G37*
G36*
X51748213Y-99906249D02*
G01*
X51842652Y-99934897D01*
X51929687Y-99981418D01*
X52005975Y-100044025D01*
X52068582Y-100120313D01*
X52115103Y-100207348D01*
X52143751Y-100301787D01*
X52153424Y-100400000D01*
X52143751Y-100498213D01*
X52115103Y-100592652D01*
X52068582Y-100679687D01*
X52005975Y-100755975D01*
X51929687Y-100818582D01*
X51842652Y-100865103D01*
X51748213Y-100893751D01*
X51674612Y-100901000D01*
X50325388Y-100901000D01*
X50251787Y-100893751D01*
X50157348Y-100865103D01*
X50070313Y-100818582D01*
X49994025Y-100755975D01*
X49931418Y-100679687D01*
X49884897Y-100592652D01*
X49856249Y-100498213D01*
X49846576Y-100400000D01*
X49856249Y-100301787D01*
X49884897Y-100207348D01*
X49931418Y-100120313D01*
X49994025Y-100044025D01*
X50070313Y-99981418D01*
X50157348Y-99934897D01*
X50251787Y-99906249D01*
X50325388Y-99899000D01*
X51674612Y-99899000D01*
X51748213Y-99906249D01*
X51748213Y-99906249D01*
G37*
G36*
X55748213Y-99906249D02*
G01*
X55842652Y-99934897D01*
X55929687Y-99981418D01*
X56005975Y-100044025D01*
X56068582Y-100120313D01*
X56115103Y-100207348D01*
X56143751Y-100301787D01*
X56153424Y-100400000D01*
X56143751Y-100498213D01*
X56115103Y-100592652D01*
X56068582Y-100679687D01*
X56005975Y-100755975D01*
X55929687Y-100818582D01*
X55842652Y-100865103D01*
X55748213Y-100893751D01*
X55674612Y-100901000D01*
X54325388Y-100901000D01*
X54251787Y-100893751D01*
X54157348Y-100865103D01*
X54070313Y-100818582D01*
X53994025Y-100755975D01*
X53931418Y-100679687D01*
X53884897Y-100592652D01*
X53856249Y-100498213D01*
X53846576Y-100400000D01*
X53856249Y-100301787D01*
X53884897Y-100207348D01*
X53931418Y-100120313D01*
X53994025Y-100044025D01*
X54070313Y-99981418D01*
X54157348Y-99934897D01*
X54251787Y-99906249D01*
X54325388Y-99899000D01*
X55674612Y-99899000D01*
X55748213Y-99906249D01*
X55748213Y-99906249D01*
G37*
G36*
X266139943Y-94816248D02*
G01*
X266695189Y-95046238D01*
X266695190Y-95046239D01*
X267194899Y-95380134D01*
X267619866Y-95805101D01*
X267619867Y-95805103D01*
X267953762Y-96304811D01*
X268183752Y-96860057D01*
X268301000Y-97449501D01*
X268301000Y-98050499D01*
X268183752Y-98639943D01*
X267953762Y-99195189D01*
X267953761Y-99195190D01*
X267619866Y-99694899D01*
X267194899Y-100119866D01*
X267194230Y-100120313D01*
X266695189Y-100453762D01*
X266139943Y-100683752D01*
X265550499Y-100801000D01*
X264949501Y-100801000D01*
X264360057Y-100683752D01*
X263804811Y-100453762D01*
X263305770Y-100120313D01*
X263305101Y-100119866D01*
X262880134Y-99694899D01*
X262546239Y-99195190D01*
X262546238Y-99195189D01*
X262316248Y-98639943D01*
X262199000Y-98050499D01*
X262199000Y-97449501D01*
X262316248Y-96860057D01*
X262546238Y-96304811D01*
X262880133Y-95805103D01*
X262880134Y-95805101D01*
X263305101Y-95380134D01*
X263804810Y-95046239D01*
X263804811Y-95046238D01*
X264360057Y-94816248D01*
X264949501Y-94699000D01*
X265550499Y-94699000D01*
X266139943Y-94816248D01*
X266139943Y-94816248D01*
G37*
G36*
X38139943Y-94816248D02*
G01*
X38695189Y-95046238D01*
X38695190Y-95046239D01*
X39194899Y-95380134D01*
X39619866Y-95805101D01*
X39619867Y-95805103D01*
X39953762Y-96304811D01*
X40183752Y-96860057D01*
X40301000Y-97449501D01*
X40301000Y-98050499D01*
X40183752Y-98639943D01*
X39953762Y-99195189D01*
X39953761Y-99195190D01*
X39619866Y-99694899D01*
X39194899Y-100119866D01*
X39194230Y-100120313D01*
X38695189Y-100453762D01*
X38139943Y-100683752D01*
X37550499Y-100801000D01*
X36949501Y-100801000D01*
X36360057Y-100683752D01*
X35804811Y-100453762D01*
X35305770Y-100120313D01*
X35305101Y-100119866D01*
X34880134Y-99694899D01*
X34546239Y-99195190D01*
X34546238Y-99195189D01*
X34316248Y-98639943D01*
X34199000Y-98050499D01*
X34199000Y-97449501D01*
X34316248Y-96860057D01*
X34546238Y-96304811D01*
X34880133Y-95805103D01*
X34880134Y-95805101D01*
X35305101Y-95380134D01*
X35804810Y-95046239D01*
X35804811Y-95046238D01*
X36360057Y-94816248D01*
X36949501Y-94699000D01*
X37550499Y-94699000D01*
X38139943Y-94816248D01*
X38139943Y-94816248D01*
G37*
G36*
X55748213Y-97406249D02*
G01*
X55842652Y-97434897D01*
X55929687Y-97481418D01*
X56005975Y-97544025D01*
X56068582Y-97620313D01*
X56115103Y-97707348D01*
X56143751Y-97801787D01*
X56153424Y-97900000D01*
X56143751Y-97998213D01*
X56115103Y-98092652D01*
X56068582Y-98179687D01*
X56005975Y-98255975D01*
X55929687Y-98318582D01*
X55842652Y-98365103D01*
X55748213Y-98393751D01*
X55674612Y-98401000D01*
X54325388Y-98401000D01*
X54251787Y-98393751D01*
X54157348Y-98365103D01*
X54070313Y-98318582D01*
X53994025Y-98255975D01*
X53931418Y-98179687D01*
X53884897Y-98092652D01*
X53856249Y-97998213D01*
X53846576Y-97900000D01*
X53856249Y-97801787D01*
X53884897Y-97707348D01*
X53931418Y-97620313D01*
X53994025Y-97544025D01*
X54070313Y-97481418D01*
X54157348Y-97434897D01*
X54251787Y-97406249D01*
X54325388Y-97399000D01*
X55674612Y-97399000D01*
X55748213Y-97406249D01*
X55748213Y-97406249D01*
G37*
G36*
X47748213Y-97406249D02*
G01*
X47842652Y-97434897D01*
X47929687Y-97481418D01*
X48005975Y-97544025D01*
X48068582Y-97620313D01*
X48115103Y-97707348D01*
X48143751Y-97801787D01*
X48153424Y-97900000D01*
X48143751Y-97998213D01*
X48115103Y-98092652D01*
X48068582Y-98179687D01*
X48005975Y-98255975D01*
X47929687Y-98318582D01*
X47842652Y-98365103D01*
X47748213Y-98393751D01*
X47674612Y-98401000D01*
X46325388Y-98401000D01*
X46251787Y-98393751D01*
X46157348Y-98365103D01*
X46070313Y-98318582D01*
X45994025Y-98255975D01*
X45931418Y-98179687D01*
X45884897Y-98092652D01*
X45856249Y-97998213D01*
X45846576Y-97900000D01*
X45856249Y-97801787D01*
X45884897Y-97707348D01*
X45931418Y-97620313D01*
X45994025Y-97544025D01*
X46070313Y-97481418D01*
X46157348Y-97434897D01*
X46251787Y-97406249D01*
X46325388Y-97399000D01*
X47674612Y-97399000D01*
X47748213Y-97406249D01*
X47748213Y-97406249D01*
G37*
G36*
X51748213Y-97406249D02*
G01*
X51842652Y-97434897D01*
X51929687Y-97481418D01*
X52005975Y-97544025D01*
X52068582Y-97620313D01*
X52115103Y-97707348D01*
X52143751Y-97801787D01*
X52153424Y-97900000D01*
X52143751Y-97998213D01*
X52115103Y-98092652D01*
X52068582Y-98179687D01*
X52005975Y-98255975D01*
X51929687Y-98318582D01*
X51842652Y-98365103D01*
X51748213Y-98393751D01*
X51674612Y-98401000D01*
X50325388Y-98401000D01*
X50251787Y-98393751D01*
X50157348Y-98365103D01*
X50070313Y-98318582D01*
X49994025Y-98255975D01*
X49931418Y-98179687D01*
X49884897Y-98092652D01*
X49856249Y-97998213D01*
X49846576Y-97900000D01*
X49856249Y-97801787D01*
X49884897Y-97707348D01*
X49931418Y-97620313D01*
X49994025Y-97544025D01*
X50070313Y-97481418D01*
X50157348Y-97434897D01*
X50251787Y-97406249D01*
X50325388Y-97399000D01*
X51674612Y-97399000D01*
X51748213Y-97406249D01*
X51748213Y-97406249D01*
G37*
G36*
X255524260Y-95465371D02*
G01*
X255558071Y-95479376D01*
X255601784Y-95497482D01*
X255601787Y-95497484D01*
X255671559Y-95544104D01*
X255730896Y-95603441D01*
X255730897Y-95603443D01*
X255777518Y-95673216D01*
X255795624Y-95716929D01*
X255809629Y-95750740D01*
X255826000Y-95833043D01*
X255826000Y-95916957D01*
X255809629Y-95999260D01*
X255795624Y-96033071D01*
X255777518Y-96076784D01*
X255777516Y-96076787D01*
X255730896Y-96146559D01*
X255671559Y-96205896D01*
X255601787Y-96252516D01*
X255601784Y-96252518D01*
X255558071Y-96270624D01*
X255524260Y-96284629D01*
X255441957Y-96301000D01*
X255358043Y-96301000D01*
X255275740Y-96284629D01*
X255241929Y-96270624D01*
X255198216Y-96252518D01*
X255198213Y-96252516D01*
X255128441Y-96205896D01*
X255069104Y-96146559D01*
X255022484Y-96076787D01*
X255022482Y-96076784D01*
X255004376Y-96033071D01*
X254990371Y-95999260D01*
X254974000Y-95916957D01*
X254974000Y-95833043D01*
X254990371Y-95750740D01*
X255004376Y-95716929D01*
X255022482Y-95673216D01*
X255069103Y-95603443D01*
X255069104Y-95603441D01*
X255128441Y-95544104D01*
X255198213Y-95497484D01*
X255198216Y-95497482D01*
X255241929Y-95479376D01*
X255275740Y-95465371D01*
X255358043Y-95449000D01*
X255441957Y-95449000D01*
X255524260Y-95465371D01*
X255524260Y-95465371D01*
G37*
G36*
X254510721Y-94570174D02*
G01*
X254610995Y-94611709D01*
X254610996Y-94611710D01*
X254701242Y-94672010D01*
X254777990Y-94748758D01*
X254777991Y-94748760D01*
X254838291Y-94839005D01*
X254879826Y-94939279D01*
X254901000Y-95045730D01*
X254901000Y-95154270D01*
X254879826Y-95260721D01*
X254838291Y-95360995D01*
X254808345Y-95405812D01*
X254777990Y-95451242D01*
X254701242Y-95527990D01*
X254655812Y-95558345D01*
X254610995Y-95588291D01*
X254510721Y-95629826D01*
X254404270Y-95651000D01*
X254295730Y-95651000D01*
X254189279Y-95629826D01*
X254089005Y-95588291D01*
X254044188Y-95558345D01*
X253998758Y-95527990D01*
X253922010Y-95451242D01*
X253891655Y-95405812D01*
X253861709Y-95360995D01*
X253820174Y-95260721D01*
X253799000Y-95154270D01*
X253799000Y-95045730D01*
X253820174Y-94939279D01*
X253861709Y-94839005D01*
X253922009Y-94748760D01*
X253922010Y-94748758D01*
X253998758Y-94672010D01*
X254089004Y-94611710D01*
X254089005Y-94611709D01*
X254189279Y-94570174D01*
X254295730Y-94549000D01*
X254404270Y-94549000D01*
X254510721Y-94570174D01*
X254510721Y-94570174D01*
G37*
G36*
X256528610Y-91604802D02*
G01*
X256579002Y-91620089D01*
X256604199Y-91627732D01*
X256673862Y-91664968D01*
X256734922Y-91715078D01*
X256785032Y-91776138D01*
X256822268Y-91845801D01*
X256822268Y-91845802D01*
X256845198Y-91921390D01*
X256851000Y-91980302D01*
X256851000Y-93919698D01*
X256845198Y-93978610D01*
X256829911Y-94029002D01*
X256822268Y-94054199D01*
X256785032Y-94123862D01*
X256734922Y-94184922D01*
X256673860Y-94235033D01*
X256604200Y-94272267D01*
X256604197Y-94272268D01*
X256528609Y-94295198D01*
X256450000Y-94302940D01*
X256371390Y-94295198D01*
X256320998Y-94279911D01*
X256295801Y-94272268D01*
X256226138Y-94235032D01*
X256165078Y-94184922D01*
X256114967Y-94123860D01*
X256077733Y-94054200D01*
X256077732Y-94054197D01*
X256054802Y-93978609D01*
X256049000Y-93919697D01*
X256049001Y-91980302D01*
X256054803Y-91921390D01*
X256077733Y-91845802D01*
X256077733Y-91845801D01*
X256114969Y-91776138D01*
X256165079Y-91715078D01*
X256226139Y-91664968D01*
X256295802Y-91627732D01*
X256320999Y-91620089D01*
X256371391Y-91604802D01*
X256450000Y-91597060D01*
X256528610Y-91604802D01*
X256528610Y-91604802D01*
G37*
G36*
X254510721Y-90270174D02*
G01*
X254610995Y-90311709D01*
X254610996Y-90311710D01*
X254701242Y-90372010D01*
X254777990Y-90448758D01*
X254777991Y-90448760D01*
X254838291Y-90539005D01*
X254879826Y-90639279D01*
X254901000Y-90745730D01*
X254901000Y-90854270D01*
X254879826Y-90960721D01*
X254838291Y-91060995D01*
X254838290Y-91060996D01*
X254777990Y-91151242D01*
X254701242Y-91227990D01*
X254655812Y-91258345D01*
X254610995Y-91288291D01*
X254510721Y-91329826D01*
X254404270Y-91351000D01*
X254295730Y-91351000D01*
X254189279Y-91329826D01*
X254089005Y-91288291D01*
X254044188Y-91258345D01*
X253998758Y-91227990D01*
X253922010Y-91151242D01*
X253861710Y-91060996D01*
X253861709Y-91060995D01*
X253820174Y-90960721D01*
X253799000Y-90854270D01*
X253799000Y-90745730D01*
X253820174Y-90639279D01*
X253861709Y-90539005D01*
X253922009Y-90448760D01*
X253922010Y-90448758D01*
X253998758Y-90372010D01*
X254089004Y-90311710D01*
X254089005Y-90311709D01*
X254189279Y-90270174D01*
X254295730Y-90249000D01*
X254404270Y-90249000D01*
X254510721Y-90270174D01*
X254510721Y-90270174D01*
G37*
G36*
X255502383Y-89687489D02*
G01*
X255502386Y-89687490D01*
X255502385Y-89687490D01*
X255566258Y-89713946D01*
X255623748Y-89752360D01*
X255672640Y-89801252D01*
X255711054Y-89858742D01*
X255732624Y-89910818D01*
X255737511Y-89922617D01*
X255751000Y-89990430D01*
X255751000Y-90059570D01*
X255737511Y-90127383D01*
X255737510Y-90127385D01*
X255711054Y-90191258D01*
X255672640Y-90248748D01*
X255623748Y-90297640D01*
X255566258Y-90336054D01*
X255514182Y-90357624D01*
X255502383Y-90362511D01*
X255434570Y-90376000D01*
X255365430Y-90376000D01*
X255297617Y-90362511D01*
X255285818Y-90357624D01*
X255233742Y-90336054D01*
X255176252Y-90297640D01*
X255127360Y-90248748D01*
X255088946Y-90191258D01*
X255062490Y-90127385D01*
X255062489Y-90127383D01*
X255049000Y-90059570D01*
X255049000Y-89990430D01*
X255062489Y-89922617D01*
X255067376Y-89910818D01*
X255088946Y-89858742D01*
X255127360Y-89801252D01*
X255176252Y-89752360D01*
X255233742Y-89713946D01*
X255297615Y-89687490D01*
X255297614Y-89687490D01*
X255297617Y-89687489D01*
X255365430Y-89674000D01*
X255434570Y-89674000D01*
X255502383Y-89687489D01*
X255502383Y-89687489D01*
G37*
G36*
X184156131Y-87835078D02*
G01*
X184233439Y-87850455D01*
X184306261Y-87880619D01*
X184379085Y-87910784D01*
X184510159Y-87998364D01*
X184621636Y-88109841D01*
X184709216Y-88240915D01*
X184769545Y-88386562D01*
X184800300Y-88541176D01*
X184800300Y-88698824D01*
X184769545Y-88853438D01*
X184709216Y-88999085D01*
X184621636Y-89130159D01*
X184510159Y-89241636D01*
X184379085Y-89329216D01*
X184306262Y-89359380D01*
X184233439Y-89389545D01*
X184156131Y-89404922D01*
X184078824Y-89420300D01*
X183921176Y-89420300D01*
X183843869Y-89404922D01*
X183766561Y-89389545D01*
X183693738Y-89359380D01*
X183620915Y-89329216D01*
X183489841Y-89241636D01*
X183378364Y-89130159D01*
X183290784Y-88999085D01*
X183230455Y-88853438D01*
X183199700Y-88698824D01*
X183199700Y-88541176D01*
X183230455Y-88386562D01*
X183290784Y-88240915D01*
X183378364Y-88109841D01*
X183489841Y-87998364D01*
X183620915Y-87910784D01*
X183693739Y-87880619D01*
X183766561Y-87850455D01*
X183843869Y-87835078D01*
X183921176Y-87819700D01*
X184078824Y-87819700D01*
X184156131Y-87835078D01*
X184156131Y-87835078D01*
G37*
G36*
X192420300Y-89420300D02*
G01*
X190819700Y-89420300D01*
X190819700Y-87819700D01*
X192420300Y-87819700D01*
X192420300Y-89420300D01*
X192420300Y-89420300D01*
G37*
G36*
X191776131Y-85295077D02*
G01*
X191853439Y-85310455D01*
X191926262Y-85340620D01*
X191999085Y-85370784D01*
X192130159Y-85458364D01*
X192241636Y-85569841D01*
X192329216Y-85700915D01*
X192389545Y-85846562D01*
X192420300Y-86001176D01*
X192420300Y-86158824D01*
X192389545Y-86313438D01*
X192329216Y-86459085D01*
X192241636Y-86590159D01*
X192130159Y-86701636D01*
X191999085Y-86789216D01*
X191926262Y-86819380D01*
X191853439Y-86849545D01*
X191776131Y-86864922D01*
X191698824Y-86880300D01*
X191541176Y-86880300D01*
X191463869Y-86864922D01*
X191386561Y-86849545D01*
X191313738Y-86819380D01*
X191240915Y-86789216D01*
X191109841Y-86701636D01*
X190998364Y-86590159D01*
X190910784Y-86459085D01*
X190850455Y-86313438D01*
X190819700Y-86158824D01*
X190819700Y-86001176D01*
X190850455Y-85846562D01*
X190910784Y-85700915D01*
X190998364Y-85569841D01*
X191109841Y-85458364D01*
X191240915Y-85370784D01*
X191313738Y-85340620D01*
X191386561Y-85310455D01*
X191463869Y-85295077D01*
X191541176Y-85279700D01*
X191698824Y-85279700D01*
X191776131Y-85295077D01*
X191776131Y-85295077D01*
G37*
G36*
X184156131Y-85295077D02*
G01*
X184233439Y-85310455D01*
X184306262Y-85340620D01*
X184379085Y-85370784D01*
X184510159Y-85458364D01*
X184621636Y-85569841D01*
X184709216Y-85700915D01*
X184769545Y-85846562D01*
X184800300Y-86001176D01*
X184800300Y-86158824D01*
X184769545Y-86313438D01*
X184709216Y-86459085D01*
X184621636Y-86590159D01*
X184510159Y-86701636D01*
X184379085Y-86789216D01*
X184306262Y-86819380D01*
X184233439Y-86849545D01*
X184156131Y-86864922D01*
X184078824Y-86880300D01*
X183921176Y-86880300D01*
X183843869Y-86864922D01*
X183766561Y-86849545D01*
X183693738Y-86819380D01*
X183620915Y-86789216D01*
X183489841Y-86701636D01*
X183378364Y-86590159D01*
X183290784Y-86459085D01*
X183230455Y-86313438D01*
X183199700Y-86158824D01*
X183199700Y-86001176D01*
X183230455Y-85846562D01*
X183290784Y-85700915D01*
X183378364Y-85569841D01*
X183489841Y-85458364D01*
X183620915Y-85370784D01*
X183693738Y-85340620D01*
X183766561Y-85310455D01*
X183843869Y-85295077D01*
X183921176Y-85279700D01*
X184078824Y-85279700D01*
X184156131Y-85295077D01*
X184156131Y-85295077D01*
G37*
G36*
X37552585Y-82978802D02*
G01*
X37702410Y-83008604D01*
X37984674Y-83125521D01*
X38238705Y-83295259D01*
X38454741Y-83511295D01*
X38624479Y-83765326D01*
X38741396Y-84047590D01*
X38801000Y-84347240D01*
X38801000Y-84652760D01*
X38741396Y-84952410D01*
X38624479Y-85234674D01*
X38454741Y-85488705D01*
X38238705Y-85704741D01*
X37984674Y-85874479D01*
X37702410Y-85991396D01*
X37552585Y-86021198D01*
X37402761Y-86051000D01*
X37097239Y-86051000D01*
X36947415Y-86021198D01*
X36797590Y-85991396D01*
X36515326Y-85874479D01*
X36261295Y-85704741D01*
X36045259Y-85488705D01*
X35875521Y-85234674D01*
X35758604Y-84952410D01*
X35699000Y-84652760D01*
X35699000Y-84347240D01*
X35758604Y-84047590D01*
X35875521Y-83765326D01*
X36045259Y-83511295D01*
X36261295Y-83295259D01*
X36515326Y-83125521D01*
X36797590Y-83008604D01*
X36947415Y-82978802D01*
X37097239Y-82949000D01*
X37402761Y-82949000D01*
X37552585Y-82978802D01*
X37552585Y-82978802D01*
G37*
G36*
X60052585Y-82978802D02*
G01*
X60202410Y-83008604D01*
X60484674Y-83125521D01*
X60738705Y-83295259D01*
X60954741Y-83511295D01*
X61124479Y-83765326D01*
X61241396Y-84047590D01*
X61301000Y-84347240D01*
X61301000Y-84652760D01*
X61241396Y-84952410D01*
X61124479Y-85234674D01*
X60954741Y-85488705D01*
X60738705Y-85704741D01*
X60484674Y-85874479D01*
X60202410Y-85991396D01*
X60052585Y-86021198D01*
X59902761Y-86051000D01*
X59597239Y-86051000D01*
X59447415Y-86021198D01*
X59297590Y-85991396D01*
X59015326Y-85874479D01*
X58761295Y-85704741D01*
X58545259Y-85488705D01*
X58375521Y-85234674D01*
X58258604Y-84952410D01*
X58199000Y-84652760D01*
X58199000Y-84347240D01*
X58258604Y-84047590D01*
X58375521Y-83765326D01*
X58545259Y-83511295D01*
X58761295Y-83295259D01*
X59015326Y-83125521D01*
X59297590Y-83008604D01*
X59447415Y-82978802D01*
X59597239Y-82949000D01*
X59902761Y-82949000D01*
X60052585Y-82978802D01*
X60052585Y-82978802D01*
G37*
G36*
X48818433Y-83134893D02*
G01*
X48908657Y-83152839D01*
X48928156Y-83160916D01*
X49163621Y-83258449D01*
X49235626Y-83306561D01*
X49393086Y-83411772D01*
X49588228Y-83606914D01*
X49690675Y-83760237D01*
X49741551Y-83836379D01*
X49775809Y-83919085D01*
X49830103Y-84050161D01*
X49847161Y-84091344D01*
X49901000Y-84362012D01*
X49901000Y-84637988D01*
X49898061Y-84652761D01*
X49847161Y-84908657D01*
X49803415Y-85014267D01*
X49741551Y-85163621D01*
X49741550Y-85163622D01*
X49588228Y-85393086D01*
X49393086Y-85588228D01*
X49239763Y-85690675D01*
X49163621Y-85741551D01*
X49014267Y-85803415D01*
X48908657Y-85847161D01*
X48818433Y-85865107D01*
X48637988Y-85901000D01*
X48362012Y-85901000D01*
X48181567Y-85865107D01*
X48091343Y-85847161D01*
X47985733Y-85803415D01*
X47836379Y-85741551D01*
X47760237Y-85690675D01*
X47606914Y-85588228D01*
X47411772Y-85393086D01*
X47258450Y-85163622D01*
X47258449Y-85163621D01*
X47196585Y-85014267D01*
X47152839Y-84908657D01*
X47101939Y-84652761D01*
X47099000Y-84637988D01*
X47099000Y-84362012D01*
X47152839Y-84091344D01*
X47169898Y-84050161D01*
X47224191Y-83919085D01*
X47258449Y-83836379D01*
X47309325Y-83760237D01*
X47411772Y-83606914D01*
X47606914Y-83411772D01*
X47764374Y-83306561D01*
X47836379Y-83258449D01*
X48071844Y-83160916D01*
X48091343Y-83152839D01*
X48181567Y-83134893D01*
X48362012Y-83099000D01*
X48637988Y-83099000D01*
X48818433Y-83134893D01*
X48818433Y-83134893D01*
G37*
G36*
X191776131Y-82755078D02*
G01*
X191853439Y-82770455D01*
X191926261Y-82800619D01*
X191999085Y-82830784D01*
X192130159Y-82918364D01*
X192241636Y-83029841D01*
X192329216Y-83160915D01*
X192389545Y-83306562D01*
X192420300Y-83461176D01*
X192420300Y-83618824D01*
X192389545Y-83773438D01*
X192329216Y-83919085D01*
X192241636Y-84050159D01*
X192130159Y-84161636D01*
X191999085Y-84249216D01*
X191926261Y-84279381D01*
X191853439Y-84309545D01*
X191776131Y-84324923D01*
X191698824Y-84340300D01*
X191541176Y-84340300D01*
X191463869Y-84324923D01*
X191386561Y-84309545D01*
X191313738Y-84279380D01*
X191240915Y-84249216D01*
X191109841Y-84161636D01*
X190998364Y-84050159D01*
X190910784Y-83919085D01*
X190850455Y-83773438D01*
X190819700Y-83618824D01*
X190819700Y-83461176D01*
X190850455Y-83306562D01*
X190910784Y-83160915D01*
X190998364Y-83029841D01*
X191109841Y-82918364D01*
X191240915Y-82830784D01*
X191313739Y-82800619D01*
X191386561Y-82770455D01*
X191463869Y-82755078D01*
X191541176Y-82739700D01*
X191698824Y-82739700D01*
X191776131Y-82755078D01*
X191776131Y-82755078D01*
G37*
G36*
X184156131Y-82755078D02*
G01*
X184233439Y-82770455D01*
X184306261Y-82800619D01*
X184379085Y-82830784D01*
X184510159Y-82918364D01*
X184621636Y-83029841D01*
X184709216Y-83160915D01*
X184769545Y-83306562D01*
X184800300Y-83461176D01*
X184800300Y-83618824D01*
X184769545Y-83773438D01*
X184709216Y-83919085D01*
X184621636Y-84050159D01*
X184510159Y-84161636D01*
X184379085Y-84249216D01*
X184306261Y-84279381D01*
X184233439Y-84309545D01*
X184156131Y-84324923D01*
X184078824Y-84340300D01*
X183921176Y-84340300D01*
X183843869Y-84324923D01*
X183766561Y-84309545D01*
X183693738Y-84279380D01*
X183620915Y-84249216D01*
X183489841Y-84161636D01*
X183378364Y-84050159D01*
X183290784Y-83919085D01*
X183230455Y-83773438D01*
X183199700Y-83618824D01*
X183199700Y-83461176D01*
X183230455Y-83306562D01*
X183290784Y-83160915D01*
X183378364Y-83029841D01*
X183489841Y-82918364D01*
X183620915Y-82830784D01*
X183693739Y-82800619D01*
X183766561Y-82770455D01*
X183843869Y-82755078D01*
X183921176Y-82739700D01*
X184078824Y-82739700D01*
X184156131Y-82755078D01*
X184156131Y-82755078D01*
G37*
G36*
X184156131Y-80215078D02*
G01*
X184233439Y-80230455D01*
X184306262Y-80260620D01*
X184379085Y-80290784D01*
X184510159Y-80378364D01*
X184621636Y-80489841D01*
X184709216Y-80620915D01*
X184769545Y-80766562D01*
X184800300Y-80921176D01*
X184800300Y-81078824D01*
X184769545Y-81233438D01*
X184709216Y-81379085D01*
X184621636Y-81510159D01*
X184510159Y-81621636D01*
X184379085Y-81709216D01*
X184306262Y-81739380D01*
X184233439Y-81769545D01*
X184156131Y-81784923D01*
X184078824Y-81800300D01*
X183921176Y-81800300D01*
X183843869Y-81784923D01*
X183766561Y-81769545D01*
X183693738Y-81739380D01*
X183620915Y-81709216D01*
X183489841Y-81621636D01*
X183378364Y-81510159D01*
X183290784Y-81379085D01*
X183230455Y-81233438D01*
X183199700Y-81078824D01*
X183199700Y-80921176D01*
X183230455Y-80766562D01*
X183290784Y-80620915D01*
X183378364Y-80489841D01*
X183489841Y-80378364D01*
X183620915Y-80290784D01*
X183693738Y-80260620D01*
X183766561Y-80230455D01*
X183843869Y-80215078D01*
X183921176Y-80199700D01*
X184078824Y-80199700D01*
X184156131Y-80215078D01*
X184156131Y-80215078D01*
G37*
G36*
X191776131Y-80215078D02*
G01*
X191853439Y-80230455D01*
X191926262Y-80260620D01*
X191999085Y-80290784D01*
X192130159Y-80378364D01*
X192241636Y-80489841D01*
X192329216Y-80620915D01*
X192389545Y-80766562D01*
X192420300Y-80921176D01*
X192420300Y-81078824D01*
X192389545Y-81233438D01*
X192329216Y-81379085D01*
X192241636Y-81510159D01*
X192130159Y-81621636D01*
X191999085Y-81709216D01*
X191926262Y-81739380D01*
X191853439Y-81769545D01*
X191776131Y-81784923D01*
X191698824Y-81800300D01*
X191541176Y-81800300D01*
X191463869Y-81784923D01*
X191386561Y-81769545D01*
X191313738Y-81739380D01*
X191240915Y-81709216D01*
X191109841Y-81621636D01*
X190998364Y-81510159D01*
X190910784Y-81379085D01*
X190850455Y-81233438D01*
X190819700Y-81078824D01*
X190819700Y-80921176D01*
X190850455Y-80766562D01*
X190910784Y-80620915D01*
X190998364Y-80489841D01*
X191109841Y-80378364D01*
X191240915Y-80290784D01*
X191313738Y-80260620D01*
X191386561Y-80230455D01*
X191463869Y-80215078D01*
X191541176Y-80199700D01*
X191698824Y-80199700D01*
X191776131Y-80215078D01*
X191776131Y-80215078D01*
G37*
G36*
X129352585Y-76278802D02*
G01*
X129502410Y-76308604D01*
X129784674Y-76425521D01*
X130038705Y-76595259D01*
X130254741Y-76811295D01*
X130424479Y-77065326D01*
X130541396Y-77347590D01*
X130601000Y-77647240D01*
X130601000Y-77952760D01*
X130541396Y-78252410D01*
X130424479Y-78534674D01*
X130254741Y-78788705D01*
X130038705Y-79004741D01*
X129784674Y-79174479D01*
X129502410Y-79291396D01*
X129352585Y-79321198D01*
X129202761Y-79351000D01*
X128897239Y-79351000D01*
X128747415Y-79321198D01*
X128597590Y-79291396D01*
X128315326Y-79174479D01*
X128061295Y-79004741D01*
X127845259Y-78788705D01*
X127675521Y-78534674D01*
X127558604Y-78252410D01*
X127499000Y-77952760D01*
X127499000Y-77647240D01*
X127558604Y-77347590D01*
X127675521Y-77065326D01*
X127845259Y-76811295D01*
X128061295Y-76595259D01*
X128315326Y-76425521D01*
X128597590Y-76308604D01*
X128747415Y-76278802D01*
X128897239Y-76249000D01*
X129202761Y-76249000D01*
X129352585Y-76278802D01*
X129352585Y-76278802D01*
G37*
G36*
X94102585Y-76278802D02*
G01*
X94252410Y-76308604D01*
X94534674Y-76425521D01*
X94788705Y-76595259D01*
X95004741Y-76811295D01*
X95174479Y-77065326D01*
X95291396Y-77347590D01*
X95351000Y-77647240D01*
X95351000Y-77952760D01*
X95291396Y-78252410D01*
X95174479Y-78534674D01*
X95004741Y-78788705D01*
X94788705Y-79004741D01*
X94534674Y-79174479D01*
X94252410Y-79291396D01*
X94102585Y-79321198D01*
X93952761Y-79351000D01*
X93647239Y-79351000D01*
X93497415Y-79321198D01*
X93347590Y-79291396D01*
X93065326Y-79174479D01*
X92811295Y-79004741D01*
X92595259Y-78788705D01*
X92425521Y-78534674D01*
X92308604Y-78252410D01*
X92249000Y-77952760D01*
X92249000Y-77647240D01*
X92308604Y-77347590D01*
X92425521Y-77065326D01*
X92595259Y-76811295D01*
X92811295Y-76595259D01*
X93065326Y-76425521D01*
X93347590Y-76308604D01*
X93497415Y-76278802D01*
X93647239Y-76249000D01*
X93952761Y-76249000D01*
X94102585Y-76278802D01*
X94102585Y-76278802D01*
G37*
G36*
X117537142Y-76018242D02*
G01*
X117685101Y-76079529D01*
X117818255Y-76168499D01*
X117931501Y-76281745D01*
X118020471Y-76414899D01*
X118081758Y-76562858D01*
X118113000Y-76719925D01*
X118113000Y-76880075D01*
X118081758Y-77037142D01*
X118020471Y-77185101D01*
X117931501Y-77318255D01*
X117818255Y-77431501D01*
X117685101Y-77520471D01*
X117537142Y-77581758D01*
X117380075Y-77613000D01*
X117219925Y-77613000D01*
X117062858Y-77581758D01*
X116914899Y-77520471D01*
X116781745Y-77431501D01*
X116668499Y-77318255D01*
X116579529Y-77185101D01*
X116518242Y-77037142D01*
X116487000Y-76880075D01*
X116487000Y-76719925D01*
X116518242Y-76562858D01*
X116579529Y-76414899D01*
X116668499Y-76281745D01*
X116781745Y-76168499D01*
X116914899Y-76079529D01*
X117062858Y-76018242D01*
X117219925Y-75987000D01*
X117380075Y-75987000D01*
X117537142Y-76018242D01*
X117537142Y-76018242D01*
G37*
G36*
X120037142Y-76018242D02*
G01*
X120185101Y-76079529D01*
X120318255Y-76168499D01*
X120431501Y-76281745D01*
X120520471Y-76414899D01*
X120581758Y-76562858D01*
X120613000Y-76719925D01*
X120613000Y-76880075D01*
X120581758Y-77037142D01*
X120520471Y-77185101D01*
X120431501Y-77318255D01*
X120318255Y-77431501D01*
X120185101Y-77520471D01*
X120037142Y-77581758D01*
X119880075Y-77613000D01*
X119719925Y-77613000D01*
X119562858Y-77581758D01*
X119414899Y-77520471D01*
X119281745Y-77431501D01*
X119168499Y-77318255D01*
X119079529Y-77185101D01*
X119018242Y-77037142D01*
X118987000Y-76880075D01*
X118987000Y-76719925D01*
X119018242Y-76562858D01*
X119079529Y-76414899D01*
X119168499Y-76281745D01*
X119281745Y-76168499D01*
X119414899Y-76079529D01*
X119562858Y-76018242D01*
X119719925Y-75987000D01*
X119880075Y-75987000D01*
X120037142Y-76018242D01*
X120037142Y-76018242D01*
G37*
G36*
X115037142Y-76018242D02*
G01*
X115185101Y-76079529D01*
X115318255Y-76168499D01*
X115431501Y-76281745D01*
X115520471Y-76414899D01*
X115581758Y-76562858D01*
X115613000Y-76719925D01*
X115613000Y-76880075D01*
X115581758Y-77037142D01*
X115520471Y-77185101D01*
X115431501Y-77318255D01*
X115318255Y-77431501D01*
X115185101Y-77520471D01*
X115037142Y-77581758D01*
X114880075Y-77613000D01*
X114719925Y-77613000D01*
X114562858Y-77581758D01*
X114414899Y-77520471D01*
X114281745Y-77431501D01*
X114168499Y-77318255D01*
X114079529Y-77185101D01*
X114018242Y-77037142D01*
X113987000Y-76880075D01*
X113987000Y-76719925D01*
X114018242Y-76562858D01*
X114079529Y-76414899D01*
X114168499Y-76281745D01*
X114281745Y-76168499D01*
X114414899Y-76079529D01*
X114562858Y-76018242D01*
X114719925Y-75987000D01*
X114880075Y-75987000D01*
X115037142Y-76018242D01*
X115037142Y-76018242D01*
G37*
G36*
X105037142Y-76018242D02*
G01*
X105185101Y-76079529D01*
X105318255Y-76168499D01*
X105431501Y-76281745D01*
X105520471Y-76414899D01*
X105581758Y-76562858D01*
X105613000Y-76719925D01*
X105613000Y-76880075D01*
X105581758Y-77037142D01*
X105520471Y-77185101D01*
X105431501Y-77318255D01*
X105318255Y-77431501D01*
X105185101Y-77520471D01*
X105037142Y-77581758D01*
X104880075Y-77613000D01*
X104719925Y-77613000D01*
X104562858Y-77581758D01*
X104414899Y-77520471D01*
X104281745Y-77431501D01*
X104168499Y-77318255D01*
X104079529Y-77185101D01*
X104018242Y-77037142D01*
X103987000Y-76880075D01*
X103987000Y-76719925D01*
X104018242Y-76562858D01*
X104079529Y-76414899D01*
X104168499Y-76281745D01*
X104281745Y-76168499D01*
X104414899Y-76079529D01*
X104562858Y-76018242D01*
X104719925Y-75987000D01*
X104880075Y-75987000D01*
X105037142Y-76018242D01*
X105037142Y-76018242D01*
G37*
G36*
X110037142Y-76018242D02*
G01*
X110185101Y-76079529D01*
X110318255Y-76168499D01*
X110431501Y-76281745D01*
X110520471Y-76414899D01*
X110581758Y-76562858D01*
X110613000Y-76719925D01*
X110613000Y-76880075D01*
X110581758Y-77037142D01*
X110520471Y-77185101D01*
X110431501Y-77318255D01*
X110318255Y-77431501D01*
X110185101Y-77520471D01*
X110037142Y-77581758D01*
X109880075Y-77613000D01*
X109719925Y-77613000D01*
X109562858Y-77581758D01*
X109414899Y-77520471D01*
X109281745Y-77431501D01*
X109168499Y-77318255D01*
X109079529Y-77185101D01*
X109018242Y-77037142D01*
X108987000Y-76880075D01*
X108987000Y-76719925D01*
X109018242Y-76562858D01*
X109079529Y-76414899D01*
X109168499Y-76281745D01*
X109281745Y-76168499D01*
X109414899Y-76079529D01*
X109562858Y-76018242D01*
X109719925Y-75987000D01*
X109880075Y-75987000D01*
X110037142Y-76018242D01*
X110037142Y-76018242D01*
G37*
G36*
X112537142Y-76018242D02*
G01*
X112685101Y-76079529D01*
X112818255Y-76168499D01*
X112931501Y-76281745D01*
X113020471Y-76414899D01*
X113081758Y-76562858D01*
X113113000Y-76719925D01*
X113113000Y-76880075D01*
X113081758Y-77037142D01*
X113020471Y-77185101D01*
X112931501Y-77318255D01*
X112818255Y-77431501D01*
X112685101Y-77520471D01*
X112537142Y-77581758D01*
X112380075Y-77613000D01*
X112219925Y-77613000D01*
X112062858Y-77581758D01*
X111914899Y-77520471D01*
X111781745Y-77431501D01*
X111668499Y-77318255D01*
X111579529Y-77185101D01*
X111518242Y-77037142D01*
X111487000Y-76880075D01*
X111487000Y-76719925D01*
X111518242Y-76562858D01*
X111579529Y-76414899D01*
X111668499Y-76281745D01*
X111781745Y-76168499D01*
X111914899Y-76079529D01*
X112062858Y-76018242D01*
X112219925Y-75987000D01*
X112380075Y-75987000D01*
X112537142Y-76018242D01*
X112537142Y-76018242D01*
G37*
G36*
X102537142Y-76018242D02*
G01*
X102685101Y-76079529D01*
X102818255Y-76168499D01*
X102931501Y-76281745D01*
X103020471Y-76414899D01*
X103081758Y-76562858D01*
X103113000Y-76719925D01*
X103113000Y-76880075D01*
X103081758Y-77037142D01*
X103020471Y-77185101D01*
X102931501Y-77318255D01*
X102818255Y-77431501D01*
X102685101Y-77520471D01*
X102537142Y-77581758D01*
X102380075Y-77613000D01*
X102219925Y-77613000D01*
X102062858Y-77581758D01*
X101914899Y-77520471D01*
X101781745Y-77431501D01*
X101668499Y-77318255D01*
X101579529Y-77185101D01*
X101518242Y-77037142D01*
X101487000Y-76880075D01*
X101487000Y-76719925D01*
X101518242Y-76562858D01*
X101579529Y-76414899D01*
X101668499Y-76281745D01*
X101781745Y-76168499D01*
X101914899Y-76079529D01*
X102062858Y-76018242D01*
X102219925Y-75987000D01*
X102380075Y-75987000D01*
X102537142Y-76018242D01*
X102537142Y-76018242D01*
G37*
G36*
X107537142Y-76018242D02*
G01*
X107685101Y-76079529D01*
X107818255Y-76168499D01*
X107931501Y-76281745D01*
X108020471Y-76414899D01*
X108081758Y-76562858D01*
X108113000Y-76719925D01*
X108113000Y-76880075D01*
X108081758Y-77037142D01*
X108020471Y-77185101D01*
X107931501Y-77318255D01*
X107818255Y-77431501D01*
X107685101Y-77520471D01*
X107537142Y-77581758D01*
X107380075Y-77613000D01*
X107219925Y-77613000D01*
X107062858Y-77581758D01*
X106914899Y-77520471D01*
X106781745Y-77431501D01*
X106668499Y-77318255D01*
X106579529Y-77185101D01*
X106518242Y-77037142D01*
X106487000Y-76880075D01*
X106487000Y-76719925D01*
X106518242Y-76562858D01*
X106579529Y-76414899D01*
X106668499Y-76281745D01*
X106781745Y-76168499D01*
X106914899Y-76079529D01*
X107062858Y-76018242D01*
X107219925Y-75987000D01*
X107380075Y-75987000D01*
X107537142Y-76018242D01*
X107537142Y-76018242D01*
G37*
G36*
X82430318Y-67845153D02*
G01*
X82648885Y-67935687D01*
X82648887Y-67935688D01*
X82845593Y-68067122D01*
X83012878Y-68234407D01*
X83116173Y-68389000D01*
X83144313Y-68431115D01*
X83234847Y-68649682D01*
X83281000Y-68881710D01*
X83281000Y-69118290D01*
X83234847Y-69350318D01*
X83186670Y-69466627D01*
X83144312Y-69568887D01*
X83012878Y-69765593D01*
X82845593Y-69932878D01*
X82648887Y-70064312D01*
X82648886Y-70064313D01*
X82648885Y-70064313D01*
X82430318Y-70154847D01*
X82198290Y-70201000D01*
X81961710Y-70201000D01*
X81729682Y-70154847D01*
X81511115Y-70064313D01*
X81511114Y-70064313D01*
X81511113Y-70064312D01*
X81314407Y-69932878D01*
X81147122Y-69765593D01*
X81015688Y-69568887D01*
X80973330Y-69466627D01*
X80925153Y-69350318D01*
X80879000Y-69118290D01*
X80879000Y-68881710D01*
X80925153Y-68649682D01*
X81015687Y-68431115D01*
X81043827Y-68389000D01*
X81147122Y-68234407D01*
X81314407Y-68067122D01*
X81511113Y-67935688D01*
X81511115Y-67935687D01*
X81729682Y-67845153D01*
X81961710Y-67799000D01*
X82198290Y-67799000D01*
X82430318Y-67845153D01*
X82430318Y-67845153D01*
G37*
G36*
X57030318Y-67845153D02*
G01*
X57248885Y-67935687D01*
X57248887Y-67935688D01*
X57445593Y-68067122D01*
X57612878Y-68234407D01*
X57716173Y-68389000D01*
X57744313Y-68431115D01*
X57834847Y-68649682D01*
X57881000Y-68881710D01*
X57881000Y-69118290D01*
X57834847Y-69350318D01*
X57786670Y-69466627D01*
X57744312Y-69568887D01*
X57612878Y-69765593D01*
X57445593Y-69932878D01*
X57248887Y-70064312D01*
X57248886Y-70064313D01*
X57248885Y-70064313D01*
X57030318Y-70154847D01*
X56798290Y-70201000D01*
X56561710Y-70201000D01*
X56329682Y-70154847D01*
X56111115Y-70064313D01*
X56111114Y-70064313D01*
X56111113Y-70064312D01*
X55914407Y-69932878D01*
X55747122Y-69765593D01*
X55615688Y-69568887D01*
X55573330Y-69466627D01*
X55525153Y-69350318D01*
X55479000Y-69118290D01*
X55479000Y-68881710D01*
X55525153Y-68649682D01*
X55615687Y-68431115D01*
X55643827Y-68389000D01*
X55747122Y-68234407D01*
X55914407Y-68067122D01*
X56111113Y-67935688D01*
X56111115Y-67935687D01*
X56329682Y-67845153D01*
X56561710Y-67799000D01*
X56798290Y-67799000D01*
X57030318Y-67845153D01*
X57030318Y-67845153D01*
G37*
G36*
X52651000Y-70201000D02*
G01*
X50549000Y-70201000D01*
X50549000Y-67799000D01*
X52651000Y-67799000D01*
X52651000Y-70201000D01*
X52651000Y-70201000D01*
G37*
G36*
X200320443Y-68395519D02*
G01*
X200386627Y-68402037D01*
X200556466Y-68453557D01*
X200712991Y-68537222D01*
X200748729Y-68566552D01*
X200850186Y-68649814D01*
X200933448Y-68751271D01*
X200962778Y-68787009D01*
X201046443Y-68943534D01*
X201097963Y-69113373D01*
X201115359Y-69290000D01*
X201097963Y-69466627D01*
X201046443Y-69636466D01*
X200962778Y-69792991D01*
X200933448Y-69828729D01*
X200850186Y-69930186D01*
X200748729Y-70013448D01*
X200712991Y-70042778D01*
X200556466Y-70126443D01*
X200386627Y-70177963D01*
X200320442Y-70184482D01*
X200254260Y-70191000D01*
X200165740Y-70191000D01*
X200099558Y-70184482D01*
X200033373Y-70177963D01*
X199863534Y-70126443D01*
X199707009Y-70042778D01*
X199671271Y-70013448D01*
X199569814Y-69930186D01*
X199486552Y-69828729D01*
X199457222Y-69792991D01*
X199373557Y-69636466D01*
X199322037Y-69466627D01*
X199304641Y-69290000D01*
X199322037Y-69113373D01*
X199373557Y-68943534D01*
X199457222Y-68787009D01*
X199486552Y-68751271D01*
X199569814Y-68649814D01*
X199671271Y-68566552D01*
X199707009Y-68537222D01*
X199863534Y-68453557D01*
X200033373Y-68402037D01*
X200099557Y-68395519D01*
X200165740Y-68389000D01*
X200254260Y-68389000D01*
X200320443Y-68395519D01*
X200320443Y-68395519D01*
G37*
G36*
X197780443Y-68395519D02*
G01*
X197846627Y-68402037D01*
X198016466Y-68453557D01*
X198172991Y-68537222D01*
X198208729Y-68566552D01*
X198310186Y-68649814D01*
X198393448Y-68751271D01*
X198422778Y-68787009D01*
X198506443Y-68943534D01*
X198557963Y-69113373D01*
X198575359Y-69290000D01*
X198557963Y-69466627D01*
X198506443Y-69636466D01*
X198422778Y-69792991D01*
X198393448Y-69828729D01*
X198310186Y-69930186D01*
X198208729Y-70013448D01*
X198172991Y-70042778D01*
X198016466Y-70126443D01*
X197846627Y-70177963D01*
X197780442Y-70184482D01*
X197714260Y-70191000D01*
X197625740Y-70191000D01*
X197559558Y-70184482D01*
X197493373Y-70177963D01*
X197323534Y-70126443D01*
X197167009Y-70042778D01*
X197131271Y-70013448D01*
X197029814Y-69930186D01*
X196946552Y-69828729D01*
X196917222Y-69792991D01*
X196833557Y-69636466D01*
X196782037Y-69466627D01*
X196764641Y-69290000D01*
X196782037Y-69113373D01*
X196833557Y-68943534D01*
X196917222Y-68787009D01*
X196946552Y-68751271D01*
X197029814Y-68649814D01*
X197131271Y-68566552D01*
X197167009Y-68537222D01*
X197323534Y-68453557D01*
X197493373Y-68402037D01*
X197559557Y-68395519D01*
X197625740Y-68389000D01*
X197714260Y-68389000D01*
X197780443Y-68395519D01*
X197780443Y-68395519D01*
G37*
G36*
X202860443Y-68395519D02*
G01*
X202926627Y-68402037D01*
X203096466Y-68453557D01*
X203252991Y-68537222D01*
X203288729Y-68566552D01*
X203390186Y-68649814D01*
X203473448Y-68751271D01*
X203502778Y-68787009D01*
X203586443Y-68943534D01*
X203637963Y-69113373D01*
X203655359Y-69290000D01*
X203637963Y-69466627D01*
X203586443Y-69636466D01*
X203502778Y-69792991D01*
X203473448Y-69828729D01*
X203390186Y-69930186D01*
X203288729Y-70013448D01*
X203252991Y-70042778D01*
X203096466Y-70126443D01*
X202926627Y-70177963D01*
X202860442Y-70184482D01*
X202794260Y-70191000D01*
X202705740Y-70191000D01*
X202639558Y-70184482D01*
X202573373Y-70177963D01*
X202403534Y-70126443D01*
X202247009Y-70042778D01*
X202211271Y-70013448D01*
X202109814Y-69930186D01*
X202026552Y-69828729D01*
X201997222Y-69792991D01*
X201913557Y-69636466D01*
X201862037Y-69466627D01*
X201844641Y-69290000D01*
X201862037Y-69113373D01*
X201913557Y-68943534D01*
X201997222Y-68787009D01*
X202026552Y-68751271D01*
X202109814Y-68649814D01*
X202211271Y-68566552D01*
X202247009Y-68537222D01*
X202403534Y-68453557D01*
X202573373Y-68402037D01*
X202639557Y-68395519D01*
X202705740Y-68389000D01*
X202794260Y-68389000D01*
X202860443Y-68395519D01*
X202860443Y-68395519D01*
G37*
G36*
X203651000Y-67651000D02*
G01*
X201849000Y-67651000D01*
X201849000Y-65849000D01*
X203651000Y-65849000D01*
X203651000Y-67651000D01*
X203651000Y-67651000D01*
G37*
G36*
X200320442Y-65855518D02*
G01*
X200386627Y-65862037D01*
X200556466Y-65913557D01*
X200712991Y-65997222D01*
X200748729Y-66026552D01*
X200850186Y-66109814D01*
X200933448Y-66211271D01*
X200962778Y-66247009D01*
X201046443Y-66403534D01*
X201097963Y-66573373D01*
X201115359Y-66750000D01*
X201097963Y-66926627D01*
X201046443Y-67096466D01*
X200962778Y-67252991D01*
X200933448Y-67288729D01*
X200850186Y-67390186D01*
X200748729Y-67473448D01*
X200712991Y-67502778D01*
X200556466Y-67586443D01*
X200386627Y-67637963D01*
X200320443Y-67644481D01*
X200254260Y-67651000D01*
X200165740Y-67651000D01*
X200099557Y-67644481D01*
X200033373Y-67637963D01*
X199863534Y-67586443D01*
X199707009Y-67502778D01*
X199671271Y-67473448D01*
X199569814Y-67390186D01*
X199486552Y-67288729D01*
X199457222Y-67252991D01*
X199373557Y-67096466D01*
X199322037Y-66926627D01*
X199304641Y-66750000D01*
X199322037Y-66573373D01*
X199373557Y-66403534D01*
X199457222Y-66247009D01*
X199486552Y-66211271D01*
X199569814Y-66109814D01*
X199671271Y-66026552D01*
X199707009Y-65997222D01*
X199863534Y-65913557D01*
X200033373Y-65862037D01*
X200099558Y-65855518D01*
X200165740Y-65849000D01*
X200254260Y-65849000D01*
X200320442Y-65855518D01*
X200320442Y-65855518D01*
G37*
G36*
X197780442Y-65855518D02*
G01*
X197846627Y-65862037D01*
X198016466Y-65913557D01*
X198172991Y-65997222D01*
X198208729Y-66026552D01*
X198310186Y-66109814D01*
X198393448Y-66211271D01*
X198422778Y-66247009D01*
X198506443Y-66403534D01*
X198557963Y-66573373D01*
X198575359Y-66750000D01*
X198557963Y-66926627D01*
X198506443Y-67096466D01*
X198422778Y-67252991D01*
X198393448Y-67288729D01*
X198310186Y-67390186D01*
X198208729Y-67473448D01*
X198172991Y-67502778D01*
X198016466Y-67586443D01*
X197846627Y-67637963D01*
X197780443Y-67644481D01*
X197714260Y-67651000D01*
X197625740Y-67651000D01*
X197559557Y-67644481D01*
X197493373Y-67637963D01*
X197323534Y-67586443D01*
X197167009Y-67502778D01*
X197131271Y-67473448D01*
X197029814Y-67390186D01*
X196946552Y-67288729D01*
X196917222Y-67252991D01*
X196833557Y-67096466D01*
X196782037Y-66926627D01*
X196764641Y-66750000D01*
X196782037Y-66573373D01*
X196833557Y-66403534D01*
X196917222Y-66247009D01*
X196946552Y-66211271D01*
X197029814Y-66109814D01*
X197131271Y-66026552D01*
X197167009Y-65997222D01*
X197323534Y-65913557D01*
X197493373Y-65862037D01*
X197559558Y-65855518D01*
X197625740Y-65849000D01*
X197714260Y-65849000D01*
X197780442Y-65855518D01*
X197780442Y-65855518D01*
G37*
G36*
X239292585Y-62978802D02*
G01*
X239442410Y-63008604D01*
X239724674Y-63125521D01*
X239978705Y-63295259D01*
X240194741Y-63511295D01*
X240364479Y-63765326D01*
X240481396Y-64047590D01*
X240541000Y-64347240D01*
X240541000Y-64652760D01*
X240481396Y-64952410D01*
X240364479Y-65234674D01*
X240194741Y-65488705D01*
X239978705Y-65704741D01*
X239724674Y-65874479D01*
X239442410Y-65991396D01*
X239292585Y-66021198D01*
X239142761Y-66051000D01*
X238837239Y-66051000D01*
X238687415Y-66021198D01*
X238537590Y-65991396D01*
X238255326Y-65874479D01*
X238001295Y-65704741D01*
X237785259Y-65488705D01*
X237615521Y-65234674D01*
X237498604Y-64952410D01*
X237439000Y-64652760D01*
X237439000Y-64347240D01*
X237498604Y-64047590D01*
X237615521Y-63765326D01*
X237785259Y-63511295D01*
X238001295Y-63295259D01*
X238255326Y-63125521D01*
X238537590Y-63008604D01*
X238687415Y-62978802D01*
X238837239Y-62949000D01*
X239142761Y-62949000D01*
X239292585Y-62978802D01*
X239292585Y-62978802D01*
G37*
G36*
X220051000Y-66051000D02*
G01*
X216949000Y-66051000D01*
X216949000Y-62949000D01*
X220051000Y-62949000D01*
X220051000Y-66051000D01*
X220051000Y-66051000D01*
G37*
G36*
X77350318Y-50065153D02*
G01*
X77568885Y-50155687D01*
X77568887Y-50155688D01*
X77765593Y-50287122D01*
X77932878Y-50454407D01*
X78064312Y-50651113D01*
X78064313Y-50651115D01*
X78154847Y-50869682D01*
X78201000Y-51101710D01*
X78201000Y-51338290D01*
X78154847Y-51570318D01*
X78064313Y-51788885D01*
X78064312Y-51788887D01*
X77932878Y-51985593D01*
X77765593Y-52152878D01*
X77568887Y-52284312D01*
X77568886Y-52284313D01*
X77568885Y-52284313D01*
X77350318Y-52374847D01*
X77118290Y-52421000D01*
X76881710Y-52421000D01*
X76649682Y-52374847D01*
X76431115Y-52284313D01*
X76431114Y-52284313D01*
X76431113Y-52284312D01*
X76234407Y-52152878D01*
X76067122Y-51985593D01*
X75935688Y-51788887D01*
X75935687Y-51788885D01*
X75845153Y-51570318D01*
X75799000Y-51338290D01*
X75799000Y-51101710D01*
X75845153Y-50869682D01*
X75935687Y-50651115D01*
X75935688Y-50651113D01*
X76067122Y-50454407D01*
X76234407Y-50287122D01*
X76431113Y-50155688D01*
X76431115Y-50155687D01*
X76649682Y-50065153D01*
X76881710Y-50019000D01*
X77118290Y-50019000D01*
X77350318Y-50065153D01*
X77350318Y-50065153D01*
G37*
G36*
X82430318Y-50065153D02*
G01*
X82648885Y-50155687D01*
X82648887Y-50155688D01*
X82845593Y-50287122D01*
X83012878Y-50454407D01*
X83144312Y-50651113D01*
X83144313Y-50651115D01*
X83234847Y-50869682D01*
X83281000Y-51101710D01*
X83281000Y-51338290D01*
X83234847Y-51570318D01*
X83144313Y-51788885D01*
X83144312Y-51788887D01*
X83012878Y-51985593D01*
X82845593Y-52152878D01*
X82648887Y-52284312D01*
X82648886Y-52284313D01*
X82648885Y-52284313D01*
X82430318Y-52374847D01*
X82198290Y-52421000D01*
X81961710Y-52421000D01*
X81729682Y-52374847D01*
X81511115Y-52284313D01*
X81511114Y-52284313D01*
X81511113Y-52284312D01*
X81314407Y-52152878D01*
X81147122Y-51985593D01*
X81015688Y-51788887D01*
X81015687Y-51788885D01*
X80925153Y-51570318D01*
X80879000Y-51338290D01*
X80879000Y-51101710D01*
X80925153Y-50869682D01*
X81015687Y-50651115D01*
X81015688Y-50651113D01*
X81147122Y-50454407D01*
X81314407Y-50287122D01*
X81511113Y-50155688D01*
X81511115Y-50155687D01*
X81729682Y-50065153D01*
X81961710Y-50019000D01*
X82198290Y-50019000D01*
X82430318Y-50065153D01*
X82430318Y-50065153D01*
G37*
G36*
X94102585Y-35278802D02*
G01*
X94252410Y-35308604D01*
X94534674Y-35425521D01*
X94788705Y-35595259D01*
X95004741Y-35811295D01*
X95174479Y-36065326D01*
X95291396Y-36347590D01*
X95291396Y-36347591D01*
X95351000Y-36647239D01*
X95351000Y-36952761D01*
X95331459Y-37051000D01*
X95291396Y-37252410D01*
X95174479Y-37534674D01*
X95004741Y-37788705D01*
X94788705Y-38004741D01*
X94534674Y-38174479D01*
X94252410Y-38291396D01*
X94102585Y-38321198D01*
X93952761Y-38351000D01*
X93647239Y-38351000D01*
X93497415Y-38321198D01*
X93347590Y-38291396D01*
X93065326Y-38174479D01*
X92811295Y-38004741D01*
X92595259Y-37788705D01*
X92425521Y-37534674D01*
X92308604Y-37252410D01*
X92268541Y-37051000D01*
X92249000Y-36952761D01*
X92249000Y-36647239D01*
X92308604Y-36347591D01*
X92308604Y-36347590D01*
X92425521Y-36065326D01*
X92595259Y-35811295D01*
X92811295Y-35595259D01*
X93065326Y-35425521D01*
X93347590Y-35308604D01*
X93497415Y-35278802D01*
X93647239Y-35249000D01*
X93952761Y-35249000D01*
X94102585Y-35278802D01*
X94102585Y-35278802D01*
G37*
G36*
X129352585Y-35278802D02*
G01*
X129502410Y-35308604D01*
X129784674Y-35425521D01*
X130038705Y-35595259D01*
X130254741Y-35811295D01*
X130424479Y-36065326D01*
X130541396Y-36347590D01*
X130541396Y-36347591D01*
X130601000Y-36647239D01*
X130601000Y-36952761D01*
X130581459Y-37051000D01*
X130541396Y-37252410D01*
X130424479Y-37534674D01*
X130254741Y-37788705D01*
X130038705Y-38004741D01*
X129784674Y-38174479D01*
X129502410Y-38291396D01*
X129352585Y-38321198D01*
X129202761Y-38351000D01*
X128897239Y-38351000D01*
X128747415Y-38321198D01*
X128597590Y-38291396D01*
X128315326Y-38174479D01*
X128061295Y-38004741D01*
X127845259Y-37788705D01*
X127675521Y-37534674D01*
X127558604Y-37252410D01*
X127518541Y-37051000D01*
X127499000Y-36952761D01*
X127499000Y-36647239D01*
X127558604Y-36347591D01*
X127558604Y-36347590D01*
X127675521Y-36065326D01*
X127845259Y-35811295D01*
X128061295Y-35595259D01*
X128315326Y-35425521D01*
X128597590Y-35308604D01*
X128747415Y-35278802D01*
X128897239Y-35249000D01*
X129202761Y-35249000D01*
X129352585Y-35278802D01*
X129352585Y-35278802D01*
G37*
G36*
X137530442Y-35605518D02*
G01*
X137596627Y-35612037D01*
X137766466Y-35663557D01*
X137922991Y-35747222D01*
X137958729Y-35776552D01*
X138060186Y-35859814D01*
X138130012Y-35944899D01*
X138172778Y-35997009D01*
X138256443Y-36153534D01*
X138307963Y-36323373D01*
X138325359Y-36500000D01*
X138307963Y-36676627D01*
X138256443Y-36846466D01*
X138172778Y-37002991D01*
X138143448Y-37038729D01*
X138060186Y-37140186D01*
X137958729Y-37223448D01*
X137922991Y-37252778D01*
X137766466Y-37336443D01*
X137596627Y-37387963D01*
X137530442Y-37394482D01*
X137464260Y-37401000D01*
X137375740Y-37401000D01*
X137309558Y-37394482D01*
X137243373Y-37387963D01*
X137073534Y-37336443D01*
X136917009Y-37252778D01*
X136881271Y-37223448D01*
X136779814Y-37140186D01*
X136696552Y-37038729D01*
X136667222Y-37002991D01*
X136583557Y-36846466D01*
X136532037Y-36676627D01*
X136514641Y-36500000D01*
X136532037Y-36323373D01*
X136583557Y-36153534D01*
X136667222Y-35997009D01*
X136709988Y-35944899D01*
X136779814Y-35859814D01*
X136881271Y-35776552D01*
X136917009Y-35747222D01*
X137073534Y-35663557D01*
X137243373Y-35612037D01*
X137309558Y-35605518D01*
X137375740Y-35599000D01*
X137464260Y-35599000D01*
X137530442Y-35605518D01*
X137530442Y-35605518D01*
G37*
G36*
X140070442Y-35605518D02*
G01*
X140136627Y-35612037D01*
X140306466Y-35663557D01*
X140462991Y-35747222D01*
X140498729Y-35776552D01*
X140600186Y-35859814D01*
X140670012Y-35944899D01*
X140712778Y-35997009D01*
X140796443Y-36153534D01*
X140847963Y-36323373D01*
X140865359Y-36500000D01*
X140847963Y-36676627D01*
X140796443Y-36846466D01*
X140712778Y-37002991D01*
X140683448Y-37038729D01*
X140600186Y-37140186D01*
X140498729Y-37223448D01*
X140462991Y-37252778D01*
X140306466Y-37336443D01*
X140136627Y-37387963D01*
X140070442Y-37394482D01*
X140004260Y-37401000D01*
X139915740Y-37401000D01*
X139849558Y-37394482D01*
X139783373Y-37387963D01*
X139613534Y-37336443D01*
X139457009Y-37252778D01*
X139421271Y-37223448D01*
X139319814Y-37140186D01*
X139236552Y-37038729D01*
X139207222Y-37002991D01*
X139123557Y-36846466D01*
X139072037Y-36676627D01*
X139054641Y-36500000D01*
X139072037Y-36323373D01*
X139123557Y-36153534D01*
X139207222Y-35997009D01*
X139249988Y-35944899D01*
X139319814Y-35859814D01*
X139421271Y-35776552D01*
X139457009Y-35747222D01*
X139613534Y-35663557D01*
X139783373Y-35612037D01*
X139849558Y-35605518D01*
X139915740Y-35599000D01*
X140004260Y-35599000D01*
X140070442Y-35605518D01*
X140070442Y-35605518D01*
G37*
G36*
X143401000Y-37401000D02*
G01*
X141599000Y-37401000D01*
X141599000Y-35599000D01*
X143401000Y-35599000D01*
X143401000Y-37401000D01*
X143401000Y-37401000D01*
G37*
G36*
X39639943Y-31066248D02*
G01*
X40195189Y-31296238D01*
X40195190Y-31296239D01*
X40694899Y-31630134D01*
X41119866Y-32055101D01*
X41119867Y-32055103D01*
X41453762Y-32554811D01*
X41683752Y-33110057D01*
X41801000Y-33699501D01*
X41801000Y-34300499D01*
X41683752Y-34889943D01*
X41453762Y-35445189D01*
X41342277Y-35612037D01*
X41119866Y-35944899D01*
X40694899Y-36369866D01*
X40500140Y-36500000D01*
X40195189Y-36703762D01*
X39639943Y-36933752D01*
X39050499Y-37051000D01*
X38449501Y-37051000D01*
X37860057Y-36933752D01*
X37304811Y-36703762D01*
X36999860Y-36500000D01*
X36805101Y-36369866D01*
X36380134Y-35944899D01*
X36157723Y-35612037D01*
X36046238Y-35445189D01*
X35816248Y-34889943D01*
X35699000Y-34300499D01*
X35699000Y-33699501D01*
X35816248Y-33110057D01*
X36046238Y-32554811D01*
X36380133Y-32055103D01*
X36380134Y-32055101D01*
X36805101Y-31630134D01*
X37304810Y-31296239D01*
X37304811Y-31296238D01*
X37860057Y-31066248D01*
X38449501Y-30949000D01*
X39050499Y-30949000D01*
X39639943Y-31066248D01*
X39639943Y-31066248D01*
G37*
G36*
X264639943Y-31066248D02*
G01*
X265195189Y-31296238D01*
X265195190Y-31296239D01*
X265694899Y-31630134D01*
X266119866Y-32055101D01*
X266119867Y-32055103D01*
X266453762Y-32554811D01*
X266683752Y-33110057D01*
X266801000Y-33699501D01*
X266801000Y-34300499D01*
X266683752Y-34889943D01*
X266453762Y-35445189D01*
X266342277Y-35612037D01*
X266119866Y-35944899D01*
X265694899Y-36369866D01*
X265500140Y-36500000D01*
X265195189Y-36703762D01*
X264639943Y-36933752D01*
X264050499Y-37051000D01*
X263449501Y-37051000D01*
X262860057Y-36933752D01*
X262304811Y-36703762D01*
X261999860Y-36500000D01*
X261805101Y-36369866D01*
X261380134Y-35944899D01*
X261157723Y-35612037D01*
X261046238Y-35445189D01*
X260816248Y-34889943D01*
X260699000Y-34300499D01*
X260699000Y-33699501D01*
X260816248Y-33110057D01*
X261046238Y-32554811D01*
X261380133Y-32055103D01*
X261380134Y-32055101D01*
X261805101Y-31630134D01*
X262304810Y-31296239D01*
X262304811Y-31296238D01*
X262860057Y-31066248D01*
X263449501Y-30949000D01*
X264050499Y-30949000D01*
X264639943Y-31066248D01*
X264639943Y-31066248D01*
G37*
M02*
