G04 #@! TF.GenerationSoftware,KiCad,Pcbnew,(5.1.2)-2*
G04 #@! TF.CreationDate,2019-08-19T13:28:15+03:00*
G04 #@! TF.ProjectId,Main board,4d61696e-2062-46f6-9172-642e6b696361,rev?*
G04 #@! TF.SameCoordinates,Original*
G04 #@! TF.FileFunction,Legend,Bot*
G04 #@! TF.FilePolarity,Positive*
%FSLAX46Y46*%
G04 Gerber Fmt 4.6, Leading zero omitted, Abs format (unit mm)*
G04 Created by KiCad (PCBNEW (5.1.2)-2) date 2019-08-19 13:28:15*
%MOMM*%
%LPD*%
G04 APERTURE LIST*
%ADD10C,0.150000*%
G04 APERTURE END LIST*
D10*
X160057142Y-62609523D02*
X159771428Y-62704761D01*
X159295238Y-62704761D01*
X159104761Y-62609523D01*
X159009523Y-62514285D01*
X158914285Y-62323809D01*
X158914285Y-62133333D01*
X159009523Y-61942857D01*
X159104761Y-61847619D01*
X159295238Y-61752380D01*
X159676190Y-61657142D01*
X159866666Y-61561904D01*
X159961904Y-61466666D01*
X160057142Y-61276190D01*
X160057142Y-61085714D01*
X159961904Y-60895238D01*
X159866666Y-60800000D01*
X159676190Y-60704761D01*
X159200000Y-60704761D01*
X158914285Y-60800000D01*
X158342857Y-61371428D02*
X157580952Y-61371428D01*
X158057142Y-60704761D02*
X158057142Y-62419047D01*
X157961904Y-62609523D01*
X157771428Y-62704761D01*
X157580952Y-62704761D01*
X156914285Y-62704761D02*
X156914285Y-61371428D01*
X156914285Y-60704761D02*
X157009523Y-60800000D01*
X156914285Y-60895238D01*
X156819047Y-60800000D01*
X156914285Y-60704761D01*
X156914285Y-60895238D01*
X155676190Y-62704761D02*
X155866666Y-62609523D01*
X155961904Y-62419047D01*
X155961904Y-60704761D01*
X154628571Y-62704761D02*
X154819047Y-62609523D01*
X154914285Y-62419047D01*
X154914285Y-60704761D01*
X152342857Y-61371428D02*
X152342857Y-62704761D01*
X152342857Y-61561904D02*
X152247619Y-61466666D01*
X152057142Y-61371428D01*
X151771428Y-61371428D01*
X151580952Y-61466666D01*
X151485714Y-61657142D01*
X151485714Y-62704761D01*
X150247619Y-62704761D02*
X150438095Y-62609523D01*
X150533333Y-62514285D01*
X150628571Y-62323809D01*
X150628571Y-61752380D01*
X150533333Y-61561904D01*
X150438095Y-61466666D01*
X150247619Y-61371428D01*
X149961904Y-61371428D01*
X149771428Y-61466666D01*
X149676190Y-61561904D01*
X149580952Y-61752380D01*
X149580952Y-62323809D01*
X149676190Y-62514285D01*
X149771428Y-62609523D01*
X149961904Y-62704761D01*
X150247619Y-62704761D01*
X146438095Y-62609523D02*
X146628571Y-62704761D01*
X147009523Y-62704761D01*
X147200000Y-62609523D01*
X147295238Y-62419047D01*
X147295238Y-61657142D01*
X147200000Y-61466666D01*
X147009523Y-61371428D01*
X146628571Y-61371428D01*
X146438095Y-61466666D01*
X146342857Y-61657142D01*
X146342857Y-61847619D01*
X147295238Y-62038095D01*
X144628571Y-62704761D02*
X144628571Y-61657142D01*
X144723809Y-61466666D01*
X144914285Y-61371428D01*
X145295238Y-61371428D01*
X145485714Y-61466666D01*
X144628571Y-62609523D02*
X144819047Y-62704761D01*
X145295238Y-62704761D01*
X145485714Y-62609523D01*
X145580952Y-62419047D01*
X145580952Y-62228571D01*
X145485714Y-62038095D01*
X145295238Y-61942857D01*
X144819047Y-61942857D01*
X144628571Y-61847619D01*
X143771428Y-62609523D02*
X143580952Y-62704761D01*
X143200000Y-62704761D01*
X143009523Y-62609523D01*
X142914285Y-62419047D01*
X142914285Y-62323809D01*
X143009523Y-62133333D01*
X143200000Y-62038095D01*
X143485714Y-62038095D01*
X143676190Y-61942857D01*
X143771428Y-61752380D01*
X143771428Y-61657142D01*
X143676190Y-61466666D01*
X143485714Y-61371428D01*
X143200000Y-61371428D01*
X143009523Y-61466666D01*
X142342857Y-61371428D02*
X141580952Y-61371428D01*
X142057142Y-60704761D02*
X142057142Y-62419047D01*
X141961904Y-62609523D01*
X141771428Y-62704761D01*
X141580952Y-62704761D01*
X140152380Y-62609523D02*
X140342857Y-62704761D01*
X140723809Y-62704761D01*
X140914285Y-62609523D01*
X141009523Y-62419047D01*
X141009523Y-61657142D01*
X140914285Y-61466666D01*
X140723809Y-61371428D01*
X140342857Y-61371428D01*
X140152380Y-61466666D01*
X140057142Y-61657142D01*
X140057142Y-61847619D01*
X141009523Y-62038095D01*
X139200000Y-62704761D02*
X139200000Y-61371428D01*
X139200000Y-61752380D02*
X139104761Y-61561904D01*
X139009523Y-61466666D01*
X138819047Y-61371428D01*
X138628571Y-61371428D01*
X135676190Y-62609523D02*
X135866666Y-62704761D01*
X136247619Y-62704761D01*
X136438095Y-62609523D01*
X136533333Y-62419047D01*
X136533333Y-61657142D01*
X136438095Y-61466666D01*
X136247619Y-61371428D01*
X135866666Y-61371428D01*
X135676190Y-61466666D01*
X135580952Y-61657142D01*
X135580952Y-61847619D01*
X136533333Y-62038095D01*
X133866666Y-61371428D02*
X133866666Y-62990476D01*
X133961904Y-63180952D01*
X134057142Y-63276190D01*
X134247619Y-63371428D01*
X134533333Y-63371428D01*
X134723809Y-63276190D01*
X133866666Y-62609523D02*
X134057142Y-62704761D01*
X134438095Y-62704761D01*
X134628571Y-62609523D01*
X134723809Y-62514285D01*
X134819047Y-62323809D01*
X134819047Y-61752380D01*
X134723809Y-61561904D01*
X134628571Y-61466666D01*
X134438095Y-61371428D01*
X134057142Y-61371428D01*
X133866666Y-61466666D01*
X132057142Y-61371428D02*
X132057142Y-62990476D01*
X132152380Y-63180952D01*
X132247619Y-63276190D01*
X132438095Y-63371428D01*
X132723809Y-63371428D01*
X132914285Y-63276190D01*
X132057142Y-62609523D02*
X132247619Y-62704761D01*
X132628571Y-62704761D01*
X132819047Y-62609523D01*
X132914285Y-62514285D01*
X133009523Y-62323809D01*
X133009523Y-61752380D01*
X132914285Y-61561904D01*
X132819047Y-61466666D01*
X132628571Y-61371428D01*
X132247619Y-61371428D01*
X132057142Y-61466666D01*
X131200000Y-62609523D02*
X131009523Y-62704761D01*
X130628571Y-62704761D01*
X130438095Y-62609523D01*
X130342857Y-62419047D01*
X130342857Y-62323809D01*
X130438095Y-62133333D01*
X130628571Y-62038095D01*
X130914285Y-62038095D01*
X131104761Y-61942857D01*
X131200000Y-61752380D01*
X131200000Y-61657142D01*
X131104761Y-61466666D01*
X130914285Y-61371428D01*
X130628571Y-61371428D01*
X130438095Y-61466666D01*
X127961904Y-62704761D02*
X127961904Y-60704761D01*
X127104761Y-62704761D02*
X127104761Y-61657142D01*
X127200000Y-61466666D01*
X127390476Y-61371428D01*
X127676190Y-61371428D01*
X127866666Y-61466666D01*
X127961904Y-61561904D01*
X125390476Y-62609523D02*
X125580952Y-62704761D01*
X125961904Y-62704761D01*
X126152380Y-62609523D01*
X126247619Y-62419047D01*
X126247619Y-61657142D01*
X126152380Y-61466666D01*
X125961904Y-61371428D01*
X125580952Y-61371428D01*
X125390476Y-61466666D01*
X125295238Y-61657142D01*
X125295238Y-61847619D01*
X126247619Y-62038095D01*
X124438095Y-62704761D02*
X124438095Y-61371428D01*
X124438095Y-61752380D02*
X124342857Y-61561904D01*
X124247619Y-61466666D01*
X124057142Y-61371428D01*
X123866666Y-61371428D01*
X122438095Y-62609523D02*
X122628571Y-62704761D01*
X123009523Y-62704761D01*
X123200000Y-62609523D01*
X123295238Y-62419047D01*
X123295238Y-61657142D01*
X123200000Y-61466666D01*
X123009523Y-61371428D01*
X122628571Y-61371428D01*
X122438095Y-61466666D01*
X122342857Y-61657142D01*
X122342857Y-61847619D01*
X123295238Y-62038095D01*
M02*
