G04 #@! TF.GenerationSoftware,KiCad,Pcbnew,(5.1.2)-2*
G04 #@! TF.CreationDate,2019-07-31T16:25:01+03:00*
G04 #@! TF.ProjectId,Main board,4d61696e-2062-46f6-9172-642e6b696361,rev?*
G04 #@! TF.SameCoordinates,Original*
G04 #@! TF.FileFunction,Legend,Bot*
G04 #@! TF.FilePolarity,Positive*
%FSLAX46Y46*%
G04 Gerber Fmt 4.6, Leading zero omitted, Abs format (unit mm)*
G04 Created by KiCad (PCBNEW (5.1.2)-2) date 2019-07-31 16:25:01*
%MOMM*%
%LPD*%
G04 APERTURE LIST*
%ADD10C,0.150000*%
G04 APERTURE END LIST*
D10*
X156295238Y-62704761D02*
X156295238Y-60704761D01*
X155152380Y-62704761D01*
X155152380Y-60704761D01*
X153914285Y-62704761D02*
X154104761Y-62609523D01*
X154200000Y-62514285D01*
X154295238Y-62323809D01*
X154295238Y-61752380D01*
X154200000Y-61561904D01*
X154104761Y-61466666D01*
X153914285Y-61371428D01*
X153628571Y-61371428D01*
X153438095Y-61466666D01*
X153342857Y-61561904D01*
X153247619Y-61752380D01*
X153247619Y-62323809D01*
X153342857Y-62514285D01*
X153438095Y-62609523D01*
X153628571Y-62704761D01*
X153914285Y-62704761D01*
X150104761Y-62609523D02*
X150295238Y-62704761D01*
X150676190Y-62704761D01*
X150866666Y-62609523D01*
X150961904Y-62419047D01*
X150961904Y-61657142D01*
X150866666Y-61466666D01*
X150676190Y-61371428D01*
X150295238Y-61371428D01*
X150104761Y-61466666D01*
X150009523Y-61657142D01*
X150009523Y-61847619D01*
X150961904Y-62038095D01*
X148295238Y-62704761D02*
X148295238Y-61657142D01*
X148390476Y-61466666D01*
X148580952Y-61371428D01*
X148961904Y-61371428D01*
X149152380Y-61466666D01*
X148295238Y-62609523D02*
X148485714Y-62704761D01*
X148961904Y-62704761D01*
X149152380Y-62609523D01*
X149247619Y-62419047D01*
X149247619Y-62228571D01*
X149152380Y-62038095D01*
X148961904Y-61942857D01*
X148485714Y-61942857D01*
X148295238Y-61847619D01*
X147438095Y-62609523D02*
X147247619Y-62704761D01*
X146866666Y-62704761D01*
X146676190Y-62609523D01*
X146580952Y-62419047D01*
X146580952Y-62323809D01*
X146676190Y-62133333D01*
X146866666Y-62038095D01*
X147152380Y-62038095D01*
X147342857Y-61942857D01*
X147438095Y-61752380D01*
X147438095Y-61657142D01*
X147342857Y-61466666D01*
X147152380Y-61371428D01*
X146866666Y-61371428D01*
X146676190Y-61466666D01*
X146009523Y-61371428D02*
X145247619Y-61371428D01*
X145723809Y-60704761D02*
X145723809Y-62419047D01*
X145628571Y-62609523D01*
X145438095Y-62704761D01*
X145247619Y-62704761D01*
X143819047Y-62609523D02*
X144009523Y-62704761D01*
X144390476Y-62704761D01*
X144580952Y-62609523D01*
X144676190Y-62419047D01*
X144676190Y-61657142D01*
X144580952Y-61466666D01*
X144390476Y-61371428D01*
X144009523Y-61371428D01*
X143819047Y-61466666D01*
X143723809Y-61657142D01*
X143723809Y-61847619D01*
X144676190Y-62038095D01*
X142866666Y-62704761D02*
X142866666Y-61371428D01*
X142866666Y-61752380D02*
X142771428Y-61561904D01*
X142676190Y-61466666D01*
X142485714Y-61371428D01*
X142295238Y-61371428D01*
X139342857Y-62609523D02*
X139533333Y-62704761D01*
X139914285Y-62704761D01*
X140104761Y-62609523D01*
X140200000Y-62419047D01*
X140200000Y-61657142D01*
X140104761Y-61466666D01*
X139914285Y-61371428D01*
X139533333Y-61371428D01*
X139342857Y-61466666D01*
X139247619Y-61657142D01*
X139247619Y-61847619D01*
X140200000Y-62038095D01*
X137533333Y-61371428D02*
X137533333Y-62990476D01*
X137628571Y-63180952D01*
X137723809Y-63276190D01*
X137914285Y-63371428D01*
X138200000Y-63371428D01*
X138390476Y-63276190D01*
X137533333Y-62609523D02*
X137723809Y-62704761D01*
X138104761Y-62704761D01*
X138295238Y-62609523D01*
X138390476Y-62514285D01*
X138485714Y-62323809D01*
X138485714Y-61752380D01*
X138390476Y-61561904D01*
X138295238Y-61466666D01*
X138104761Y-61371428D01*
X137723809Y-61371428D01*
X137533333Y-61466666D01*
X135723809Y-61371428D02*
X135723809Y-62990476D01*
X135819047Y-63180952D01*
X135914285Y-63276190D01*
X136104761Y-63371428D01*
X136390476Y-63371428D01*
X136580952Y-63276190D01*
X135723809Y-62609523D02*
X135914285Y-62704761D01*
X136295238Y-62704761D01*
X136485714Y-62609523D01*
X136580952Y-62514285D01*
X136676190Y-62323809D01*
X136676190Y-61752380D01*
X136580952Y-61561904D01*
X136485714Y-61466666D01*
X136295238Y-61371428D01*
X135914285Y-61371428D01*
X135723809Y-61466666D01*
X134866666Y-62609523D02*
X134676190Y-62704761D01*
X134295238Y-62704761D01*
X134104761Y-62609523D01*
X134009523Y-62419047D01*
X134009523Y-62323809D01*
X134104761Y-62133333D01*
X134295238Y-62038095D01*
X134580952Y-62038095D01*
X134771428Y-61942857D01*
X134866666Y-61752380D01*
X134866666Y-61657142D01*
X134771428Y-61466666D01*
X134580952Y-61371428D01*
X134295238Y-61371428D01*
X134104761Y-61466666D01*
X131628571Y-62704761D02*
X131628571Y-60704761D01*
X130771428Y-62704761D02*
X130771428Y-61657142D01*
X130866666Y-61466666D01*
X131057142Y-61371428D01*
X131342857Y-61371428D01*
X131533333Y-61466666D01*
X131628571Y-61561904D01*
X129057142Y-62609523D02*
X129247619Y-62704761D01*
X129628571Y-62704761D01*
X129819047Y-62609523D01*
X129914285Y-62419047D01*
X129914285Y-61657142D01*
X129819047Y-61466666D01*
X129628571Y-61371428D01*
X129247619Y-61371428D01*
X129057142Y-61466666D01*
X128961904Y-61657142D01*
X128961904Y-61847619D01*
X129914285Y-62038095D01*
X128104761Y-62704761D02*
X128104761Y-61371428D01*
X128104761Y-61752380D02*
X128009523Y-61561904D01*
X127914285Y-61466666D01*
X127723809Y-61371428D01*
X127533333Y-61371428D01*
X126104761Y-62609523D02*
X126295238Y-62704761D01*
X126676190Y-62704761D01*
X126866666Y-62609523D01*
X126961904Y-62419047D01*
X126961904Y-61657142D01*
X126866666Y-61466666D01*
X126676190Y-61371428D01*
X126295238Y-61371428D01*
X126104761Y-61466666D01*
X126009523Y-61657142D01*
X126009523Y-61847619D01*
X126961904Y-62038095D01*
M02*
