M48
; DRILL file {KiCad (5.1.2)-2} date 31/07/2019 16:24:56
; FORMAT={-:-/ absolute / inch / decimal}
; #@! TF.CreationDate,2019-07-31T16:24:56+03:00
; #@! TF.GenerationSoftware,Kicad,Pcbnew,(5.1.2)-2
; #@! TF.FileFunction,Plated,1,2,PTH
FMAT,2
INCH
T1C0.0157
T2C0.0197
T3C0.0276
T4C0.0299
T5C0.0300
T6C0.0315
T7C0.0390
T8C0.0394
T9C0.0512
T10C0.0520
T11C0.0591
T12C0.1181
T13C0.1575
%
G90
G05
T1
X3.1869Y-3.0294
X3.4843Y-3.9173
X4.2283Y-2.7559
X4.2283Y-3.252
X4.8819Y-3.2283
X5.2362Y-2.1654
X5.8957Y-1.7323
X6.0081Y-2.9035
X6.2913Y-2.2047
X6.2992Y-2.7126
X6.351Y-3.4101
X6.378Y-2.1654
X6.4252Y-2.2047
X6.4272Y-1.7323
X6.5617Y-2.35
X6.5846Y-3.0512
X6.6142Y-2.1654
X6.7169Y-2.4957
X6.7323Y-2.1654
X6.7784Y-2.1654
X6.8099Y-2.3397
X6.8406Y-1.7323
X6.8406Y-2.4606
X6.8602Y-2.7441
X6.8898Y-2.4606
X6.8944Y-2.7756
X6.8996Y-2.815
X6.9221Y-2.4854
X6.9291Y-2.1732
X7.0276Y-2.9331
X7.0571Y-1.7323
X7.0669Y-2.7854
X7.0965Y-2.9331
X7.1102Y-2.3425
X7.2283Y-2.252
X7.2362Y-2.9151
X7.2642Y-2.2357
X7.2677Y-2.3327
X7.2992Y-2.2559
X7.2992Y-2.9213
X7.3031Y-3.0906
X7.3312Y-2.233
X7.341Y-2.5412
X7.3524Y-2.7461
X7.3622Y-2.3569
X7.366Y-2.5108
X7.4803Y-2.4114
X7.5Y-2.726
X7.5Y-2.8051
X7.5001Y-2.7654
X7.7323Y-2.1811
X7.7756Y-2.5394
X7.8031Y-2.9567
X7.8051Y-2.5
X7.9134Y-4.0256
X8.1102Y-1.9291
X8.1107Y-2.1816
X8.1937Y-2.1543
X8.2874Y-2.7264
X8.3287Y-1.9291
X8.3366Y-2.7264
X8.5055Y-2.9551
X8.8622Y-4.2165
X9.0315Y-3.2874
X9.0315Y-3.3425
X9.0315Y-3.4213
X9.3701Y-4.1535
X9.7244Y-2.0472
X9.7244Y-2.1929
X9.7244Y-2.3425
X9.7244Y-2.4902
X9.7244Y-2.6378
X9.937Y-3.6024
X9.937Y-3.8071
T3
X10.0138Y-3.5748
X10.0138Y-3.7441
T4
X3.0315Y-2.0165
X3.2315Y-2.0165
X3.2315Y-2.7165
T5
X1.8543Y-3.9862
X2.0Y-3.9862
X2.1457Y-3.9862
X4.0276Y-3.0236
X4.126Y-3.0236
X4.2244Y-3.0236
X4.3228Y-3.0236
X4.4213Y-3.0236
X4.5197Y-3.0236
X4.6181Y-3.0236
X4.7165Y-3.0236
T6
X2.0315Y-2.7165
X2.2315Y-2.7165
T7
X7.2441Y-3.189
X7.2441Y-3.289
X7.2441Y-3.389
X7.2441Y-3.489
X7.5441Y-3.189
X7.5441Y-3.289
X7.5441Y-3.389
X7.5441Y-3.489
T8
X5.4102Y-1.437
X5.5102Y-1.437
X5.6102Y-1.437
X7.7823Y-2.628
X7.7823Y-2.728
X7.8823Y-2.628
X7.8823Y-2.728
X7.9823Y-2.628
X7.9823Y-2.728
X2.6417Y-4.1272
X2.6417Y-4.2276
X2.6417Y-4.328
X2.6417Y-4.4283
X2.6417Y-4.5287
X3.4394Y-4.1256
X3.4394Y-4.226
X3.4394Y-4.3264
X3.4394Y-4.4268
X3.4394Y-4.5272
T9
X3.7008Y-4.5276
X3.8976Y-4.5276
X4.0945Y-4.5276
X4.2913Y-4.5276
X4.4882Y-4.5276
X4.685Y-4.5276
X4.8819Y-4.5276
X5.0787Y-4.5276
X8.622Y-4.5276
X8.8189Y-4.5276
X9.0157Y-4.5276
X9.2126Y-4.5276
X9.4094Y-4.5276
X9.6063Y-4.5276
X9.8031Y-4.5276
X10.0Y-4.5276
X1.9882Y-4.5866
X2.3819Y-4.5866
X1.4665Y-3.3268
X2.3524Y-3.3268
T10
X7.2047Y-4.5276
X7.4016Y-4.5276
X7.7165Y-4.5276
X7.9134Y-4.5276
X8.1102Y-4.5276
X8.3071Y-4.5276
X5.3937Y-4.5276
X5.5906Y-4.5276
X5.7874Y-4.5276
X5.9843Y-4.5276
X1.4665Y-4.5079
X1.6634Y-4.5079
X6.2992Y-4.5276
X6.4961Y-4.5276
X6.6929Y-4.5276
X6.8898Y-4.5276
T11
X8.6024Y-2.5394
X9.4091Y-2.5394
T12
X3.6929Y-1.4488
X3.6929Y-3.063
X5.0807Y-1.4488
X5.0807Y-3.063
T13
X1.5256Y-1.3386
X10.4429Y-3.8484
X10.3839Y-1.3386
X1.4665Y-3.8484
T2
G00X10.0965Y-3.622
M15
G01X10.0965Y-3.6969
M16
G05
T0
M30
