G04 #@! TF.GenerationSoftware,KiCad,Pcbnew,(5.1.2)-2*
G04 #@! TF.CreationDate,2019-06-28T14:40:01+03:00*
G04 #@! TF.ProjectId,Sip-4 To Standart,5369702d-3420-4546-9f20-5374616e6461,rev?*
G04 #@! TF.SameCoordinates,Original*
G04 #@! TF.FileFunction,Copper,L1,Top*
G04 #@! TF.FilePolarity,Positive*
%FSLAX46Y46*%
G04 Gerber Fmt 4.6, Leading zero omitted, Abs format (unit mm)*
G04 Created by KiCad (PCBNEW (5.1.2)-2) date 2019-06-28 14:40:01*
%MOMM*%
%LPD*%
G04 APERTURE LIST*
%ADD10C,0.300000*%
%ADD11R,1.700000X1.700000*%
%ADD12O,1.700000X1.700000*%
%ADD13R,1.000000X1.000000*%
%ADD14O,1.000000X1.000000*%
%ADD15C,1.000000*%
%ADD16C,0.254000*%
G04 APERTURE END LIST*
D10*
X46351428Y-25372142D02*
X46565714Y-25443571D01*
X46922857Y-25443571D01*
X47065714Y-25372142D01*
X47137142Y-25300714D01*
X47208571Y-25157857D01*
X47208571Y-25015000D01*
X47137142Y-24872142D01*
X47065714Y-24800714D01*
X46922857Y-24729285D01*
X46637142Y-24657857D01*
X46494285Y-24586428D01*
X46422857Y-24515000D01*
X46351428Y-24372142D01*
X46351428Y-24229285D01*
X46422857Y-24086428D01*
X46494285Y-24015000D01*
X46637142Y-23943571D01*
X46994285Y-23943571D01*
X47208571Y-24015000D01*
X47851428Y-25443571D02*
X47851428Y-23943571D01*
X48565714Y-25443571D02*
X48565714Y-23943571D01*
X49137142Y-23943571D01*
X49280000Y-24015000D01*
X49351428Y-24086428D01*
X49422857Y-24229285D01*
X49422857Y-24443571D01*
X49351428Y-24586428D01*
X49280000Y-24657857D01*
X49137142Y-24729285D01*
X48565714Y-24729285D01*
X50065714Y-24872142D02*
X51208571Y-24872142D01*
X52565714Y-24443571D02*
X52565714Y-25443571D01*
X52208571Y-23872142D02*
X51851428Y-24943571D01*
X52780000Y-24943571D01*
D11*
X41910000Y-26035000D03*
D12*
X41910000Y-28575000D03*
X41910000Y-31115000D03*
X41910000Y-33655000D03*
D13*
X50925001Y-27940000D03*
D14*
X50925001Y-29210000D03*
X50925001Y-30480000D03*
X50925001Y-31750000D03*
D15*
X43815000Y-27940000D02*
X41910000Y-26035000D01*
X50925001Y-27940000D02*
X43815000Y-27940000D01*
X42545000Y-29210000D02*
X41910000Y-28575000D01*
X50925001Y-29210000D02*
X42545000Y-29210000D01*
X42545000Y-30480000D02*
X41910000Y-31115000D01*
X50925001Y-30480000D02*
X42545000Y-30480000D01*
X43815000Y-31750000D02*
X41910000Y-33655000D01*
X50925001Y-31750000D02*
X43815000Y-31750000D01*
D16*
G36*
X45280715Y-26795000D02*
G01*
X53779286Y-26795000D01*
X53779286Y-22987000D01*
X54483000Y-22987000D01*
X54483000Y-36703000D01*
X38227000Y-36703000D01*
X38227000Y-28575000D01*
X40417815Y-28575000D01*
X40446487Y-28866111D01*
X40531401Y-29146034D01*
X40669294Y-29404014D01*
X40854866Y-29630134D01*
X41080986Y-29815706D01*
X41135791Y-29845000D01*
X41080986Y-29874294D01*
X40854866Y-30059866D01*
X40669294Y-30285986D01*
X40531401Y-30543966D01*
X40446487Y-30823889D01*
X40417815Y-31115000D01*
X40446487Y-31406111D01*
X40531401Y-31686034D01*
X40669294Y-31944014D01*
X40854866Y-32170134D01*
X41080986Y-32355706D01*
X41135791Y-32385000D01*
X41080986Y-32414294D01*
X40854866Y-32599866D01*
X40669294Y-32825986D01*
X40531401Y-33083966D01*
X40446487Y-33363889D01*
X40417815Y-33655000D01*
X40446487Y-33946111D01*
X40531401Y-34226034D01*
X40669294Y-34484014D01*
X40854866Y-34710134D01*
X41080986Y-34895706D01*
X41338966Y-35033599D01*
X41618889Y-35118513D01*
X41837050Y-35140000D01*
X41982950Y-35140000D01*
X42201111Y-35118513D01*
X42481034Y-35033599D01*
X42739014Y-34895706D01*
X42965134Y-34710134D01*
X43150706Y-34484014D01*
X43288599Y-34226034D01*
X43373513Y-33946111D01*
X43389845Y-33780286D01*
X44285132Y-32885000D01*
X50980753Y-32885000D01*
X51147500Y-32868577D01*
X51361448Y-32803676D01*
X51558624Y-32698284D01*
X51731450Y-32556449D01*
X51873285Y-32383623D01*
X51978677Y-32186447D01*
X52043578Y-31972499D01*
X52065492Y-31750000D01*
X52043578Y-31527501D01*
X51978677Y-31313553D01*
X51873285Y-31116377D01*
X51872155Y-31115000D01*
X51873285Y-31113623D01*
X51978677Y-30916447D01*
X52043578Y-30702499D01*
X52065492Y-30480000D01*
X52043578Y-30257501D01*
X51978677Y-30043553D01*
X51873285Y-29846377D01*
X51872155Y-29845000D01*
X51873285Y-29843623D01*
X51978677Y-29646447D01*
X52043578Y-29432499D01*
X52065492Y-29210000D01*
X52043578Y-28987501D01*
X51978677Y-28773553D01*
X51972704Y-28762379D01*
X52014503Y-28684180D01*
X52050813Y-28564482D01*
X52063073Y-28440000D01*
X52063073Y-27964561D01*
X52065492Y-27940000D01*
X52063073Y-27915439D01*
X52063073Y-27440000D01*
X52050813Y-27315518D01*
X52014503Y-27195820D01*
X51955538Y-27085506D01*
X51876186Y-26988815D01*
X51779495Y-26909463D01*
X51669181Y-26850498D01*
X51549483Y-26814188D01*
X51425001Y-26801928D01*
X50425001Y-26801928D01*
X50393809Y-26805000D01*
X44285132Y-26805000D01*
X43398072Y-25917941D01*
X43398072Y-25185000D01*
X43385812Y-25060518D01*
X43349502Y-24940820D01*
X43290537Y-24830506D01*
X43211185Y-24733815D01*
X43114494Y-24654463D01*
X43004180Y-24595498D01*
X42884482Y-24559188D01*
X42760000Y-24546928D01*
X41060000Y-24546928D01*
X40935518Y-24559188D01*
X40815820Y-24595498D01*
X40705506Y-24654463D01*
X40608815Y-24733815D01*
X40529463Y-24830506D01*
X40470498Y-24940820D01*
X40434188Y-25060518D01*
X40421928Y-25185000D01*
X40421928Y-26885000D01*
X40434188Y-27009482D01*
X40470498Y-27129180D01*
X40529463Y-27239494D01*
X40608815Y-27336185D01*
X40705506Y-27415537D01*
X40815820Y-27474502D01*
X40884687Y-27495393D01*
X40854866Y-27519866D01*
X40669294Y-27745986D01*
X40531401Y-28003966D01*
X40446487Y-28283889D01*
X40417815Y-28575000D01*
X38227000Y-28575000D01*
X38227000Y-22987000D01*
X45280715Y-22987000D01*
X45280715Y-26795000D01*
X45280715Y-26795000D01*
G37*
X45280715Y-26795000D02*
X53779286Y-26795000D01*
X53779286Y-22987000D01*
X54483000Y-22987000D01*
X54483000Y-36703000D01*
X38227000Y-36703000D01*
X38227000Y-28575000D01*
X40417815Y-28575000D01*
X40446487Y-28866111D01*
X40531401Y-29146034D01*
X40669294Y-29404014D01*
X40854866Y-29630134D01*
X41080986Y-29815706D01*
X41135791Y-29845000D01*
X41080986Y-29874294D01*
X40854866Y-30059866D01*
X40669294Y-30285986D01*
X40531401Y-30543966D01*
X40446487Y-30823889D01*
X40417815Y-31115000D01*
X40446487Y-31406111D01*
X40531401Y-31686034D01*
X40669294Y-31944014D01*
X40854866Y-32170134D01*
X41080986Y-32355706D01*
X41135791Y-32385000D01*
X41080986Y-32414294D01*
X40854866Y-32599866D01*
X40669294Y-32825986D01*
X40531401Y-33083966D01*
X40446487Y-33363889D01*
X40417815Y-33655000D01*
X40446487Y-33946111D01*
X40531401Y-34226034D01*
X40669294Y-34484014D01*
X40854866Y-34710134D01*
X41080986Y-34895706D01*
X41338966Y-35033599D01*
X41618889Y-35118513D01*
X41837050Y-35140000D01*
X41982950Y-35140000D01*
X42201111Y-35118513D01*
X42481034Y-35033599D01*
X42739014Y-34895706D01*
X42965134Y-34710134D01*
X43150706Y-34484014D01*
X43288599Y-34226034D01*
X43373513Y-33946111D01*
X43389845Y-33780286D01*
X44285132Y-32885000D01*
X50980753Y-32885000D01*
X51147500Y-32868577D01*
X51361448Y-32803676D01*
X51558624Y-32698284D01*
X51731450Y-32556449D01*
X51873285Y-32383623D01*
X51978677Y-32186447D01*
X52043578Y-31972499D01*
X52065492Y-31750000D01*
X52043578Y-31527501D01*
X51978677Y-31313553D01*
X51873285Y-31116377D01*
X51872155Y-31115000D01*
X51873285Y-31113623D01*
X51978677Y-30916447D01*
X52043578Y-30702499D01*
X52065492Y-30480000D01*
X52043578Y-30257501D01*
X51978677Y-30043553D01*
X51873285Y-29846377D01*
X51872155Y-29845000D01*
X51873285Y-29843623D01*
X51978677Y-29646447D01*
X52043578Y-29432499D01*
X52065492Y-29210000D01*
X52043578Y-28987501D01*
X51978677Y-28773553D01*
X51972704Y-28762379D01*
X52014503Y-28684180D01*
X52050813Y-28564482D01*
X52063073Y-28440000D01*
X52063073Y-27964561D01*
X52065492Y-27940000D01*
X52063073Y-27915439D01*
X52063073Y-27440000D01*
X52050813Y-27315518D01*
X52014503Y-27195820D01*
X51955538Y-27085506D01*
X51876186Y-26988815D01*
X51779495Y-26909463D01*
X51669181Y-26850498D01*
X51549483Y-26814188D01*
X51425001Y-26801928D01*
X50425001Y-26801928D01*
X50393809Y-26805000D01*
X44285132Y-26805000D01*
X43398072Y-25917941D01*
X43398072Y-25185000D01*
X43385812Y-25060518D01*
X43349502Y-24940820D01*
X43290537Y-24830506D01*
X43211185Y-24733815D01*
X43114494Y-24654463D01*
X43004180Y-24595498D01*
X42884482Y-24559188D01*
X42760000Y-24546928D01*
X41060000Y-24546928D01*
X40935518Y-24559188D01*
X40815820Y-24595498D01*
X40705506Y-24654463D01*
X40608815Y-24733815D01*
X40529463Y-24830506D01*
X40470498Y-24940820D01*
X40434188Y-25060518D01*
X40421928Y-25185000D01*
X40421928Y-26885000D01*
X40434188Y-27009482D01*
X40470498Y-27129180D01*
X40529463Y-27239494D01*
X40608815Y-27336185D01*
X40705506Y-27415537D01*
X40815820Y-27474502D01*
X40884687Y-27495393D01*
X40854866Y-27519866D01*
X40669294Y-27745986D01*
X40531401Y-28003966D01*
X40446487Y-28283889D01*
X40417815Y-28575000D01*
X38227000Y-28575000D01*
X38227000Y-22987000D01*
X45280715Y-22987000D01*
X45280715Y-26795000D01*
M02*
