G04 #@! TF.GenerationSoftware,KiCad,Pcbnew,(5.1.2)-2*
G04 #@! TF.CreationDate,2019-07-31T11:15:24+03:00*
G04 #@! TF.ProjectId,Sensor board,53656e73-6f72-4206-926f-6172642e6b69,rev?*
G04 #@! TF.SameCoordinates,Original*
G04 #@! TF.FileFunction,Copper,L1,Top*
G04 #@! TF.FilePolarity,Positive*
%FSLAX46Y46*%
G04 Gerber Fmt 4.6, Leading zero omitted, Abs format (unit mm)*
G04 Created by KiCad (PCBNEW (5.1.2)-2) date 2019-07-31 11:15:24*
%MOMM*%
%LPD*%
G04 APERTURE LIST*
%ADD10C,4.000000*%
%ADD11C,0.100000*%
%ADD12C,0.600000*%
%ADD13C,1.150000*%
%ADD14O,1.700000X1.700000*%
%ADD15R,1.700000X1.700000*%
%ADD16C,0.800000*%
%ADD17C,0.500000*%
%ADD18C,0.254000*%
G04 APERTURE END LIST*
D10*
X91500000Y-34500000D03*
X91500000Y-22500000D03*
D11*
G36*
X72910703Y-24719722D02*
G01*
X72925264Y-24721882D01*
X72939543Y-24725459D01*
X72953403Y-24730418D01*
X72966710Y-24736712D01*
X72979336Y-24744280D01*
X72991159Y-24753048D01*
X73002066Y-24762934D01*
X73011952Y-24773841D01*
X73020720Y-24785664D01*
X73028288Y-24798290D01*
X73034582Y-24811597D01*
X73039541Y-24825457D01*
X73043118Y-24839736D01*
X73045278Y-24854297D01*
X73046000Y-24869000D01*
X73046000Y-25169000D01*
X73045278Y-25183703D01*
X73043118Y-25198264D01*
X73039541Y-25212543D01*
X73034582Y-25226403D01*
X73028288Y-25239710D01*
X73020720Y-25252336D01*
X73011952Y-25264159D01*
X73002066Y-25275066D01*
X72991159Y-25284952D01*
X72979336Y-25293720D01*
X72966710Y-25301288D01*
X72953403Y-25307582D01*
X72939543Y-25312541D01*
X72925264Y-25316118D01*
X72910703Y-25318278D01*
X72896000Y-25319000D01*
X71246000Y-25319000D01*
X71231297Y-25318278D01*
X71216736Y-25316118D01*
X71202457Y-25312541D01*
X71188597Y-25307582D01*
X71175290Y-25301288D01*
X71162664Y-25293720D01*
X71150841Y-25284952D01*
X71139934Y-25275066D01*
X71130048Y-25264159D01*
X71121280Y-25252336D01*
X71113712Y-25239710D01*
X71107418Y-25226403D01*
X71102459Y-25212543D01*
X71098882Y-25198264D01*
X71096722Y-25183703D01*
X71096000Y-25169000D01*
X71096000Y-24869000D01*
X71096722Y-24854297D01*
X71098882Y-24839736D01*
X71102459Y-24825457D01*
X71107418Y-24811597D01*
X71113712Y-24798290D01*
X71121280Y-24785664D01*
X71130048Y-24773841D01*
X71139934Y-24762934D01*
X71150841Y-24753048D01*
X71162664Y-24744280D01*
X71175290Y-24736712D01*
X71188597Y-24730418D01*
X71202457Y-24725459D01*
X71216736Y-24721882D01*
X71231297Y-24719722D01*
X71246000Y-24719000D01*
X72896000Y-24719000D01*
X72910703Y-24719722D01*
X72910703Y-24719722D01*
G37*
D12*
X72071000Y-25019000D03*
D11*
G36*
X72910703Y-25989722D02*
G01*
X72925264Y-25991882D01*
X72939543Y-25995459D01*
X72953403Y-26000418D01*
X72966710Y-26006712D01*
X72979336Y-26014280D01*
X72991159Y-26023048D01*
X73002066Y-26032934D01*
X73011952Y-26043841D01*
X73020720Y-26055664D01*
X73028288Y-26068290D01*
X73034582Y-26081597D01*
X73039541Y-26095457D01*
X73043118Y-26109736D01*
X73045278Y-26124297D01*
X73046000Y-26139000D01*
X73046000Y-26439000D01*
X73045278Y-26453703D01*
X73043118Y-26468264D01*
X73039541Y-26482543D01*
X73034582Y-26496403D01*
X73028288Y-26509710D01*
X73020720Y-26522336D01*
X73011952Y-26534159D01*
X73002066Y-26545066D01*
X72991159Y-26554952D01*
X72979336Y-26563720D01*
X72966710Y-26571288D01*
X72953403Y-26577582D01*
X72939543Y-26582541D01*
X72925264Y-26586118D01*
X72910703Y-26588278D01*
X72896000Y-26589000D01*
X71246000Y-26589000D01*
X71231297Y-26588278D01*
X71216736Y-26586118D01*
X71202457Y-26582541D01*
X71188597Y-26577582D01*
X71175290Y-26571288D01*
X71162664Y-26563720D01*
X71150841Y-26554952D01*
X71139934Y-26545066D01*
X71130048Y-26534159D01*
X71121280Y-26522336D01*
X71113712Y-26509710D01*
X71107418Y-26496403D01*
X71102459Y-26482543D01*
X71098882Y-26468264D01*
X71096722Y-26453703D01*
X71096000Y-26439000D01*
X71096000Y-26139000D01*
X71096722Y-26124297D01*
X71098882Y-26109736D01*
X71102459Y-26095457D01*
X71107418Y-26081597D01*
X71113712Y-26068290D01*
X71121280Y-26055664D01*
X71130048Y-26043841D01*
X71139934Y-26032934D01*
X71150841Y-26023048D01*
X71162664Y-26014280D01*
X71175290Y-26006712D01*
X71188597Y-26000418D01*
X71202457Y-25995459D01*
X71216736Y-25991882D01*
X71231297Y-25989722D01*
X71246000Y-25989000D01*
X72896000Y-25989000D01*
X72910703Y-25989722D01*
X72910703Y-25989722D01*
G37*
D12*
X72071000Y-26289000D03*
D11*
G36*
X72910703Y-27259722D02*
G01*
X72925264Y-27261882D01*
X72939543Y-27265459D01*
X72953403Y-27270418D01*
X72966710Y-27276712D01*
X72979336Y-27284280D01*
X72991159Y-27293048D01*
X73002066Y-27302934D01*
X73011952Y-27313841D01*
X73020720Y-27325664D01*
X73028288Y-27338290D01*
X73034582Y-27351597D01*
X73039541Y-27365457D01*
X73043118Y-27379736D01*
X73045278Y-27394297D01*
X73046000Y-27409000D01*
X73046000Y-27709000D01*
X73045278Y-27723703D01*
X73043118Y-27738264D01*
X73039541Y-27752543D01*
X73034582Y-27766403D01*
X73028288Y-27779710D01*
X73020720Y-27792336D01*
X73011952Y-27804159D01*
X73002066Y-27815066D01*
X72991159Y-27824952D01*
X72979336Y-27833720D01*
X72966710Y-27841288D01*
X72953403Y-27847582D01*
X72939543Y-27852541D01*
X72925264Y-27856118D01*
X72910703Y-27858278D01*
X72896000Y-27859000D01*
X71246000Y-27859000D01*
X71231297Y-27858278D01*
X71216736Y-27856118D01*
X71202457Y-27852541D01*
X71188597Y-27847582D01*
X71175290Y-27841288D01*
X71162664Y-27833720D01*
X71150841Y-27824952D01*
X71139934Y-27815066D01*
X71130048Y-27804159D01*
X71121280Y-27792336D01*
X71113712Y-27779710D01*
X71107418Y-27766403D01*
X71102459Y-27752543D01*
X71098882Y-27738264D01*
X71096722Y-27723703D01*
X71096000Y-27709000D01*
X71096000Y-27409000D01*
X71096722Y-27394297D01*
X71098882Y-27379736D01*
X71102459Y-27365457D01*
X71107418Y-27351597D01*
X71113712Y-27338290D01*
X71121280Y-27325664D01*
X71130048Y-27313841D01*
X71139934Y-27302934D01*
X71150841Y-27293048D01*
X71162664Y-27284280D01*
X71175290Y-27276712D01*
X71188597Y-27270418D01*
X71202457Y-27265459D01*
X71216736Y-27261882D01*
X71231297Y-27259722D01*
X71246000Y-27259000D01*
X72896000Y-27259000D01*
X72910703Y-27259722D01*
X72910703Y-27259722D01*
G37*
D12*
X72071000Y-27559000D03*
D11*
G36*
X72910703Y-28529722D02*
G01*
X72925264Y-28531882D01*
X72939543Y-28535459D01*
X72953403Y-28540418D01*
X72966710Y-28546712D01*
X72979336Y-28554280D01*
X72991159Y-28563048D01*
X73002066Y-28572934D01*
X73011952Y-28583841D01*
X73020720Y-28595664D01*
X73028288Y-28608290D01*
X73034582Y-28621597D01*
X73039541Y-28635457D01*
X73043118Y-28649736D01*
X73045278Y-28664297D01*
X73046000Y-28679000D01*
X73046000Y-28979000D01*
X73045278Y-28993703D01*
X73043118Y-29008264D01*
X73039541Y-29022543D01*
X73034582Y-29036403D01*
X73028288Y-29049710D01*
X73020720Y-29062336D01*
X73011952Y-29074159D01*
X73002066Y-29085066D01*
X72991159Y-29094952D01*
X72979336Y-29103720D01*
X72966710Y-29111288D01*
X72953403Y-29117582D01*
X72939543Y-29122541D01*
X72925264Y-29126118D01*
X72910703Y-29128278D01*
X72896000Y-29129000D01*
X71246000Y-29129000D01*
X71231297Y-29128278D01*
X71216736Y-29126118D01*
X71202457Y-29122541D01*
X71188597Y-29117582D01*
X71175290Y-29111288D01*
X71162664Y-29103720D01*
X71150841Y-29094952D01*
X71139934Y-29085066D01*
X71130048Y-29074159D01*
X71121280Y-29062336D01*
X71113712Y-29049710D01*
X71107418Y-29036403D01*
X71102459Y-29022543D01*
X71098882Y-29008264D01*
X71096722Y-28993703D01*
X71096000Y-28979000D01*
X71096000Y-28679000D01*
X71096722Y-28664297D01*
X71098882Y-28649736D01*
X71102459Y-28635457D01*
X71107418Y-28621597D01*
X71113712Y-28608290D01*
X71121280Y-28595664D01*
X71130048Y-28583841D01*
X71139934Y-28572934D01*
X71150841Y-28563048D01*
X71162664Y-28554280D01*
X71175290Y-28546712D01*
X71188597Y-28540418D01*
X71202457Y-28535459D01*
X71216736Y-28531882D01*
X71231297Y-28529722D01*
X71246000Y-28529000D01*
X72896000Y-28529000D01*
X72910703Y-28529722D01*
X72910703Y-28529722D01*
G37*
D12*
X72071000Y-28829000D03*
D11*
G36*
X67960703Y-28529722D02*
G01*
X67975264Y-28531882D01*
X67989543Y-28535459D01*
X68003403Y-28540418D01*
X68016710Y-28546712D01*
X68029336Y-28554280D01*
X68041159Y-28563048D01*
X68052066Y-28572934D01*
X68061952Y-28583841D01*
X68070720Y-28595664D01*
X68078288Y-28608290D01*
X68084582Y-28621597D01*
X68089541Y-28635457D01*
X68093118Y-28649736D01*
X68095278Y-28664297D01*
X68096000Y-28679000D01*
X68096000Y-28979000D01*
X68095278Y-28993703D01*
X68093118Y-29008264D01*
X68089541Y-29022543D01*
X68084582Y-29036403D01*
X68078288Y-29049710D01*
X68070720Y-29062336D01*
X68061952Y-29074159D01*
X68052066Y-29085066D01*
X68041159Y-29094952D01*
X68029336Y-29103720D01*
X68016710Y-29111288D01*
X68003403Y-29117582D01*
X67989543Y-29122541D01*
X67975264Y-29126118D01*
X67960703Y-29128278D01*
X67946000Y-29129000D01*
X66296000Y-29129000D01*
X66281297Y-29128278D01*
X66266736Y-29126118D01*
X66252457Y-29122541D01*
X66238597Y-29117582D01*
X66225290Y-29111288D01*
X66212664Y-29103720D01*
X66200841Y-29094952D01*
X66189934Y-29085066D01*
X66180048Y-29074159D01*
X66171280Y-29062336D01*
X66163712Y-29049710D01*
X66157418Y-29036403D01*
X66152459Y-29022543D01*
X66148882Y-29008264D01*
X66146722Y-28993703D01*
X66146000Y-28979000D01*
X66146000Y-28679000D01*
X66146722Y-28664297D01*
X66148882Y-28649736D01*
X66152459Y-28635457D01*
X66157418Y-28621597D01*
X66163712Y-28608290D01*
X66171280Y-28595664D01*
X66180048Y-28583841D01*
X66189934Y-28572934D01*
X66200841Y-28563048D01*
X66212664Y-28554280D01*
X66225290Y-28546712D01*
X66238597Y-28540418D01*
X66252457Y-28535459D01*
X66266736Y-28531882D01*
X66281297Y-28529722D01*
X66296000Y-28529000D01*
X67946000Y-28529000D01*
X67960703Y-28529722D01*
X67960703Y-28529722D01*
G37*
D12*
X67121000Y-28829000D03*
D11*
G36*
X67960703Y-27259722D02*
G01*
X67975264Y-27261882D01*
X67989543Y-27265459D01*
X68003403Y-27270418D01*
X68016710Y-27276712D01*
X68029336Y-27284280D01*
X68041159Y-27293048D01*
X68052066Y-27302934D01*
X68061952Y-27313841D01*
X68070720Y-27325664D01*
X68078288Y-27338290D01*
X68084582Y-27351597D01*
X68089541Y-27365457D01*
X68093118Y-27379736D01*
X68095278Y-27394297D01*
X68096000Y-27409000D01*
X68096000Y-27709000D01*
X68095278Y-27723703D01*
X68093118Y-27738264D01*
X68089541Y-27752543D01*
X68084582Y-27766403D01*
X68078288Y-27779710D01*
X68070720Y-27792336D01*
X68061952Y-27804159D01*
X68052066Y-27815066D01*
X68041159Y-27824952D01*
X68029336Y-27833720D01*
X68016710Y-27841288D01*
X68003403Y-27847582D01*
X67989543Y-27852541D01*
X67975264Y-27856118D01*
X67960703Y-27858278D01*
X67946000Y-27859000D01*
X66296000Y-27859000D01*
X66281297Y-27858278D01*
X66266736Y-27856118D01*
X66252457Y-27852541D01*
X66238597Y-27847582D01*
X66225290Y-27841288D01*
X66212664Y-27833720D01*
X66200841Y-27824952D01*
X66189934Y-27815066D01*
X66180048Y-27804159D01*
X66171280Y-27792336D01*
X66163712Y-27779710D01*
X66157418Y-27766403D01*
X66152459Y-27752543D01*
X66148882Y-27738264D01*
X66146722Y-27723703D01*
X66146000Y-27709000D01*
X66146000Y-27409000D01*
X66146722Y-27394297D01*
X66148882Y-27379736D01*
X66152459Y-27365457D01*
X66157418Y-27351597D01*
X66163712Y-27338290D01*
X66171280Y-27325664D01*
X66180048Y-27313841D01*
X66189934Y-27302934D01*
X66200841Y-27293048D01*
X66212664Y-27284280D01*
X66225290Y-27276712D01*
X66238597Y-27270418D01*
X66252457Y-27265459D01*
X66266736Y-27261882D01*
X66281297Y-27259722D01*
X66296000Y-27259000D01*
X67946000Y-27259000D01*
X67960703Y-27259722D01*
X67960703Y-27259722D01*
G37*
D12*
X67121000Y-27559000D03*
D11*
G36*
X67960703Y-25989722D02*
G01*
X67975264Y-25991882D01*
X67989543Y-25995459D01*
X68003403Y-26000418D01*
X68016710Y-26006712D01*
X68029336Y-26014280D01*
X68041159Y-26023048D01*
X68052066Y-26032934D01*
X68061952Y-26043841D01*
X68070720Y-26055664D01*
X68078288Y-26068290D01*
X68084582Y-26081597D01*
X68089541Y-26095457D01*
X68093118Y-26109736D01*
X68095278Y-26124297D01*
X68096000Y-26139000D01*
X68096000Y-26439000D01*
X68095278Y-26453703D01*
X68093118Y-26468264D01*
X68089541Y-26482543D01*
X68084582Y-26496403D01*
X68078288Y-26509710D01*
X68070720Y-26522336D01*
X68061952Y-26534159D01*
X68052066Y-26545066D01*
X68041159Y-26554952D01*
X68029336Y-26563720D01*
X68016710Y-26571288D01*
X68003403Y-26577582D01*
X67989543Y-26582541D01*
X67975264Y-26586118D01*
X67960703Y-26588278D01*
X67946000Y-26589000D01*
X66296000Y-26589000D01*
X66281297Y-26588278D01*
X66266736Y-26586118D01*
X66252457Y-26582541D01*
X66238597Y-26577582D01*
X66225290Y-26571288D01*
X66212664Y-26563720D01*
X66200841Y-26554952D01*
X66189934Y-26545066D01*
X66180048Y-26534159D01*
X66171280Y-26522336D01*
X66163712Y-26509710D01*
X66157418Y-26496403D01*
X66152459Y-26482543D01*
X66148882Y-26468264D01*
X66146722Y-26453703D01*
X66146000Y-26439000D01*
X66146000Y-26139000D01*
X66146722Y-26124297D01*
X66148882Y-26109736D01*
X66152459Y-26095457D01*
X66157418Y-26081597D01*
X66163712Y-26068290D01*
X66171280Y-26055664D01*
X66180048Y-26043841D01*
X66189934Y-26032934D01*
X66200841Y-26023048D01*
X66212664Y-26014280D01*
X66225290Y-26006712D01*
X66238597Y-26000418D01*
X66252457Y-25995459D01*
X66266736Y-25991882D01*
X66281297Y-25989722D01*
X66296000Y-25989000D01*
X67946000Y-25989000D01*
X67960703Y-25989722D01*
X67960703Y-25989722D01*
G37*
D12*
X67121000Y-26289000D03*
D11*
G36*
X67960703Y-24719722D02*
G01*
X67975264Y-24721882D01*
X67989543Y-24725459D01*
X68003403Y-24730418D01*
X68016710Y-24736712D01*
X68029336Y-24744280D01*
X68041159Y-24753048D01*
X68052066Y-24762934D01*
X68061952Y-24773841D01*
X68070720Y-24785664D01*
X68078288Y-24798290D01*
X68084582Y-24811597D01*
X68089541Y-24825457D01*
X68093118Y-24839736D01*
X68095278Y-24854297D01*
X68096000Y-24869000D01*
X68096000Y-25169000D01*
X68095278Y-25183703D01*
X68093118Y-25198264D01*
X68089541Y-25212543D01*
X68084582Y-25226403D01*
X68078288Y-25239710D01*
X68070720Y-25252336D01*
X68061952Y-25264159D01*
X68052066Y-25275066D01*
X68041159Y-25284952D01*
X68029336Y-25293720D01*
X68016710Y-25301288D01*
X68003403Y-25307582D01*
X67989543Y-25312541D01*
X67975264Y-25316118D01*
X67960703Y-25318278D01*
X67946000Y-25319000D01*
X66296000Y-25319000D01*
X66281297Y-25318278D01*
X66266736Y-25316118D01*
X66252457Y-25312541D01*
X66238597Y-25307582D01*
X66225290Y-25301288D01*
X66212664Y-25293720D01*
X66200841Y-25284952D01*
X66189934Y-25275066D01*
X66180048Y-25264159D01*
X66171280Y-25252336D01*
X66163712Y-25239710D01*
X66157418Y-25226403D01*
X66152459Y-25212543D01*
X66148882Y-25198264D01*
X66146722Y-25183703D01*
X66146000Y-25169000D01*
X66146000Y-24869000D01*
X66146722Y-24854297D01*
X66148882Y-24839736D01*
X66152459Y-24825457D01*
X66157418Y-24811597D01*
X66163712Y-24798290D01*
X66171280Y-24785664D01*
X66180048Y-24773841D01*
X66189934Y-24762934D01*
X66200841Y-24753048D01*
X66212664Y-24744280D01*
X66225290Y-24736712D01*
X66238597Y-24730418D01*
X66252457Y-24725459D01*
X66266736Y-24721882D01*
X66281297Y-24719722D01*
X66296000Y-24719000D01*
X67946000Y-24719000D01*
X67960703Y-24719722D01*
X67960703Y-24719722D01*
G37*
D12*
X67121000Y-25019000D03*
D10*
X103250000Y-21000000D03*
X103250000Y-36000000D03*
X47250000Y-35250000D03*
X47250000Y-21750000D03*
D11*
G36*
X58386505Y-20254204D02*
G01*
X58410773Y-20257804D01*
X58434572Y-20263765D01*
X58457671Y-20272030D01*
X58479850Y-20282520D01*
X58500893Y-20295132D01*
X58520599Y-20309747D01*
X58538777Y-20326223D01*
X58555253Y-20344401D01*
X58569868Y-20364107D01*
X58582480Y-20385150D01*
X58592970Y-20407329D01*
X58601235Y-20430428D01*
X58607196Y-20454227D01*
X58610796Y-20478495D01*
X58612000Y-20502999D01*
X58612000Y-21153001D01*
X58610796Y-21177505D01*
X58607196Y-21201773D01*
X58601235Y-21225572D01*
X58592970Y-21248671D01*
X58582480Y-21270850D01*
X58569868Y-21291893D01*
X58555253Y-21311599D01*
X58538777Y-21329777D01*
X58520599Y-21346253D01*
X58500893Y-21360868D01*
X58479850Y-21373480D01*
X58457671Y-21383970D01*
X58434572Y-21392235D01*
X58410773Y-21398196D01*
X58386505Y-21401796D01*
X58362001Y-21403000D01*
X57461999Y-21403000D01*
X57437495Y-21401796D01*
X57413227Y-21398196D01*
X57389428Y-21392235D01*
X57366329Y-21383970D01*
X57344150Y-21373480D01*
X57323107Y-21360868D01*
X57303401Y-21346253D01*
X57285223Y-21329777D01*
X57268747Y-21311599D01*
X57254132Y-21291893D01*
X57241520Y-21270850D01*
X57231030Y-21248671D01*
X57222765Y-21225572D01*
X57216804Y-21201773D01*
X57213204Y-21177505D01*
X57212000Y-21153001D01*
X57212000Y-20502999D01*
X57213204Y-20478495D01*
X57216804Y-20454227D01*
X57222765Y-20430428D01*
X57231030Y-20407329D01*
X57241520Y-20385150D01*
X57254132Y-20364107D01*
X57268747Y-20344401D01*
X57285223Y-20326223D01*
X57303401Y-20309747D01*
X57323107Y-20295132D01*
X57344150Y-20282520D01*
X57366329Y-20272030D01*
X57389428Y-20263765D01*
X57413227Y-20257804D01*
X57437495Y-20254204D01*
X57461999Y-20253000D01*
X58362001Y-20253000D01*
X58386505Y-20254204D01*
X58386505Y-20254204D01*
G37*
D13*
X57912000Y-20828000D03*
D11*
G36*
X58386505Y-22304204D02*
G01*
X58410773Y-22307804D01*
X58434572Y-22313765D01*
X58457671Y-22322030D01*
X58479850Y-22332520D01*
X58500893Y-22345132D01*
X58520599Y-22359747D01*
X58538777Y-22376223D01*
X58555253Y-22394401D01*
X58569868Y-22414107D01*
X58582480Y-22435150D01*
X58592970Y-22457329D01*
X58601235Y-22480428D01*
X58607196Y-22504227D01*
X58610796Y-22528495D01*
X58612000Y-22552999D01*
X58612000Y-23203001D01*
X58610796Y-23227505D01*
X58607196Y-23251773D01*
X58601235Y-23275572D01*
X58592970Y-23298671D01*
X58582480Y-23320850D01*
X58569868Y-23341893D01*
X58555253Y-23361599D01*
X58538777Y-23379777D01*
X58520599Y-23396253D01*
X58500893Y-23410868D01*
X58479850Y-23423480D01*
X58457671Y-23433970D01*
X58434572Y-23442235D01*
X58410773Y-23448196D01*
X58386505Y-23451796D01*
X58362001Y-23453000D01*
X57461999Y-23453000D01*
X57437495Y-23451796D01*
X57413227Y-23448196D01*
X57389428Y-23442235D01*
X57366329Y-23433970D01*
X57344150Y-23423480D01*
X57323107Y-23410868D01*
X57303401Y-23396253D01*
X57285223Y-23379777D01*
X57268747Y-23361599D01*
X57254132Y-23341893D01*
X57241520Y-23320850D01*
X57231030Y-23298671D01*
X57222765Y-23275572D01*
X57216804Y-23251773D01*
X57213204Y-23227505D01*
X57212000Y-23203001D01*
X57212000Y-22552999D01*
X57213204Y-22528495D01*
X57216804Y-22504227D01*
X57222765Y-22480428D01*
X57231030Y-22457329D01*
X57241520Y-22435150D01*
X57254132Y-22414107D01*
X57268747Y-22394401D01*
X57285223Y-22376223D01*
X57303401Y-22359747D01*
X57323107Y-22345132D01*
X57344150Y-22332520D01*
X57366329Y-22322030D01*
X57389428Y-22313765D01*
X57413227Y-22307804D01*
X57437495Y-22304204D01*
X57461999Y-22303000D01*
X58362001Y-22303000D01*
X58386505Y-22304204D01*
X58386505Y-22304204D01*
G37*
D13*
X57912000Y-22878000D03*
D14*
X77470000Y-36115001D03*
X77470000Y-33575001D03*
X77470000Y-31035001D03*
X77470000Y-28495001D03*
X77470000Y-25955001D03*
X77470000Y-23415001D03*
D15*
X77470000Y-20875001D03*
D14*
X53340000Y-36068000D03*
X53340000Y-33528000D03*
X53340000Y-30988000D03*
X53340000Y-28448000D03*
X53340000Y-25908000D03*
X53340000Y-23368000D03*
D15*
X53340000Y-20828000D03*
D11*
G36*
X64990505Y-23801204D02*
G01*
X65014773Y-23804804D01*
X65038572Y-23810765D01*
X65061671Y-23819030D01*
X65083850Y-23829520D01*
X65104893Y-23842132D01*
X65124599Y-23856747D01*
X65142777Y-23873223D01*
X65159253Y-23891401D01*
X65173868Y-23911107D01*
X65186480Y-23932150D01*
X65196970Y-23954329D01*
X65205235Y-23977428D01*
X65211196Y-24001227D01*
X65214796Y-24025495D01*
X65216000Y-24049999D01*
X65216000Y-24700001D01*
X65214796Y-24724505D01*
X65211196Y-24748773D01*
X65205235Y-24772572D01*
X65196970Y-24795671D01*
X65186480Y-24817850D01*
X65173868Y-24838893D01*
X65159253Y-24858599D01*
X65142777Y-24876777D01*
X65124599Y-24893253D01*
X65104893Y-24907868D01*
X65083850Y-24920480D01*
X65061671Y-24930970D01*
X65038572Y-24939235D01*
X65014773Y-24945196D01*
X64990505Y-24948796D01*
X64966001Y-24950000D01*
X64065999Y-24950000D01*
X64041495Y-24948796D01*
X64017227Y-24945196D01*
X63993428Y-24939235D01*
X63970329Y-24930970D01*
X63948150Y-24920480D01*
X63927107Y-24907868D01*
X63907401Y-24893253D01*
X63889223Y-24876777D01*
X63872747Y-24858599D01*
X63858132Y-24838893D01*
X63845520Y-24817850D01*
X63835030Y-24795671D01*
X63826765Y-24772572D01*
X63820804Y-24748773D01*
X63817204Y-24724505D01*
X63816000Y-24700001D01*
X63816000Y-24049999D01*
X63817204Y-24025495D01*
X63820804Y-24001227D01*
X63826765Y-23977428D01*
X63835030Y-23954329D01*
X63845520Y-23932150D01*
X63858132Y-23911107D01*
X63872747Y-23891401D01*
X63889223Y-23873223D01*
X63907401Y-23856747D01*
X63927107Y-23842132D01*
X63948150Y-23829520D01*
X63970329Y-23819030D01*
X63993428Y-23810765D01*
X64017227Y-23804804D01*
X64041495Y-23801204D01*
X64065999Y-23800000D01*
X64966001Y-23800000D01*
X64990505Y-23801204D01*
X64990505Y-23801204D01*
G37*
D13*
X64516000Y-24375000D03*
D11*
G36*
X64990505Y-25851204D02*
G01*
X65014773Y-25854804D01*
X65038572Y-25860765D01*
X65061671Y-25869030D01*
X65083850Y-25879520D01*
X65104893Y-25892132D01*
X65124599Y-25906747D01*
X65142777Y-25923223D01*
X65159253Y-25941401D01*
X65173868Y-25961107D01*
X65186480Y-25982150D01*
X65196970Y-26004329D01*
X65205235Y-26027428D01*
X65211196Y-26051227D01*
X65214796Y-26075495D01*
X65216000Y-26099999D01*
X65216000Y-26750001D01*
X65214796Y-26774505D01*
X65211196Y-26798773D01*
X65205235Y-26822572D01*
X65196970Y-26845671D01*
X65186480Y-26867850D01*
X65173868Y-26888893D01*
X65159253Y-26908599D01*
X65142777Y-26926777D01*
X65124599Y-26943253D01*
X65104893Y-26957868D01*
X65083850Y-26970480D01*
X65061671Y-26980970D01*
X65038572Y-26989235D01*
X65014773Y-26995196D01*
X64990505Y-26998796D01*
X64966001Y-27000000D01*
X64065999Y-27000000D01*
X64041495Y-26998796D01*
X64017227Y-26995196D01*
X63993428Y-26989235D01*
X63970329Y-26980970D01*
X63948150Y-26970480D01*
X63927107Y-26957868D01*
X63907401Y-26943253D01*
X63889223Y-26926777D01*
X63872747Y-26908599D01*
X63858132Y-26888893D01*
X63845520Y-26867850D01*
X63835030Y-26845671D01*
X63826765Y-26822572D01*
X63820804Y-26798773D01*
X63817204Y-26774505D01*
X63816000Y-26750001D01*
X63816000Y-26099999D01*
X63817204Y-26075495D01*
X63820804Y-26051227D01*
X63826765Y-26027428D01*
X63835030Y-26004329D01*
X63845520Y-25982150D01*
X63858132Y-25961107D01*
X63872747Y-25941401D01*
X63889223Y-25923223D01*
X63907401Y-25906747D01*
X63927107Y-25892132D01*
X63948150Y-25879520D01*
X63970329Y-25869030D01*
X63993428Y-25860765D01*
X64017227Y-25854804D01*
X64041495Y-25851204D01*
X64065999Y-25850000D01*
X64966001Y-25850000D01*
X64990505Y-25851204D01*
X64990505Y-25851204D01*
G37*
D13*
X64516000Y-26425000D03*
D11*
G36*
X61942505Y-23801204D02*
G01*
X61966773Y-23804804D01*
X61990572Y-23810765D01*
X62013671Y-23819030D01*
X62035850Y-23829520D01*
X62056893Y-23842132D01*
X62076599Y-23856747D01*
X62094777Y-23873223D01*
X62111253Y-23891401D01*
X62125868Y-23911107D01*
X62138480Y-23932150D01*
X62148970Y-23954329D01*
X62157235Y-23977428D01*
X62163196Y-24001227D01*
X62166796Y-24025495D01*
X62168000Y-24049999D01*
X62168000Y-24700001D01*
X62166796Y-24724505D01*
X62163196Y-24748773D01*
X62157235Y-24772572D01*
X62148970Y-24795671D01*
X62138480Y-24817850D01*
X62125868Y-24838893D01*
X62111253Y-24858599D01*
X62094777Y-24876777D01*
X62076599Y-24893253D01*
X62056893Y-24907868D01*
X62035850Y-24920480D01*
X62013671Y-24930970D01*
X61990572Y-24939235D01*
X61966773Y-24945196D01*
X61942505Y-24948796D01*
X61918001Y-24950000D01*
X61017999Y-24950000D01*
X60993495Y-24948796D01*
X60969227Y-24945196D01*
X60945428Y-24939235D01*
X60922329Y-24930970D01*
X60900150Y-24920480D01*
X60879107Y-24907868D01*
X60859401Y-24893253D01*
X60841223Y-24876777D01*
X60824747Y-24858599D01*
X60810132Y-24838893D01*
X60797520Y-24817850D01*
X60787030Y-24795671D01*
X60778765Y-24772572D01*
X60772804Y-24748773D01*
X60769204Y-24724505D01*
X60768000Y-24700001D01*
X60768000Y-24049999D01*
X60769204Y-24025495D01*
X60772804Y-24001227D01*
X60778765Y-23977428D01*
X60787030Y-23954329D01*
X60797520Y-23932150D01*
X60810132Y-23911107D01*
X60824747Y-23891401D01*
X60841223Y-23873223D01*
X60859401Y-23856747D01*
X60879107Y-23842132D01*
X60900150Y-23829520D01*
X60922329Y-23819030D01*
X60945428Y-23810765D01*
X60969227Y-23804804D01*
X60993495Y-23801204D01*
X61017999Y-23800000D01*
X61918001Y-23800000D01*
X61942505Y-23801204D01*
X61942505Y-23801204D01*
G37*
D13*
X61468000Y-24375000D03*
D11*
G36*
X61942505Y-25851204D02*
G01*
X61966773Y-25854804D01*
X61990572Y-25860765D01*
X62013671Y-25869030D01*
X62035850Y-25879520D01*
X62056893Y-25892132D01*
X62076599Y-25906747D01*
X62094777Y-25923223D01*
X62111253Y-25941401D01*
X62125868Y-25961107D01*
X62138480Y-25982150D01*
X62148970Y-26004329D01*
X62157235Y-26027428D01*
X62163196Y-26051227D01*
X62166796Y-26075495D01*
X62168000Y-26099999D01*
X62168000Y-26750001D01*
X62166796Y-26774505D01*
X62163196Y-26798773D01*
X62157235Y-26822572D01*
X62148970Y-26845671D01*
X62138480Y-26867850D01*
X62125868Y-26888893D01*
X62111253Y-26908599D01*
X62094777Y-26926777D01*
X62076599Y-26943253D01*
X62056893Y-26957868D01*
X62035850Y-26970480D01*
X62013671Y-26980970D01*
X61990572Y-26989235D01*
X61966773Y-26995196D01*
X61942505Y-26998796D01*
X61918001Y-27000000D01*
X61017999Y-27000000D01*
X60993495Y-26998796D01*
X60969227Y-26995196D01*
X60945428Y-26989235D01*
X60922329Y-26980970D01*
X60900150Y-26970480D01*
X60879107Y-26957868D01*
X60859401Y-26943253D01*
X60841223Y-26926777D01*
X60824747Y-26908599D01*
X60810132Y-26888893D01*
X60797520Y-26867850D01*
X60787030Y-26845671D01*
X60778765Y-26822572D01*
X60772804Y-26798773D01*
X60769204Y-26774505D01*
X60768000Y-26750001D01*
X60768000Y-26099999D01*
X60769204Y-26075495D01*
X60772804Y-26051227D01*
X60778765Y-26027428D01*
X60787030Y-26004329D01*
X60797520Y-25982150D01*
X60810132Y-25961107D01*
X60824747Y-25941401D01*
X60841223Y-25923223D01*
X60859401Y-25906747D01*
X60879107Y-25892132D01*
X60900150Y-25879520D01*
X60922329Y-25869030D01*
X60945428Y-25860765D01*
X60969227Y-25854804D01*
X60993495Y-25851204D01*
X61017999Y-25850000D01*
X61918001Y-25850000D01*
X61942505Y-25851204D01*
X61942505Y-25851204D01*
G37*
D13*
X61468000Y-26425000D03*
D16*
X63000000Y-27500000D03*
D17*
X74186000Y-22904000D02*
X74186000Y-22878000D01*
X72071000Y-25019000D02*
X74186000Y-22904000D01*
X59971000Y-22878000D02*
X59418000Y-22878000D01*
X61468000Y-24375000D02*
X59971000Y-22878000D01*
X57912000Y-22878000D02*
X59418000Y-22878000D01*
X59418000Y-22878000D02*
X74186000Y-22878000D01*
X75756918Y-22904000D02*
X74186000Y-22904000D01*
X76267919Y-23415001D02*
X75756918Y-22904000D01*
X77470000Y-23415001D02*
X76267919Y-23415001D01*
X53830000Y-22878000D02*
X53340000Y-23368000D01*
X57912000Y-22878000D02*
X53830000Y-22878000D01*
X64652000Y-26289000D02*
X64516000Y-26425000D01*
X67121000Y-26289000D02*
X64652000Y-26289000D01*
X64516000Y-26425000D02*
X61468000Y-26425000D01*
X66477000Y-24375000D02*
X67121000Y-25019000D01*
X64516000Y-24375000D02*
X66477000Y-24375000D01*
X77422999Y-36068000D02*
X77470000Y-36115001D01*
X53340000Y-36068000D02*
X77422999Y-36068000D01*
X77422999Y-33528000D02*
X77470000Y-33575001D01*
X53340000Y-33528000D02*
X77422999Y-33528000D01*
X72071000Y-28829000D02*
X74168000Y-30926000D01*
X77422999Y-30988000D02*
X77470000Y-31035001D01*
X53340000Y-30988000D02*
X77422999Y-30988000D01*
X53721000Y-28829000D02*
X53340000Y-28448000D01*
X67121000Y-28829000D02*
X53721000Y-28829000D01*
X53340000Y-20828000D02*
X57912000Y-20828000D01*
X67121000Y-27559000D02*
X63059000Y-27559000D01*
X63059000Y-27559000D02*
X63000000Y-27500000D01*
D18*
G36*
X101203262Y-19320285D02*
G01*
X100914893Y-19751859D01*
X100716261Y-20231399D01*
X100615000Y-20740475D01*
X100615000Y-21259525D01*
X100716261Y-21768601D01*
X100914893Y-22248141D01*
X101203262Y-22679715D01*
X101570285Y-23046738D01*
X102001859Y-23335107D01*
X102481399Y-23533739D01*
X102990475Y-23635000D01*
X103509525Y-23635000D01*
X104018601Y-23533739D01*
X104498141Y-23335107D01*
X104929715Y-23046738D01*
X105296738Y-22679715D01*
X105585107Y-22248141D01*
X105783739Y-21768601D01*
X105885000Y-21259525D01*
X105885000Y-20740475D01*
X105783739Y-20231399D01*
X105585107Y-19751859D01*
X105296738Y-19320285D01*
X105136453Y-19160000D01*
X106090000Y-19160000D01*
X106090001Y-37840000D01*
X105136453Y-37840000D01*
X105296738Y-37679715D01*
X105585107Y-37248141D01*
X105783739Y-36768601D01*
X105885000Y-36259525D01*
X105885000Y-35740475D01*
X105783739Y-35231399D01*
X105585107Y-34751859D01*
X105296738Y-34320285D01*
X104929715Y-33953262D01*
X104498141Y-33664893D01*
X104018601Y-33466261D01*
X103509525Y-33365000D01*
X102990475Y-33365000D01*
X102481399Y-33466261D01*
X102001859Y-33664893D01*
X101570285Y-33953262D01*
X101203262Y-34320285D01*
X100914893Y-34751859D01*
X100716261Y-35231399D01*
X100615000Y-35740475D01*
X100615000Y-36259525D01*
X100716261Y-36768601D01*
X100914893Y-37248141D01*
X101203262Y-37679715D01*
X101363547Y-37840000D01*
X47735756Y-37840000D01*
X48018601Y-37783739D01*
X48498141Y-37585107D01*
X48929715Y-37296738D01*
X49296738Y-36929715D01*
X49585107Y-36498141D01*
X49783739Y-36018601D01*
X49885000Y-35509525D01*
X49885000Y-34990475D01*
X49783739Y-34481399D01*
X49585107Y-34001859D01*
X49296738Y-33570285D01*
X48929715Y-33203262D01*
X48498141Y-32914893D01*
X48018601Y-32716261D01*
X47509525Y-32615000D01*
X46990475Y-32615000D01*
X46481399Y-32716261D01*
X46001859Y-32914893D01*
X45570285Y-33203262D01*
X45203262Y-33570285D01*
X44914893Y-34001859D01*
X44716261Y-34481399D01*
X44660000Y-34764244D01*
X44660000Y-22235756D01*
X44716261Y-22518601D01*
X44914893Y-22998141D01*
X45203262Y-23429715D01*
X45570285Y-23796738D01*
X46001859Y-24085107D01*
X46481399Y-24283739D01*
X46990475Y-24385000D01*
X47509525Y-24385000D01*
X48018601Y-24283739D01*
X48498141Y-24085107D01*
X48929715Y-23796738D01*
X49296738Y-23429715D01*
X49337974Y-23368000D01*
X51847815Y-23368000D01*
X51876487Y-23659111D01*
X51961401Y-23939034D01*
X52099294Y-24197014D01*
X52284866Y-24423134D01*
X52510986Y-24608706D01*
X52575523Y-24643201D01*
X52458645Y-24712822D01*
X52242412Y-24907731D01*
X52068359Y-25141080D01*
X51943175Y-25403901D01*
X51898524Y-25551110D01*
X52019845Y-25781000D01*
X53213000Y-25781000D01*
X53213000Y-25761000D01*
X53467000Y-25761000D01*
X53467000Y-25781000D01*
X54660155Y-25781000D01*
X54781476Y-25551110D01*
X54736825Y-25403901D01*
X54611641Y-25141080D01*
X54437588Y-24907731D01*
X54221355Y-24712822D01*
X54104477Y-24643201D01*
X54169014Y-24608706D01*
X54395134Y-24423134D01*
X54580706Y-24197014D01*
X54718599Y-23939034D01*
X54771999Y-23763000D01*
X56778263Y-23763000D01*
X56834038Y-23830962D01*
X56968613Y-23941405D01*
X57122149Y-24023472D01*
X57288745Y-24074008D01*
X57461999Y-24091072D01*
X58362001Y-24091072D01*
X58535255Y-24074008D01*
X58701851Y-24023472D01*
X58855387Y-23941405D01*
X58989962Y-23830962D01*
X59045737Y-23763000D01*
X59604422Y-23763000D01*
X60129928Y-24288507D01*
X60129928Y-24700001D01*
X60146992Y-24873255D01*
X60197528Y-25039851D01*
X60279595Y-25193387D01*
X60390038Y-25327962D01*
X60396594Y-25333342D01*
X60316815Y-25398815D01*
X60237463Y-25495506D01*
X60178498Y-25605820D01*
X60142188Y-25725518D01*
X60129928Y-25850000D01*
X60133000Y-26139250D01*
X60291750Y-26298000D01*
X61341000Y-26298000D01*
X61341000Y-26278000D01*
X61595000Y-26278000D01*
X61595000Y-26298000D01*
X62644250Y-26298000D01*
X62803000Y-26139250D01*
X62806072Y-25850000D01*
X62793812Y-25725518D01*
X62757502Y-25605820D01*
X62698537Y-25495506D01*
X62619185Y-25398815D01*
X62539406Y-25333342D01*
X62545962Y-25327962D01*
X62656405Y-25193387D01*
X62738472Y-25039851D01*
X62789008Y-24873255D01*
X62806072Y-24700001D01*
X62806072Y-24049999D01*
X62789008Y-23876745D01*
X62754504Y-23763000D01*
X63229496Y-23763000D01*
X63194992Y-23876745D01*
X63177928Y-24049999D01*
X63177928Y-24700001D01*
X63194992Y-24873255D01*
X63245528Y-25039851D01*
X63327595Y-25193387D01*
X63438038Y-25327962D01*
X63444594Y-25333342D01*
X63364815Y-25398815D01*
X63285463Y-25495506D01*
X63226498Y-25605820D01*
X63190188Y-25725518D01*
X63177928Y-25850000D01*
X63181000Y-26139250D01*
X63339750Y-26298000D01*
X64389000Y-26298000D01*
X64389000Y-26278000D01*
X64643000Y-26278000D01*
X64643000Y-26298000D01*
X64663000Y-26298000D01*
X64663000Y-26552000D01*
X64643000Y-26552000D01*
X64643000Y-26572000D01*
X64389000Y-26572000D01*
X64389000Y-26552000D01*
X63415911Y-26552000D01*
X63301898Y-26504774D01*
X63101939Y-26465000D01*
X62898061Y-26465000D01*
X62698102Y-26504774D01*
X62584089Y-26552000D01*
X61595000Y-26552000D01*
X61595000Y-27476250D01*
X61753750Y-27635000D01*
X61971898Y-27636618D01*
X62004774Y-27801898D01*
X62063635Y-27944000D01*
X54738934Y-27944000D01*
X54718599Y-27876966D01*
X54580706Y-27618986D01*
X54395134Y-27392866D01*
X54169014Y-27207294D01*
X54104477Y-27172799D01*
X54221355Y-27103178D01*
X54335821Y-27000000D01*
X60129928Y-27000000D01*
X60142188Y-27124482D01*
X60178498Y-27244180D01*
X60237463Y-27354494D01*
X60316815Y-27451185D01*
X60413506Y-27530537D01*
X60523820Y-27589502D01*
X60643518Y-27625812D01*
X60768000Y-27638072D01*
X61182250Y-27635000D01*
X61341000Y-27476250D01*
X61341000Y-26552000D01*
X60291750Y-26552000D01*
X60133000Y-26710750D01*
X60129928Y-27000000D01*
X54335821Y-27000000D01*
X54437588Y-26908269D01*
X54611641Y-26674920D01*
X54736825Y-26412099D01*
X54781476Y-26264890D01*
X54660155Y-26035000D01*
X53467000Y-26035000D01*
X53467000Y-26055000D01*
X53213000Y-26055000D01*
X53213000Y-26035000D01*
X52019845Y-26035000D01*
X51898524Y-26264890D01*
X51943175Y-26412099D01*
X52068359Y-26674920D01*
X52242412Y-26908269D01*
X52458645Y-27103178D01*
X52575523Y-27172799D01*
X52510986Y-27207294D01*
X52284866Y-27392866D01*
X52099294Y-27618986D01*
X51961401Y-27876966D01*
X51876487Y-28156889D01*
X51847815Y-28448000D01*
X51876487Y-28739111D01*
X51961401Y-29019034D01*
X52099294Y-29277014D01*
X52284866Y-29503134D01*
X52510986Y-29688706D01*
X52565791Y-29718000D01*
X52510986Y-29747294D01*
X52284866Y-29932866D01*
X52099294Y-30158986D01*
X51961401Y-30416966D01*
X51876487Y-30696889D01*
X51847815Y-30988000D01*
X51876487Y-31279111D01*
X51961401Y-31559034D01*
X52099294Y-31817014D01*
X52284866Y-32043134D01*
X52510986Y-32228706D01*
X52565791Y-32258000D01*
X52510986Y-32287294D01*
X52284866Y-32472866D01*
X52099294Y-32698986D01*
X51961401Y-32956966D01*
X51876487Y-33236889D01*
X51847815Y-33528000D01*
X51876487Y-33819111D01*
X51961401Y-34099034D01*
X52099294Y-34357014D01*
X52284866Y-34583134D01*
X52510986Y-34768706D01*
X52565791Y-34798000D01*
X52510986Y-34827294D01*
X52284866Y-35012866D01*
X52099294Y-35238986D01*
X51961401Y-35496966D01*
X51876487Y-35776889D01*
X51847815Y-36068000D01*
X51876487Y-36359111D01*
X51961401Y-36639034D01*
X52099294Y-36897014D01*
X52284866Y-37123134D01*
X52510986Y-37308706D01*
X52768966Y-37446599D01*
X53048889Y-37531513D01*
X53267050Y-37553000D01*
X53412950Y-37553000D01*
X53631111Y-37531513D01*
X53911034Y-37446599D01*
X54169014Y-37308706D01*
X54395134Y-37123134D01*
X54534759Y-36953000D01*
X76236668Y-36953000D01*
X76414866Y-37170135D01*
X76640986Y-37355707D01*
X76898966Y-37493600D01*
X77178889Y-37578514D01*
X77397050Y-37600001D01*
X77542950Y-37600001D01*
X77761111Y-37578514D01*
X78041034Y-37493600D01*
X78299014Y-37355707D01*
X78525134Y-37170135D01*
X78710706Y-36944015D01*
X78848599Y-36686035D01*
X78933513Y-36406112D01*
X78962185Y-36115001D01*
X78933513Y-35823890D01*
X78848599Y-35543967D01*
X78710706Y-35285987D01*
X78525134Y-35059867D01*
X78299014Y-34874295D01*
X78244209Y-34845001D01*
X78299014Y-34815707D01*
X78525134Y-34630135D01*
X78710706Y-34404015D01*
X78798119Y-34240475D01*
X88865000Y-34240475D01*
X88865000Y-34759525D01*
X88966261Y-35268601D01*
X89164893Y-35748141D01*
X89453262Y-36179715D01*
X89820285Y-36546738D01*
X90251859Y-36835107D01*
X90731399Y-37033739D01*
X91240475Y-37135000D01*
X91759525Y-37135000D01*
X92268601Y-37033739D01*
X92748141Y-36835107D01*
X93179715Y-36546738D01*
X93546738Y-36179715D01*
X93835107Y-35748141D01*
X94033739Y-35268601D01*
X94135000Y-34759525D01*
X94135000Y-34240475D01*
X94033739Y-33731399D01*
X93835107Y-33251859D01*
X93546738Y-32820285D01*
X93179715Y-32453262D01*
X92748141Y-32164893D01*
X92268601Y-31966261D01*
X91759525Y-31865000D01*
X91240475Y-31865000D01*
X90731399Y-31966261D01*
X90251859Y-32164893D01*
X89820285Y-32453262D01*
X89453262Y-32820285D01*
X89164893Y-33251859D01*
X88966261Y-33731399D01*
X88865000Y-34240475D01*
X78798119Y-34240475D01*
X78848599Y-34146035D01*
X78933513Y-33866112D01*
X78962185Y-33575001D01*
X78933513Y-33283890D01*
X78848599Y-33003967D01*
X78710706Y-32745987D01*
X78525134Y-32519867D01*
X78299014Y-32334295D01*
X78244209Y-32305001D01*
X78299014Y-32275707D01*
X78525134Y-32090135D01*
X78710706Y-31864015D01*
X78848599Y-31606035D01*
X78933513Y-31326112D01*
X78962185Y-31035001D01*
X78933513Y-30743890D01*
X78848599Y-30463967D01*
X78710706Y-30205987D01*
X78525134Y-29979867D01*
X78299014Y-29794295D01*
X78244209Y-29765001D01*
X78299014Y-29735707D01*
X78525134Y-29550135D01*
X78710706Y-29324015D01*
X78848599Y-29066035D01*
X78933513Y-28786112D01*
X78962185Y-28495001D01*
X78933513Y-28203890D01*
X78848599Y-27923967D01*
X78710706Y-27665987D01*
X78525134Y-27439867D01*
X78299014Y-27254295D01*
X78234477Y-27219800D01*
X78351355Y-27150179D01*
X78567588Y-26955270D01*
X78741641Y-26721921D01*
X78866825Y-26459100D01*
X78911476Y-26311891D01*
X78790155Y-26082001D01*
X77597000Y-26082001D01*
X77597000Y-26102001D01*
X77343000Y-26102001D01*
X77343000Y-26082001D01*
X76149845Y-26082001D01*
X76028524Y-26311891D01*
X76073175Y-26459100D01*
X76198359Y-26721921D01*
X76372412Y-26955270D01*
X76588645Y-27150179D01*
X76705523Y-27219800D01*
X76640986Y-27254295D01*
X76414866Y-27439867D01*
X76229294Y-27665987D01*
X76091401Y-27923967D01*
X76006487Y-28203890D01*
X75977815Y-28495001D01*
X76006487Y-28786112D01*
X76091401Y-29066035D01*
X76229294Y-29324015D01*
X76414866Y-29550135D01*
X76640986Y-29735707D01*
X76695791Y-29765001D01*
X76640986Y-29794295D01*
X76414866Y-29979867D01*
X76313813Y-30103000D01*
X74596579Y-30103000D01*
X73659013Y-29165434D01*
X73668929Y-29132745D01*
X73684072Y-28979000D01*
X73684072Y-28679000D01*
X73668929Y-28525255D01*
X73624084Y-28377418D01*
X73551258Y-28241171D01*
X73512546Y-28194000D01*
X73551258Y-28146829D01*
X73624084Y-28010582D01*
X73668929Y-27862745D01*
X73684072Y-27709000D01*
X73684072Y-27409000D01*
X73668929Y-27255255D01*
X73624084Y-27107418D01*
X73551258Y-26971171D01*
X73512546Y-26924000D01*
X73551258Y-26876829D01*
X73624084Y-26740582D01*
X73668929Y-26592745D01*
X73684072Y-26439000D01*
X73684072Y-26139000D01*
X73668929Y-25985255D01*
X73624084Y-25837418D01*
X73551258Y-25701171D01*
X73512546Y-25654000D01*
X73551258Y-25606829D01*
X73624084Y-25470582D01*
X73668929Y-25322745D01*
X73684072Y-25169000D01*
X73684072Y-24869000D01*
X73668929Y-24715255D01*
X73659013Y-24682566D01*
X74552579Y-23789000D01*
X75390340Y-23789000D01*
X75611385Y-24010045D01*
X75639102Y-24043818D01*
X75757415Y-24140916D01*
X75773860Y-24154412D01*
X75927605Y-24236590D01*
X76083033Y-24283739D01*
X76094429Y-24287196D01*
X76224442Y-24300001D01*
X76224450Y-24300001D01*
X76267919Y-24304282D01*
X76277944Y-24303295D01*
X76414866Y-24470135D01*
X76640986Y-24655707D01*
X76705523Y-24690202D01*
X76588645Y-24759823D01*
X76372412Y-24954732D01*
X76198359Y-25188081D01*
X76073175Y-25450902D01*
X76028524Y-25598111D01*
X76149845Y-25828001D01*
X77343000Y-25828001D01*
X77343000Y-25808001D01*
X77597000Y-25808001D01*
X77597000Y-25828001D01*
X78790155Y-25828001D01*
X78911476Y-25598111D01*
X78866825Y-25450902D01*
X78741641Y-25188081D01*
X78567588Y-24954732D01*
X78351355Y-24759823D01*
X78234477Y-24690202D01*
X78299014Y-24655707D01*
X78525134Y-24470135D01*
X78710706Y-24244015D01*
X78848599Y-23986035D01*
X78933513Y-23706112D01*
X78962185Y-23415001D01*
X78933513Y-23123890D01*
X78848599Y-22843967D01*
X78710706Y-22585987D01*
X78525134Y-22359867D01*
X78495313Y-22335394D01*
X78564180Y-22314503D01*
X78674494Y-22255538D01*
X78692848Y-22240475D01*
X88865000Y-22240475D01*
X88865000Y-22759525D01*
X88966261Y-23268601D01*
X89164893Y-23748141D01*
X89453262Y-24179715D01*
X89820285Y-24546738D01*
X90251859Y-24835107D01*
X90731399Y-25033739D01*
X91240475Y-25135000D01*
X91759525Y-25135000D01*
X92268601Y-25033739D01*
X92748141Y-24835107D01*
X93179715Y-24546738D01*
X93546738Y-24179715D01*
X93835107Y-23748141D01*
X94033739Y-23268601D01*
X94135000Y-22759525D01*
X94135000Y-22240475D01*
X94033739Y-21731399D01*
X93835107Y-21251859D01*
X93546738Y-20820285D01*
X93179715Y-20453262D01*
X92748141Y-20164893D01*
X92268601Y-19966261D01*
X91759525Y-19865000D01*
X91240475Y-19865000D01*
X90731399Y-19966261D01*
X90251859Y-20164893D01*
X89820285Y-20453262D01*
X89453262Y-20820285D01*
X89164893Y-21251859D01*
X88966261Y-21731399D01*
X88865000Y-22240475D01*
X78692848Y-22240475D01*
X78771185Y-22176186D01*
X78850537Y-22079495D01*
X78909502Y-21969181D01*
X78945812Y-21849483D01*
X78958072Y-21725001D01*
X78958072Y-20025001D01*
X78945812Y-19900519D01*
X78909502Y-19780821D01*
X78850537Y-19670507D01*
X78771185Y-19573816D01*
X78674494Y-19494464D01*
X78564180Y-19435499D01*
X78444482Y-19399189D01*
X78320000Y-19386929D01*
X76620000Y-19386929D01*
X76495518Y-19399189D01*
X76375820Y-19435499D01*
X76265506Y-19494464D01*
X76168815Y-19573816D01*
X76089463Y-19670507D01*
X76030498Y-19780821D01*
X75994188Y-19900519D01*
X75981928Y-20025001D01*
X75981928Y-21725001D01*
X75994188Y-21849483D01*
X76030498Y-21969181D01*
X76089463Y-22079495D01*
X76090074Y-22080240D01*
X75930408Y-22031805D01*
X75800395Y-22019000D01*
X75800387Y-22019000D01*
X75756918Y-22014719D01*
X75713449Y-22019000D01*
X74402987Y-22019000D01*
X74359490Y-22005805D01*
X74229477Y-21993000D01*
X74186000Y-21988718D01*
X74142524Y-21993000D01*
X60014469Y-21993000D01*
X59971000Y-21988719D01*
X59927531Y-21993000D01*
X59045737Y-21993000D01*
X58989962Y-21925038D01*
X58902184Y-21853000D01*
X58989962Y-21780962D01*
X59100405Y-21646387D01*
X59182472Y-21492851D01*
X59233008Y-21326255D01*
X59250072Y-21153001D01*
X59250072Y-20502999D01*
X59233008Y-20329745D01*
X59182472Y-20163149D01*
X59100405Y-20009613D01*
X58989962Y-19875038D01*
X58855387Y-19764595D01*
X58701851Y-19682528D01*
X58535255Y-19631992D01*
X58362001Y-19614928D01*
X57461999Y-19614928D01*
X57288745Y-19631992D01*
X57122149Y-19682528D01*
X56968613Y-19764595D01*
X56834038Y-19875038D01*
X56778263Y-19943000D01*
X54824625Y-19943000D01*
X54815812Y-19853518D01*
X54779502Y-19733820D01*
X54720537Y-19623506D01*
X54641185Y-19526815D01*
X54544494Y-19447463D01*
X54434180Y-19388498D01*
X54314482Y-19352188D01*
X54190000Y-19339928D01*
X52490000Y-19339928D01*
X52365518Y-19352188D01*
X52245820Y-19388498D01*
X52135506Y-19447463D01*
X52038815Y-19526815D01*
X51959463Y-19623506D01*
X51900498Y-19733820D01*
X51864188Y-19853518D01*
X51851928Y-19978000D01*
X51851928Y-21678000D01*
X51864188Y-21802482D01*
X51900498Y-21922180D01*
X51959463Y-22032494D01*
X52038815Y-22129185D01*
X52135506Y-22208537D01*
X52245820Y-22267502D01*
X52314687Y-22288393D01*
X52284866Y-22312866D01*
X52099294Y-22538986D01*
X51961401Y-22796966D01*
X51876487Y-23076889D01*
X51847815Y-23368000D01*
X49337974Y-23368000D01*
X49585107Y-22998141D01*
X49783739Y-22518601D01*
X49885000Y-22009525D01*
X49885000Y-21490475D01*
X49783739Y-20981399D01*
X49585107Y-20501859D01*
X49296738Y-20070285D01*
X48929715Y-19703262D01*
X48498141Y-19414893D01*
X48018601Y-19216261D01*
X47735756Y-19160000D01*
X101363547Y-19160000D01*
X101203262Y-19320285D01*
X101203262Y-19320285D01*
G37*
X101203262Y-19320285D02*
X100914893Y-19751859D01*
X100716261Y-20231399D01*
X100615000Y-20740475D01*
X100615000Y-21259525D01*
X100716261Y-21768601D01*
X100914893Y-22248141D01*
X101203262Y-22679715D01*
X101570285Y-23046738D01*
X102001859Y-23335107D01*
X102481399Y-23533739D01*
X102990475Y-23635000D01*
X103509525Y-23635000D01*
X104018601Y-23533739D01*
X104498141Y-23335107D01*
X104929715Y-23046738D01*
X105296738Y-22679715D01*
X105585107Y-22248141D01*
X105783739Y-21768601D01*
X105885000Y-21259525D01*
X105885000Y-20740475D01*
X105783739Y-20231399D01*
X105585107Y-19751859D01*
X105296738Y-19320285D01*
X105136453Y-19160000D01*
X106090000Y-19160000D01*
X106090001Y-37840000D01*
X105136453Y-37840000D01*
X105296738Y-37679715D01*
X105585107Y-37248141D01*
X105783739Y-36768601D01*
X105885000Y-36259525D01*
X105885000Y-35740475D01*
X105783739Y-35231399D01*
X105585107Y-34751859D01*
X105296738Y-34320285D01*
X104929715Y-33953262D01*
X104498141Y-33664893D01*
X104018601Y-33466261D01*
X103509525Y-33365000D01*
X102990475Y-33365000D01*
X102481399Y-33466261D01*
X102001859Y-33664893D01*
X101570285Y-33953262D01*
X101203262Y-34320285D01*
X100914893Y-34751859D01*
X100716261Y-35231399D01*
X100615000Y-35740475D01*
X100615000Y-36259525D01*
X100716261Y-36768601D01*
X100914893Y-37248141D01*
X101203262Y-37679715D01*
X101363547Y-37840000D01*
X47735756Y-37840000D01*
X48018601Y-37783739D01*
X48498141Y-37585107D01*
X48929715Y-37296738D01*
X49296738Y-36929715D01*
X49585107Y-36498141D01*
X49783739Y-36018601D01*
X49885000Y-35509525D01*
X49885000Y-34990475D01*
X49783739Y-34481399D01*
X49585107Y-34001859D01*
X49296738Y-33570285D01*
X48929715Y-33203262D01*
X48498141Y-32914893D01*
X48018601Y-32716261D01*
X47509525Y-32615000D01*
X46990475Y-32615000D01*
X46481399Y-32716261D01*
X46001859Y-32914893D01*
X45570285Y-33203262D01*
X45203262Y-33570285D01*
X44914893Y-34001859D01*
X44716261Y-34481399D01*
X44660000Y-34764244D01*
X44660000Y-22235756D01*
X44716261Y-22518601D01*
X44914893Y-22998141D01*
X45203262Y-23429715D01*
X45570285Y-23796738D01*
X46001859Y-24085107D01*
X46481399Y-24283739D01*
X46990475Y-24385000D01*
X47509525Y-24385000D01*
X48018601Y-24283739D01*
X48498141Y-24085107D01*
X48929715Y-23796738D01*
X49296738Y-23429715D01*
X49337974Y-23368000D01*
X51847815Y-23368000D01*
X51876487Y-23659111D01*
X51961401Y-23939034D01*
X52099294Y-24197014D01*
X52284866Y-24423134D01*
X52510986Y-24608706D01*
X52575523Y-24643201D01*
X52458645Y-24712822D01*
X52242412Y-24907731D01*
X52068359Y-25141080D01*
X51943175Y-25403901D01*
X51898524Y-25551110D01*
X52019845Y-25781000D01*
X53213000Y-25781000D01*
X53213000Y-25761000D01*
X53467000Y-25761000D01*
X53467000Y-25781000D01*
X54660155Y-25781000D01*
X54781476Y-25551110D01*
X54736825Y-25403901D01*
X54611641Y-25141080D01*
X54437588Y-24907731D01*
X54221355Y-24712822D01*
X54104477Y-24643201D01*
X54169014Y-24608706D01*
X54395134Y-24423134D01*
X54580706Y-24197014D01*
X54718599Y-23939034D01*
X54771999Y-23763000D01*
X56778263Y-23763000D01*
X56834038Y-23830962D01*
X56968613Y-23941405D01*
X57122149Y-24023472D01*
X57288745Y-24074008D01*
X57461999Y-24091072D01*
X58362001Y-24091072D01*
X58535255Y-24074008D01*
X58701851Y-24023472D01*
X58855387Y-23941405D01*
X58989962Y-23830962D01*
X59045737Y-23763000D01*
X59604422Y-23763000D01*
X60129928Y-24288507D01*
X60129928Y-24700001D01*
X60146992Y-24873255D01*
X60197528Y-25039851D01*
X60279595Y-25193387D01*
X60390038Y-25327962D01*
X60396594Y-25333342D01*
X60316815Y-25398815D01*
X60237463Y-25495506D01*
X60178498Y-25605820D01*
X60142188Y-25725518D01*
X60129928Y-25850000D01*
X60133000Y-26139250D01*
X60291750Y-26298000D01*
X61341000Y-26298000D01*
X61341000Y-26278000D01*
X61595000Y-26278000D01*
X61595000Y-26298000D01*
X62644250Y-26298000D01*
X62803000Y-26139250D01*
X62806072Y-25850000D01*
X62793812Y-25725518D01*
X62757502Y-25605820D01*
X62698537Y-25495506D01*
X62619185Y-25398815D01*
X62539406Y-25333342D01*
X62545962Y-25327962D01*
X62656405Y-25193387D01*
X62738472Y-25039851D01*
X62789008Y-24873255D01*
X62806072Y-24700001D01*
X62806072Y-24049999D01*
X62789008Y-23876745D01*
X62754504Y-23763000D01*
X63229496Y-23763000D01*
X63194992Y-23876745D01*
X63177928Y-24049999D01*
X63177928Y-24700001D01*
X63194992Y-24873255D01*
X63245528Y-25039851D01*
X63327595Y-25193387D01*
X63438038Y-25327962D01*
X63444594Y-25333342D01*
X63364815Y-25398815D01*
X63285463Y-25495506D01*
X63226498Y-25605820D01*
X63190188Y-25725518D01*
X63177928Y-25850000D01*
X63181000Y-26139250D01*
X63339750Y-26298000D01*
X64389000Y-26298000D01*
X64389000Y-26278000D01*
X64643000Y-26278000D01*
X64643000Y-26298000D01*
X64663000Y-26298000D01*
X64663000Y-26552000D01*
X64643000Y-26552000D01*
X64643000Y-26572000D01*
X64389000Y-26572000D01*
X64389000Y-26552000D01*
X63415911Y-26552000D01*
X63301898Y-26504774D01*
X63101939Y-26465000D01*
X62898061Y-26465000D01*
X62698102Y-26504774D01*
X62584089Y-26552000D01*
X61595000Y-26552000D01*
X61595000Y-27476250D01*
X61753750Y-27635000D01*
X61971898Y-27636618D01*
X62004774Y-27801898D01*
X62063635Y-27944000D01*
X54738934Y-27944000D01*
X54718599Y-27876966D01*
X54580706Y-27618986D01*
X54395134Y-27392866D01*
X54169014Y-27207294D01*
X54104477Y-27172799D01*
X54221355Y-27103178D01*
X54335821Y-27000000D01*
X60129928Y-27000000D01*
X60142188Y-27124482D01*
X60178498Y-27244180D01*
X60237463Y-27354494D01*
X60316815Y-27451185D01*
X60413506Y-27530537D01*
X60523820Y-27589502D01*
X60643518Y-27625812D01*
X60768000Y-27638072D01*
X61182250Y-27635000D01*
X61341000Y-27476250D01*
X61341000Y-26552000D01*
X60291750Y-26552000D01*
X60133000Y-26710750D01*
X60129928Y-27000000D01*
X54335821Y-27000000D01*
X54437588Y-26908269D01*
X54611641Y-26674920D01*
X54736825Y-26412099D01*
X54781476Y-26264890D01*
X54660155Y-26035000D01*
X53467000Y-26035000D01*
X53467000Y-26055000D01*
X53213000Y-26055000D01*
X53213000Y-26035000D01*
X52019845Y-26035000D01*
X51898524Y-26264890D01*
X51943175Y-26412099D01*
X52068359Y-26674920D01*
X52242412Y-26908269D01*
X52458645Y-27103178D01*
X52575523Y-27172799D01*
X52510986Y-27207294D01*
X52284866Y-27392866D01*
X52099294Y-27618986D01*
X51961401Y-27876966D01*
X51876487Y-28156889D01*
X51847815Y-28448000D01*
X51876487Y-28739111D01*
X51961401Y-29019034D01*
X52099294Y-29277014D01*
X52284866Y-29503134D01*
X52510986Y-29688706D01*
X52565791Y-29718000D01*
X52510986Y-29747294D01*
X52284866Y-29932866D01*
X52099294Y-30158986D01*
X51961401Y-30416966D01*
X51876487Y-30696889D01*
X51847815Y-30988000D01*
X51876487Y-31279111D01*
X51961401Y-31559034D01*
X52099294Y-31817014D01*
X52284866Y-32043134D01*
X52510986Y-32228706D01*
X52565791Y-32258000D01*
X52510986Y-32287294D01*
X52284866Y-32472866D01*
X52099294Y-32698986D01*
X51961401Y-32956966D01*
X51876487Y-33236889D01*
X51847815Y-33528000D01*
X51876487Y-33819111D01*
X51961401Y-34099034D01*
X52099294Y-34357014D01*
X52284866Y-34583134D01*
X52510986Y-34768706D01*
X52565791Y-34798000D01*
X52510986Y-34827294D01*
X52284866Y-35012866D01*
X52099294Y-35238986D01*
X51961401Y-35496966D01*
X51876487Y-35776889D01*
X51847815Y-36068000D01*
X51876487Y-36359111D01*
X51961401Y-36639034D01*
X52099294Y-36897014D01*
X52284866Y-37123134D01*
X52510986Y-37308706D01*
X52768966Y-37446599D01*
X53048889Y-37531513D01*
X53267050Y-37553000D01*
X53412950Y-37553000D01*
X53631111Y-37531513D01*
X53911034Y-37446599D01*
X54169014Y-37308706D01*
X54395134Y-37123134D01*
X54534759Y-36953000D01*
X76236668Y-36953000D01*
X76414866Y-37170135D01*
X76640986Y-37355707D01*
X76898966Y-37493600D01*
X77178889Y-37578514D01*
X77397050Y-37600001D01*
X77542950Y-37600001D01*
X77761111Y-37578514D01*
X78041034Y-37493600D01*
X78299014Y-37355707D01*
X78525134Y-37170135D01*
X78710706Y-36944015D01*
X78848599Y-36686035D01*
X78933513Y-36406112D01*
X78962185Y-36115001D01*
X78933513Y-35823890D01*
X78848599Y-35543967D01*
X78710706Y-35285987D01*
X78525134Y-35059867D01*
X78299014Y-34874295D01*
X78244209Y-34845001D01*
X78299014Y-34815707D01*
X78525134Y-34630135D01*
X78710706Y-34404015D01*
X78798119Y-34240475D01*
X88865000Y-34240475D01*
X88865000Y-34759525D01*
X88966261Y-35268601D01*
X89164893Y-35748141D01*
X89453262Y-36179715D01*
X89820285Y-36546738D01*
X90251859Y-36835107D01*
X90731399Y-37033739D01*
X91240475Y-37135000D01*
X91759525Y-37135000D01*
X92268601Y-37033739D01*
X92748141Y-36835107D01*
X93179715Y-36546738D01*
X93546738Y-36179715D01*
X93835107Y-35748141D01*
X94033739Y-35268601D01*
X94135000Y-34759525D01*
X94135000Y-34240475D01*
X94033739Y-33731399D01*
X93835107Y-33251859D01*
X93546738Y-32820285D01*
X93179715Y-32453262D01*
X92748141Y-32164893D01*
X92268601Y-31966261D01*
X91759525Y-31865000D01*
X91240475Y-31865000D01*
X90731399Y-31966261D01*
X90251859Y-32164893D01*
X89820285Y-32453262D01*
X89453262Y-32820285D01*
X89164893Y-33251859D01*
X88966261Y-33731399D01*
X88865000Y-34240475D01*
X78798119Y-34240475D01*
X78848599Y-34146035D01*
X78933513Y-33866112D01*
X78962185Y-33575001D01*
X78933513Y-33283890D01*
X78848599Y-33003967D01*
X78710706Y-32745987D01*
X78525134Y-32519867D01*
X78299014Y-32334295D01*
X78244209Y-32305001D01*
X78299014Y-32275707D01*
X78525134Y-32090135D01*
X78710706Y-31864015D01*
X78848599Y-31606035D01*
X78933513Y-31326112D01*
X78962185Y-31035001D01*
X78933513Y-30743890D01*
X78848599Y-30463967D01*
X78710706Y-30205987D01*
X78525134Y-29979867D01*
X78299014Y-29794295D01*
X78244209Y-29765001D01*
X78299014Y-29735707D01*
X78525134Y-29550135D01*
X78710706Y-29324015D01*
X78848599Y-29066035D01*
X78933513Y-28786112D01*
X78962185Y-28495001D01*
X78933513Y-28203890D01*
X78848599Y-27923967D01*
X78710706Y-27665987D01*
X78525134Y-27439867D01*
X78299014Y-27254295D01*
X78234477Y-27219800D01*
X78351355Y-27150179D01*
X78567588Y-26955270D01*
X78741641Y-26721921D01*
X78866825Y-26459100D01*
X78911476Y-26311891D01*
X78790155Y-26082001D01*
X77597000Y-26082001D01*
X77597000Y-26102001D01*
X77343000Y-26102001D01*
X77343000Y-26082001D01*
X76149845Y-26082001D01*
X76028524Y-26311891D01*
X76073175Y-26459100D01*
X76198359Y-26721921D01*
X76372412Y-26955270D01*
X76588645Y-27150179D01*
X76705523Y-27219800D01*
X76640986Y-27254295D01*
X76414866Y-27439867D01*
X76229294Y-27665987D01*
X76091401Y-27923967D01*
X76006487Y-28203890D01*
X75977815Y-28495001D01*
X76006487Y-28786112D01*
X76091401Y-29066035D01*
X76229294Y-29324015D01*
X76414866Y-29550135D01*
X76640986Y-29735707D01*
X76695791Y-29765001D01*
X76640986Y-29794295D01*
X76414866Y-29979867D01*
X76313813Y-30103000D01*
X74596579Y-30103000D01*
X73659013Y-29165434D01*
X73668929Y-29132745D01*
X73684072Y-28979000D01*
X73684072Y-28679000D01*
X73668929Y-28525255D01*
X73624084Y-28377418D01*
X73551258Y-28241171D01*
X73512546Y-28194000D01*
X73551258Y-28146829D01*
X73624084Y-28010582D01*
X73668929Y-27862745D01*
X73684072Y-27709000D01*
X73684072Y-27409000D01*
X73668929Y-27255255D01*
X73624084Y-27107418D01*
X73551258Y-26971171D01*
X73512546Y-26924000D01*
X73551258Y-26876829D01*
X73624084Y-26740582D01*
X73668929Y-26592745D01*
X73684072Y-26439000D01*
X73684072Y-26139000D01*
X73668929Y-25985255D01*
X73624084Y-25837418D01*
X73551258Y-25701171D01*
X73512546Y-25654000D01*
X73551258Y-25606829D01*
X73624084Y-25470582D01*
X73668929Y-25322745D01*
X73684072Y-25169000D01*
X73684072Y-24869000D01*
X73668929Y-24715255D01*
X73659013Y-24682566D01*
X74552579Y-23789000D01*
X75390340Y-23789000D01*
X75611385Y-24010045D01*
X75639102Y-24043818D01*
X75757415Y-24140916D01*
X75773860Y-24154412D01*
X75927605Y-24236590D01*
X76083033Y-24283739D01*
X76094429Y-24287196D01*
X76224442Y-24300001D01*
X76224450Y-24300001D01*
X76267919Y-24304282D01*
X76277944Y-24303295D01*
X76414866Y-24470135D01*
X76640986Y-24655707D01*
X76705523Y-24690202D01*
X76588645Y-24759823D01*
X76372412Y-24954732D01*
X76198359Y-25188081D01*
X76073175Y-25450902D01*
X76028524Y-25598111D01*
X76149845Y-25828001D01*
X77343000Y-25828001D01*
X77343000Y-25808001D01*
X77597000Y-25808001D01*
X77597000Y-25828001D01*
X78790155Y-25828001D01*
X78911476Y-25598111D01*
X78866825Y-25450902D01*
X78741641Y-25188081D01*
X78567588Y-24954732D01*
X78351355Y-24759823D01*
X78234477Y-24690202D01*
X78299014Y-24655707D01*
X78525134Y-24470135D01*
X78710706Y-24244015D01*
X78848599Y-23986035D01*
X78933513Y-23706112D01*
X78962185Y-23415001D01*
X78933513Y-23123890D01*
X78848599Y-22843967D01*
X78710706Y-22585987D01*
X78525134Y-22359867D01*
X78495313Y-22335394D01*
X78564180Y-22314503D01*
X78674494Y-22255538D01*
X78692848Y-22240475D01*
X88865000Y-22240475D01*
X88865000Y-22759525D01*
X88966261Y-23268601D01*
X89164893Y-23748141D01*
X89453262Y-24179715D01*
X89820285Y-24546738D01*
X90251859Y-24835107D01*
X90731399Y-25033739D01*
X91240475Y-25135000D01*
X91759525Y-25135000D01*
X92268601Y-25033739D01*
X92748141Y-24835107D01*
X93179715Y-24546738D01*
X93546738Y-24179715D01*
X93835107Y-23748141D01*
X94033739Y-23268601D01*
X94135000Y-22759525D01*
X94135000Y-22240475D01*
X94033739Y-21731399D01*
X93835107Y-21251859D01*
X93546738Y-20820285D01*
X93179715Y-20453262D01*
X92748141Y-20164893D01*
X92268601Y-19966261D01*
X91759525Y-19865000D01*
X91240475Y-19865000D01*
X90731399Y-19966261D01*
X90251859Y-20164893D01*
X89820285Y-20453262D01*
X89453262Y-20820285D01*
X89164893Y-21251859D01*
X88966261Y-21731399D01*
X88865000Y-22240475D01*
X78692848Y-22240475D01*
X78771185Y-22176186D01*
X78850537Y-22079495D01*
X78909502Y-21969181D01*
X78945812Y-21849483D01*
X78958072Y-21725001D01*
X78958072Y-20025001D01*
X78945812Y-19900519D01*
X78909502Y-19780821D01*
X78850537Y-19670507D01*
X78771185Y-19573816D01*
X78674494Y-19494464D01*
X78564180Y-19435499D01*
X78444482Y-19399189D01*
X78320000Y-19386929D01*
X76620000Y-19386929D01*
X76495518Y-19399189D01*
X76375820Y-19435499D01*
X76265506Y-19494464D01*
X76168815Y-19573816D01*
X76089463Y-19670507D01*
X76030498Y-19780821D01*
X75994188Y-19900519D01*
X75981928Y-20025001D01*
X75981928Y-21725001D01*
X75994188Y-21849483D01*
X76030498Y-21969181D01*
X76089463Y-22079495D01*
X76090074Y-22080240D01*
X75930408Y-22031805D01*
X75800395Y-22019000D01*
X75800387Y-22019000D01*
X75756918Y-22014719D01*
X75713449Y-22019000D01*
X74402987Y-22019000D01*
X74359490Y-22005805D01*
X74229477Y-21993000D01*
X74186000Y-21988718D01*
X74142524Y-21993000D01*
X60014469Y-21993000D01*
X59971000Y-21988719D01*
X59927531Y-21993000D01*
X59045737Y-21993000D01*
X58989962Y-21925038D01*
X58902184Y-21853000D01*
X58989962Y-21780962D01*
X59100405Y-21646387D01*
X59182472Y-21492851D01*
X59233008Y-21326255D01*
X59250072Y-21153001D01*
X59250072Y-20502999D01*
X59233008Y-20329745D01*
X59182472Y-20163149D01*
X59100405Y-20009613D01*
X58989962Y-19875038D01*
X58855387Y-19764595D01*
X58701851Y-19682528D01*
X58535255Y-19631992D01*
X58362001Y-19614928D01*
X57461999Y-19614928D01*
X57288745Y-19631992D01*
X57122149Y-19682528D01*
X56968613Y-19764595D01*
X56834038Y-19875038D01*
X56778263Y-19943000D01*
X54824625Y-19943000D01*
X54815812Y-19853518D01*
X54779502Y-19733820D01*
X54720537Y-19623506D01*
X54641185Y-19526815D01*
X54544494Y-19447463D01*
X54434180Y-19388498D01*
X54314482Y-19352188D01*
X54190000Y-19339928D01*
X52490000Y-19339928D01*
X52365518Y-19352188D01*
X52245820Y-19388498D01*
X52135506Y-19447463D01*
X52038815Y-19526815D01*
X51959463Y-19623506D01*
X51900498Y-19733820D01*
X51864188Y-19853518D01*
X51851928Y-19978000D01*
X51851928Y-21678000D01*
X51864188Y-21802482D01*
X51900498Y-21922180D01*
X51959463Y-22032494D01*
X52038815Y-22129185D01*
X52135506Y-22208537D01*
X52245820Y-22267502D01*
X52314687Y-22288393D01*
X52284866Y-22312866D01*
X52099294Y-22538986D01*
X51961401Y-22796966D01*
X51876487Y-23076889D01*
X51847815Y-23368000D01*
X49337974Y-23368000D01*
X49585107Y-22998141D01*
X49783739Y-22518601D01*
X49885000Y-22009525D01*
X49885000Y-21490475D01*
X49783739Y-20981399D01*
X49585107Y-20501859D01*
X49296738Y-20070285D01*
X48929715Y-19703262D01*
X48498141Y-19414893D01*
X48018601Y-19216261D01*
X47735756Y-19160000D01*
X101363547Y-19160000D01*
X101203262Y-19320285D01*
G36*
X71757494Y-24080928D02*
G01*
X71246000Y-24080928D01*
X71092255Y-24096071D01*
X70944418Y-24140916D01*
X70808171Y-24213742D01*
X70688749Y-24311749D01*
X70590742Y-24431171D01*
X70517916Y-24567418D01*
X70473071Y-24715255D01*
X70457928Y-24869000D01*
X70457928Y-25169000D01*
X70473071Y-25322745D01*
X70517916Y-25470582D01*
X70590742Y-25606829D01*
X70629454Y-25654000D01*
X70590742Y-25701171D01*
X70517916Y-25837418D01*
X70473071Y-25985255D01*
X70457928Y-26139000D01*
X70457928Y-26439000D01*
X70473071Y-26592745D01*
X70517916Y-26740582D01*
X70590742Y-26876829D01*
X70629454Y-26924000D01*
X70590742Y-26971171D01*
X70517916Y-27107418D01*
X70473071Y-27255255D01*
X70457928Y-27409000D01*
X70457928Y-27709000D01*
X70473071Y-27862745D01*
X70517916Y-28010582D01*
X70590742Y-28146829D01*
X70629454Y-28194000D01*
X70590742Y-28241171D01*
X70517916Y-28377418D01*
X70473071Y-28525255D01*
X70457928Y-28679000D01*
X70457928Y-28979000D01*
X70473071Y-29132745D01*
X70517916Y-29280582D01*
X70590742Y-29416829D01*
X70688749Y-29536251D01*
X70808171Y-29634258D01*
X70944418Y-29707084D01*
X71092255Y-29751929D01*
X71246000Y-29767072D01*
X71757494Y-29767072D01*
X72093422Y-30103000D01*
X54534759Y-30103000D01*
X54395134Y-29932866D01*
X54169014Y-29747294D01*
X54114209Y-29718000D01*
X54121692Y-29714000D01*
X66017217Y-29714000D01*
X66142255Y-29751929D01*
X66296000Y-29767072D01*
X67946000Y-29767072D01*
X68099745Y-29751929D01*
X68247582Y-29707084D01*
X68383829Y-29634258D01*
X68503251Y-29536251D01*
X68601258Y-29416829D01*
X68674084Y-29280582D01*
X68718929Y-29132745D01*
X68734072Y-28979000D01*
X68734072Y-28679000D01*
X68718929Y-28525255D01*
X68674084Y-28377418D01*
X68601258Y-28241171D01*
X68562546Y-28194000D01*
X68601258Y-28146829D01*
X68674084Y-28010582D01*
X68718929Y-27862745D01*
X68734072Y-27709000D01*
X68734072Y-27409000D01*
X68718929Y-27255255D01*
X68674084Y-27107418D01*
X68602270Y-26973064D01*
X68626537Y-26943494D01*
X68685502Y-26833180D01*
X68721812Y-26713482D01*
X68734072Y-26589000D01*
X68731000Y-26574750D01*
X68572250Y-26416000D01*
X67248000Y-26416000D01*
X67248000Y-26436000D01*
X66994000Y-26436000D01*
X66994000Y-26416000D01*
X66974000Y-26416000D01*
X66974000Y-26162000D01*
X66994000Y-26162000D01*
X66994000Y-26142000D01*
X67248000Y-26142000D01*
X67248000Y-26162000D01*
X68572250Y-26162000D01*
X68731000Y-26003250D01*
X68734072Y-25989000D01*
X68721812Y-25864518D01*
X68685502Y-25744820D01*
X68626537Y-25634506D01*
X68602270Y-25604936D01*
X68674084Y-25470582D01*
X68718929Y-25322745D01*
X68734072Y-25169000D01*
X68734072Y-24869000D01*
X68718929Y-24715255D01*
X68674084Y-24567418D01*
X68601258Y-24431171D01*
X68503251Y-24311749D01*
X68383829Y-24213742D01*
X68247582Y-24140916D01*
X68099745Y-24096071D01*
X67946000Y-24080928D01*
X67434507Y-24080928D01*
X67133534Y-23779956D01*
X67119618Y-23763000D01*
X72075422Y-23763000D01*
X71757494Y-24080928D01*
X71757494Y-24080928D01*
G37*
X71757494Y-24080928D02*
X71246000Y-24080928D01*
X71092255Y-24096071D01*
X70944418Y-24140916D01*
X70808171Y-24213742D01*
X70688749Y-24311749D01*
X70590742Y-24431171D01*
X70517916Y-24567418D01*
X70473071Y-24715255D01*
X70457928Y-24869000D01*
X70457928Y-25169000D01*
X70473071Y-25322745D01*
X70517916Y-25470582D01*
X70590742Y-25606829D01*
X70629454Y-25654000D01*
X70590742Y-25701171D01*
X70517916Y-25837418D01*
X70473071Y-25985255D01*
X70457928Y-26139000D01*
X70457928Y-26439000D01*
X70473071Y-26592745D01*
X70517916Y-26740582D01*
X70590742Y-26876829D01*
X70629454Y-26924000D01*
X70590742Y-26971171D01*
X70517916Y-27107418D01*
X70473071Y-27255255D01*
X70457928Y-27409000D01*
X70457928Y-27709000D01*
X70473071Y-27862745D01*
X70517916Y-28010582D01*
X70590742Y-28146829D01*
X70629454Y-28194000D01*
X70590742Y-28241171D01*
X70517916Y-28377418D01*
X70473071Y-28525255D01*
X70457928Y-28679000D01*
X70457928Y-28979000D01*
X70473071Y-29132745D01*
X70517916Y-29280582D01*
X70590742Y-29416829D01*
X70688749Y-29536251D01*
X70808171Y-29634258D01*
X70944418Y-29707084D01*
X71092255Y-29751929D01*
X71246000Y-29767072D01*
X71757494Y-29767072D01*
X72093422Y-30103000D01*
X54534759Y-30103000D01*
X54395134Y-29932866D01*
X54169014Y-29747294D01*
X54114209Y-29718000D01*
X54121692Y-29714000D01*
X66017217Y-29714000D01*
X66142255Y-29751929D01*
X66296000Y-29767072D01*
X67946000Y-29767072D01*
X68099745Y-29751929D01*
X68247582Y-29707084D01*
X68383829Y-29634258D01*
X68503251Y-29536251D01*
X68601258Y-29416829D01*
X68674084Y-29280582D01*
X68718929Y-29132745D01*
X68734072Y-28979000D01*
X68734072Y-28679000D01*
X68718929Y-28525255D01*
X68674084Y-28377418D01*
X68601258Y-28241171D01*
X68562546Y-28194000D01*
X68601258Y-28146829D01*
X68674084Y-28010582D01*
X68718929Y-27862745D01*
X68734072Y-27709000D01*
X68734072Y-27409000D01*
X68718929Y-27255255D01*
X68674084Y-27107418D01*
X68602270Y-26973064D01*
X68626537Y-26943494D01*
X68685502Y-26833180D01*
X68721812Y-26713482D01*
X68734072Y-26589000D01*
X68731000Y-26574750D01*
X68572250Y-26416000D01*
X67248000Y-26416000D01*
X67248000Y-26436000D01*
X66994000Y-26436000D01*
X66994000Y-26416000D01*
X66974000Y-26416000D01*
X66974000Y-26162000D01*
X66994000Y-26162000D01*
X66994000Y-26142000D01*
X67248000Y-26142000D01*
X67248000Y-26162000D01*
X68572250Y-26162000D01*
X68731000Y-26003250D01*
X68734072Y-25989000D01*
X68721812Y-25864518D01*
X68685502Y-25744820D01*
X68626537Y-25634506D01*
X68602270Y-25604936D01*
X68674084Y-25470582D01*
X68718929Y-25322745D01*
X68734072Y-25169000D01*
X68734072Y-24869000D01*
X68718929Y-24715255D01*
X68674084Y-24567418D01*
X68601258Y-24431171D01*
X68503251Y-24311749D01*
X68383829Y-24213742D01*
X68247582Y-24140916D01*
X68099745Y-24096071D01*
X67946000Y-24080928D01*
X67434507Y-24080928D01*
X67133534Y-23779956D01*
X67119618Y-23763000D01*
X72075422Y-23763000D01*
X71757494Y-24080928D01*
M02*
