M48
; DRILL file {KiCad (5.1.2)-2} date 17/07/2019 15:59:11
; FORMAT={-:-/ absolute / inch / decimal}
; #@! TF.CreationDate,2019-07-17T15:59:11+03:00
; #@! TF.GenerationSoftware,Kicad,Pcbnew,(5.1.2)-2
; #@! TF.FileFunction,Plated,1,2,PTH
FMAT,2
INCH
T1C0.0157
T2C0.0394
T3C0.1181
%
G90
G05
T1
X2.4803Y-1.0827
T2
X3.05Y-0.8219
X3.05Y-0.9219
X3.05Y-1.0219
X3.05Y-1.1219
X3.05Y-1.2219
X3.05Y-1.3219
X3.05Y-1.4219
X2.1Y-0.82
X2.1Y-0.92
X2.1Y-1.02
X2.1Y-1.12
X2.1Y-1.22
X2.1Y-1.32
X2.1Y-1.42
T3
X1.8602Y-0.8858
X1.8602Y-1.3583
X3.9764Y-1.3878
X3.6024Y-1.3583
X3.9764Y-0.8563
X3.6024Y-0.8858
T0
M30
