G04 #@! TF.GenerationSoftware,KiCad,Pcbnew,(5.1.2)-2*
G04 #@! TF.CreationDate,2019-07-17T15:58:29+03:00*
G04 #@! TF.ProjectId,Sensor board,53656e73-6f72-4206-926f-6172642e6b69,rev?*
G04 #@! TF.SameCoordinates,Original*
G04 #@! TF.FileFunction,Copper,L2,Bot*
G04 #@! TF.FilePolarity,Positive*
%FSLAX46Y46*%
G04 Gerber Fmt 4.6, Leading zero omitted, Abs format (unit mm)*
G04 Created by KiCad (PCBNEW (5.1.2)-2) date 2019-07-17 15:58:29*
%MOMM*%
%LPD*%
G04 APERTURE LIST*
%ADD10C,0.150000*%
%ADD11C,4.000000*%
%ADD12O,1.700000X1.700000*%
%ADD13R,1.700000X1.700000*%
%ADD14C,0.800000*%
%ADD15C,0.500000*%
%ADD16C,0.254000*%
G04 APERTURE END LIST*
D10*
X72035714Y-34154761D02*
X71892857Y-34202380D01*
X71654761Y-34202380D01*
X71559523Y-34154761D01*
X71511904Y-34107142D01*
X71464285Y-34011904D01*
X71464285Y-33916666D01*
X71511904Y-33821428D01*
X71559523Y-33773809D01*
X71654761Y-33726190D01*
X71845238Y-33678571D01*
X71940476Y-33630952D01*
X71988095Y-33583333D01*
X72035714Y-33488095D01*
X72035714Y-33392857D01*
X71988095Y-33297619D01*
X71940476Y-33250000D01*
X71845238Y-33202380D01*
X71607142Y-33202380D01*
X71464285Y-33250000D01*
X70654761Y-34154761D02*
X70750000Y-34202380D01*
X70940476Y-34202380D01*
X71035714Y-34154761D01*
X71083333Y-34059523D01*
X71083333Y-33678571D01*
X71035714Y-33583333D01*
X70940476Y-33535714D01*
X70750000Y-33535714D01*
X70654761Y-33583333D01*
X70607142Y-33678571D01*
X70607142Y-33773809D01*
X71083333Y-33869047D01*
X70178571Y-33535714D02*
X70178571Y-34202380D01*
X70178571Y-33630952D02*
X70130952Y-33583333D01*
X70035714Y-33535714D01*
X69892857Y-33535714D01*
X69797619Y-33583333D01*
X69750000Y-33678571D01*
X69750000Y-34202380D01*
X69321428Y-34154761D02*
X69226190Y-34202380D01*
X69035714Y-34202380D01*
X68940476Y-34154761D01*
X68892857Y-34059523D01*
X68892857Y-34011904D01*
X68940476Y-33916666D01*
X69035714Y-33869047D01*
X69178571Y-33869047D01*
X69273809Y-33821428D01*
X69321428Y-33726190D01*
X69321428Y-33678571D01*
X69273809Y-33583333D01*
X69178571Y-33535714D01*
X69035714Y-33535714D01*
X68940476Y-33583333D01*
X68321428Y-34202380D02*
X68416666Y-34154761D01*
X68464285Y-34107142D01*
X68511904Y-34011904D01*
X68511904Y-33726190D01*
X68464285Y-33630952D01*
X68416666Y-33583333D01*
X68321428Y-33535714D01*
X68178571Y-33535714D01*
X68083333Y-33583333D01*
X68035714Y-33630952D01*
X67988095Y-33726190D01*
X67988095Y-34011904D01*
X68035714Y-34107142D01*
X68083333Y-34154761D01*
X68178571Y-34202380D01*
X68321428Y-34202380D01*
X67559523Y-34202380D02*
X67559523Y-33535714D01*
X67559523Y-33726190D02*
X67511904Y-33630952D01*
X67464285Y-33583333D01*
X67369047Y-33535714D01*
X67273809Y-33535714D01*
X66178571Y-34202380D02*
X66178571Y-33202380D01*
X66178571Y-33583333D02*
X66083333Y-33535714D01*
X65892857Y-33535714D01*
X65797619Y-33583333D01*
X65750000Y-33630952D01*
X65702380Y-33726190D01*
X65702380Y-34011904D01*
X65750000Y-34107142D01*
X65797619Y-34154761D01*
X65892857Y-34202380D01*
X66083333Y-34202380D01*
X66178571Y-34154761D01*
X65130952Y-34202380D02*
X65226190Y-34154761D01*
X65273809Y-34107142D01*
X65321428Y-34011904D01*
X65321428Y-33726190D01*
X65273809Y-33630952D01*
X65226190Y-33583333D01*
X65130952Y-33535714D01*
X64988095Y-33535714D01*
X64892857Y-33583333D01*
X64845238Y-33630952D01*
X64797619Y-33726190D01*
X64797619Y-34011904D01*
X64845238Y-34107142D01*
X64892857Y-34154761D01*
X64988095Y-34202380D01*
X65130952Y-34202380D01*
X63940476Y-34202380D02*
X63940476Y-33678571D01*
X63988095Y-33583333D01*
X64083333Y-33535714D01*
X64273809Y-33535714D01*
X64369047Y-33583333D01*
X63940476Y-34154761D02*
X64035714Y-34202380D01*
X64273809Y-34202380D01*
X64369047Y-34154761D01*
X64416666Y-34059523D01*
X64416666Y-33964285D01*
X64369047Y-33869047D01*
X64273809Y-33821428D01*
X64035714Y-33821428D01*
X63940476Y-33773809D01*
X63464285Y-34202380D02*
X63464285Y-33535714D01*
X63464285Y-33726190D02*
X63416666Y-33630952D01*
X63369047Y-33583333D01*
X63273809Y-33535714D01*
X63178571Y-33535714D01*
X62416666Y-34202380D02*
X62416666Y-33202380D01*
X62416666Y-34154761D02*
X62511904Y-34202380D01*
X62702380Y-34202380D01*
X62797619Y-34154761D01*
X62845238Y-34107142D01*
X62892857Y-34011904D01*
X62892857Y-33726190D01*
X62845238Y-33630952D01*
X62797619Y-33583333D01*
X62702380Y-33535714D01*
X62511904Y-33535714D01*
X62416666Y-33583333D01*
X61273809Y-33535714D02*
X61035714Y-34202380D01*
X60797619Y-33535714D01*
X60226190Y-33202380D02*
X60130952Y-33202380D01*
X60035714Y-33250000D01*
X59988095Y-33297619D01*
X59940476Y-33392857D01*
X59892857Y-33583333D01*
X59892857Y-33821428D01*
X59940476Y-34011904D01*
X59988095Y-34107142D01*
X60035714Y-34154761D01*
X60130952Y-34202380D01*
X60226190Y-34202380D01*
X60321428Y-34154761D01*
X60369047Y-34107142D01*
X60416666Y-34011904D01*
X60464285Y-33821428D01*
X60464285Y-33583333D01*
X60416666Y-33392857D01*
X60369047Y-33297619D01*
X60321428Y-33250000D01*
X60226190Y-33202380D01*
X59464285Y-34107142D02*
X59416666Y-34154761D01*
X59464285Y-34202380D01*
X59511904Y-34154761D01*
X59464285Y-34107142D01*
X59464285Y-34202380D01*
X58464285Y-34202380D02*
X59035714Y-34202380D01*
X58750000Y-34202380D02*
X58750000Y-33202380D01*
X58845238Y-33345238D01*
X58940476Y-33440476D01*
X59035714Y-33488095D01*
X70595238Y-32452380D02*
X70595238Y-31452380D01*
X70357142Y-31452380D01*
X70214285Y-31500000D01*
X70119047Y-31595238D01*
X70071428Y-31690476D01*
X70023809Y-31880952D01*
X70023809Y-32023809D01*
X70071428Y-32214285D01*
X70119047Y-32309523D01*
X70214285Y-32404761D01*
X70357142Y-32452380D01*
X70595238Y-32452380D01*
X69166666Y-32452380D02*
X69166666Y-31928571D01*
X69214285Y-31833333D01*
X69309523Y-31785714D01*
X69500000Y-31785714D01*
X69595238Y-31833333D01*
X69166666Y-32404761D02*
X69261904Y-32452380D01*
X69500000Y-32452380D01*
X69595238Y-32404761D01*
X69642857Y-32309523D01*
X69642857Y-32214285D01*
X69595238Y-32119047D01*
X69500000Y-32071428D01*
X69261904Y-32071428D01*
X69166666Y-32023809D01*
X68690476Y-31785714D02*
X68690476Y-32452380D01*
X68690476Y-31880952D02*
X68642857Y-31833333D01*
X68547619Y-31785714D01*
X68404761Y-31785714D01*
X68309523Y-31833333D01*
X68261904Y-31928571D01*
X68261904Y-32452380D01*
X67785714Y-32452380D02*
X67785714Y-31785714D01*
X67785714Y-31452380D02*
X67833333Y-31500000D01*
X67785714Y-31547619D01*
X67738095Y-31500000D01*
X67785714Y-31452380D01*
X67785714Y-31547619D01*
X66928571Y-32404761D02*
X67023809Y-32452380D01*
X67214285Y-32452380D01*
X67309523Y-32404761D01*
X67357142Y-32309523D01*
X67357142Y-31928571D01*
X67309523Y-31833333D01*
X67214285Y-31785714D01*
X67023809Y-31785714D01*
X66928571Y-31833333D01*
X66880952Y-31928571D01*
X66880952Y-32023809D01*
X67357142Y-32119047D01*
X66309523Y-32452380D02*
X66404761Y-32404761D01*
X66452380Y-32309523D01*
X66452380Y-31452380D01*
X65976190Y-32404761D02*
X65880952Y-32452380D01*
X65690476Y-32452380D01*
X65595238Y-32404761D01*
X65547619Y-32309523D01*
X65547619Y-32261904D01*
X65595238Y-32166666D01*
X65690476Y-32119047D01*
X65833333Y-32119047D01*
X65928571Y-32071428D01*
X65976190Y-31976190D01*
X65976190Y-31928571D01*
X65928571Y-31833333D01*
X65833333Y-31785714D01*
X65690476Y-31785714D01*
X65595238Y-31833333D01*
X64023809Y-31928571D02*
X64357142Y-31928571D01*
X64357142Y-32452380D02*
X64357142Y-31452380D01*
X63880952Y-31452380D01*
X63500000Y-32452380D02*
X63500000Y-31785714D01*
X63500000Y-31452380D02*
X63547619Y-31500000D01*
X63500000Y-31547619D01*
X63452380Y-31500000D01*
X63500000Y-31452380D01*
X63500000Y-31547619D01*
X63071428Y-32404761D02*
X62976190Y-32452380D01*
X62785714Y-32452380D01*
X62690476Y-32404761D01*
X62642857Y-32309523D01*
X62642857Y-32261904D01*
X62690476Y-32166666D01*
X62785714Y-32119047D01*
X62928571Y-32119047D01*
X63023809Y-32071428D01*
X63071428Y-31976190D01*
X63071428Y-31928571D01*
X63023809Y-31833333D01*
X62928571Y-31785714D01*
X62785714Y-31785714D01*
X62690476Y-31833333D01*
X63071428Y-31404761D02*
X62880952Y-31547619D01*
X62690476Y-31404761D01*
X61833333Y-32404761D02*
X61928571Y-32452380D01*
X62119047Y-32452380D01*
X62214285Y-32404761D01*
X62261904Y-32309523D01*
X62261904Y-31928571D01*
X62214285Y-31833333D01*
X62119047Y-31785714D01*
X61928571Y-31785714D01*
X61833333Y-31833333D01*
X61785714Y-31928571D01*
X61785714Y-32023809D01*
X62261904Y-32119047D01*
X61357142Y-32452380D02*
X61357142Y-31785714D01*
X61357142Y-31976190D02*
X61309523Y-31880952D01*
X61261904Y-31833333D01*
X61166666Y-31785714D01*
X61071428Y-31785714D01*
X60785714Y-32404761D02*
X60690476Y-32452380D01*
X60500000Y-32452380D01*
X60404761Y-32404761D01*
X60357142Y-32309523D01*
X60357142Y-32261904D01*
X60404761Y-32166666D01*
X60500000Y-32119047D01*
X60642857Y-32119047D01*
X60738095Y-32071428D01*
X60785714Y-31976190D01*
X60785714Y-31928571D01*
X60738095Y-31833333D01*
X60642857Y-31785714D01*
X60500000Y-31785714D01*
X60404761Y-31833333D01*
D11*
X91500000Y-34500000D03*
X91500000Y-22500000D03*
X101000000Y-21750000D03*
X101000000Y-35250000D03*
X47250000Y-34500000D03*
X47250000Y-22500000D03*
D12*
X77470000Y-36115001D03*
X77470000Y-33575001D03*
X77470000Y-31035001D03*
X77470000Y-28495001D03*
X77470000Y-25955001D03*
X77470000Y-23415001D03*
D13*
X77470000Y-20875001D03*
D12*
X53340000Y-36068000D03*
X53340000Y-33528000D03*
X53340000Y-30988000D03*
X53340000Y-28448000D03*
X53340000Y-25908000D03*
X53340000Y-23368000D03*
D13*
X53340000Y-20828000D03*
D14*
X63000000Y-27500000D03*
D15*
X77422999Y-28448000D02*
X77470000Y-28495001D01*
X53340000Y-28448000D02*
X77422999Y-28448000D01*
X60012000Y-27500000D02*
X53340000Y-20828000D01*
X63000000Y-27500000D02*
X60012000Y-27500000D01*
D16*
G36*
X103873000Y-38373000D02*
G01*
X44127000Y-38373000D01*
X44127000Y-34240475D01*
X44615000Y-34240475D01*
X44615000Y-34759525D01*
X44716261Y-35268601D01*
X44914893Y-35748141D01*
X45203262Y-36179715D01*
X45570285Y-36546738D01*
X46001859Y-36835107D01*
X46481399Y-37033739D01*
X46990475Y-37135000D01*
X47509525Y-37135000D01*
X48018601Y-37033739D01*
X48498141Y-36835107D01*
X48929715Y-36546738D01*
X49296738Y-36179715D01*
X49585107Y-35748141D01*
X49783739Y-35268601D01*
X49885000Y-34759525D01*
X49885000Y-34240475D01*
X49783739Y-33731399D01*
X49585107Y-33251859D01*
X49296738Y-32820285D01*
X48929715Y-32453262D01*
X48498141Y-32164893D01*
X48018601Y-31966261D01*
X47509525Y-31865000D01*
X46990475Y-31865000D01*
X46481399Y-31966261D01*
X46001859Y-32164893D01*
X45570285Y-32453262D01*
X45203262Y-32820285D01*
X44914893Y-33251859D01*
X44716261Y-33731399D01*
X44615000Y-34240475D01*
X44127000Y-34240475D01*
X44127000Y-22240475D01*
X44615000Y-22240475D01*
X44615000Y-22759525D01*
X44716261Y-23268601D01*
X44914893Y-23748141D01*
X45203262Y-24179715D01*
X45570285Y-24546738D01*
X46001859Y-24835107D01*
X46481399Y-25033739D01*
X46990475Y-25135000D01*
X47509525Y-25135000D01*
X48018601Y-25033739D01*
X48498141Y-24835107D01*
X48929715Y-24546738D01*
X49296738Y-24179715D01*
X49585107Y-23748141D01*
X49742566Y-23368000D01*
X51847815Y-23368000D01*
X51876487Y-23659111D01*
X51961401Y-23939034D01*
X52099294Y-24197014D01*
X52284866Y-24423134D01*
X52510986Y-24608706D01*
X52565791Y-24638000D01*
X52510986Y-24667294D01*
X52284866Y-24852866D01*
X52099294Y-25078986D01*
X51961401Y-25336966D01*
X51876487Y-25616889D01*
X51847815Y-25908000D01*
X51876487Y-26199111D01*
X51961401Y-26479034D01*
X52099294Y-26737014D01*
X52284866Y-26963134D01*
X52510986Y-27148706D01*
X52565791Y-27178000D01*
X52510986Y-27207294D01*
X52284866Y-27392866D01*
X52099294Y-27618986D01*
X51961401Y-27876966D01*
X51876487Y-28156889D01*
X51847815Y-28448000D01*
X51876487Y-28739111D01*
X51961401Y-29019034D01*
X52099294Y-29277014D01*
X52284866Y-29503134D01*
X52510986Y-29688706D01*
X52565791Y-29718000D01*
X52510986Y-29747294D01*
X52284866Y-29932866D01*
X52099294Y-30158986D01*
X51961401Y-30416966D01*
X51876487Y-30696889D01*
X51847815Y-30988000D01*
X51876487Y-31279111D01*
X51961401Y-31559034D01*
X52099294Y-31817014D01*
X52284866Y-32043134D01*
X52510986Y-32228706D01*
X52565791Y-32258000D01*
X52510986Y-32287294D01*
X52284866Y-32472866D01*
X52099294Y-32698986D01*
X51961401Y-32956966D01*
X51876487Y-33236889D01*
X51847815Y-33528000D01*
X51876487Y-33819111D01*
X51961401Y-34099034D01*
X52099294Y-34357014D01*
X52284866Y-34583134D01*
X52510986Y-34768706D01*
X52565791Y-34798000D01*
X52510986Y-34827294D01*
X52284866Y-35012866D01*
X52099294Y-35238986D01*
X51961401Y-35496966D01*
X51876487Y-35776889D01*
X51847815Y-36068000D01*
X51876487Y-36359111D01*
X51961401Y-36639034D01*
X52099294Y-36897014D01*
X52284866Y-37123134D01*
X52510986Y-37308706D01*
X52768966Y-37446599D01*
X53048889Y-37531513D01*
X53267050Y-37553000D01*
X53412950Y-37553000D01*
X53631111Y-37531513D01*
X53911034Y-37446599D01*
X54169014Y-37308706D01*
X54395134Y-37123134D01*
X54580706Y-36897014D01*
X54718599Y-36639034D01*
X54803513Y-36359111D01*
X54832185Y-36068000D01*
X54803513Y-35776889D01*
X54718599Y-35496966D01*
X54580706Y-35238986D01*
X54395134Y-35012866D01*
X54169014Y-34827294D01*
X54114209Y-34798000D01*
X54169014Y-34768706D01*
X54395134Y-34583134D01*
X54580706Y-34357014D01*
X54718599Y-34099034D01*
X54803513Y-33819111D01*
X54832185Y-33528000D01*
X54803513Y-33236889D01*
X54718599Y-32956966D01*
X54580706Y-32698986D01*
X54395134Y-32472866D01*
X54254561Y-32357500D01*
X57563810Y-32357500D01*
X57563810Y-35277500D01*
X72936191Y-35277500D01*
X72936191Y-32357500D01*
X71543334Y-32357500D01*
X71543334Y-30607500D01*
X59456667Y-30607500D01*
X59456667Y-32357500D01*
X57563810Y-32357500D01*
X54254561Y-32357500D01*
X54169014Y-32287294D01*
X54114209Y-32258000D01*
X54169014Y-32228706D01*
X54395134Y-32043134D01*
X54580706Y-31817014D01*
X54718599Y-31559034D01*
X54803513Y-31279111D01*
X54832185Y-30988000D01*
X54803513Y-30696889D01*
X54718599Y-30416966D01*
X54580706Y-30158986D01*
X54395134Y-29932866D01*
X54169014Y-29747294D01*
X54114209Y-29718000D01*
X54169014Y-29688706D01*
X54395134Y-29503134D01*
X54534759Y-29333000D01*
X76236668Y-29333000D01*
X76414866Y-29550135D01*
X76640986Y-29735707D01*
X76695791Y-29765001D01*
X76640986Y-29794295D01*
X76414866Y-29979867D01*
X76229294Y-30205987D01*
X76091401Y-30463967D01*
X76006487Y-30743890D01*
X75977815Y-31035001D01*
X76006487Y-31326112D01*
X76091401Y-31606035D01*
X76229294Y-31864015D01*
X76414866Y-32090135D01*
X76640986Y-32275707D01*
X76695791Y-32305001D01*
X76640986Y-32334295D01*
X76414866Y-32519867D01*
X76229294Y-32745987D01*
X76091401Y-33003967D01*
X76006487Y-33283890D01*
X75977815Y-33575001D01*
X76006487Y-33866112D01*
X76091401Y-34146035D01*
X76229294Y-34404015D01*
X76414866Y-34630135D01*
X76640986Y-34815707D01*
X76695791Y-34845001D01*
X76640986Y-34874295D01*
X76414866Y-35059867D01*
X76229294Y-35285987D01*
X76091401Y-35543967D01*
X76006487Y-35823890D01*
X75977815Y-36115001D01*
X76006487Y-36406112D01*
X76091401Y-36686035D01*
X76229294Y-36944015D01*
X76414866Y-37170135D01*
X76640986Y-37355707D01*
X76898966Y-37493600D01*
X77178889Y-37578514D01*
X77397050Y-37600001D01*
X77542950Y-37600001D01*
X77761111Y-37578514D01*
X78041034Y-37493600D01*
X78299014Y-37355707D01*
X78525134Y-37170135D01*
X78710706Y-36944015D01*
X78848599Y-36686035D01*
X78933513Y-36406112D01*
X78962185Y-36115001D01*
X78933513Y-35823890D01*
X78848599Y-35543967D01*
X78710706Y-35285987D01*
X78525134Y-35059867D01*
X78299014Y-34874295D01*
X78244209Y-34845001D01*
X78299014Y-34815707D01*
X78525134Y-34630135D01*
X78710706Y-34404015D01*
X78798119Y-34240475D01*
X88865000Y-34240475D01*
X88865000Y-34759525D01*
X88966261Y-35268601D01*
X89164893Y-35748141D01*
X89453262Y-36179715D01*
X89820285Y-36546738D01*
X90251859Y-36835107D01*
X90731399Y-37033739D01*
X91240475Y-37135000D01*
X91759525Y-37135000D01*
X92268601Y-37033739D01*
X92748141Y-36835107D01*
X93179715Y-36546738D01*
X93546738Y-36179715D01*
X93835107Y-35748141D01*
X94033739Y-35268601D01*
X94089061Y-34990475D01*
X98365000Y-34990475D01*
X98365000Y-35509525D01*
X98466261Y-36018601D01*
X98664893Y-36498141D01*
X98953262Y-36929715D01*
X99320285Y-37296738D01*
X99751859Y-37585107D01*
X100231399Y-37783739D01*
X100740475Y-37885000D01*
X101259525Y-37885000D01*
X101768601Y-37783739D01*
X102248141Y-37585107D01*
X102679715Y-37296738D01*
X103046738Y-36929715D01*
X103335107Y-36498141D01*
X103533739Y-36018601D01*
X103635000Y-35509525D01*
X103635000Y-34990475D01*
X103533739Y-34481399D01*
X103335107Y-34001859D01*
X103046738Y-33570285D01*
X102679715Y-33203262D01*
X102248141Y-32914893D01*
X101768601Y-32716261D01*
X101259525Y-32615000D01*
X100740475Y-32615000D01*
X100231399Y-32716261D01*
X99751859Y-32914893D01*
X99320285Y-33203262D01*
X98953262Y-33570285D01*
X98664893Y-34001859D01*
X98466261Y-34481399D01*
X98365000Y-34990475D01*
X94089061Y-34990475D01*
X94135000Y-34759525D01*
X94135000Y-34240475D01*
X94033739Y-33731399D01*
X93835107Y-33251859D01*
X93546738Y-32820285D01*
X93179715Y-32453262D01*
X92748141Y-32164893D01*
X92268601Y-31966261D01*
X91759525Y-31865000D01*
X91240475Y-31865000D01*
X90731399Y-31966261D01*
X90251859Y-32164893D01*
X89820285Y-32453262D01*
X89453262Y-32820285D01*
X89164893Y-33251859D01*
X88966261Y-33731399D01*
X88865000Y-34240475D01*
X78798119Y-34240475D01*
X78848599Y-34146035D01*
X78933513Y-33866112D01*
X78962185Y-33575001D01*
X78933513Y-33283890D01*
X78848599Y-33003967D01*
X78710706Y-32745987D01*
X78525134Y-32519867D01*
X78299014Y-32334295D01*
X78244209Y-32305001D01*
X78299014Y-32275707D01*
X78525134Y-32090135D01*
X78710706Y-31864015D01*
X78848599Y-31606035D01*
X78933513Y-31326112D01*
X78962185Y-31035001D01*
X78933513Y-30743890D01*
X78848599Y-30463967D01*
X78710706Y-30205987D01*
X78525134Y-29979867D01*
X78299014Y-29794295D01*
X78244209Y-29765001D01*
X78299014Y-29735707D01*
X78525134Y-29550135D01*
X78710706Y-29324015D01*
X78848599Y-29066035D01*
X78933513Y-28786112D01*
X78962185Y-28495001D01*
X78933513Y-28203890D01*
X78848599Y-27923967D01*
X78710706Y-27665987D01*
X78525134Y-27439867D01*
X78299014Y-27254295D01*
X78244209Y-27225001D01*
X78299014Y-27195707D01*
X78525134Y-27010135D01*
X78710706Y-26784015D01*
X78848599Y-26526035D01*
X78933513Y-26246112D01*
X78962185Y-25955001D01*
X78933513Y-25663890D01*
X78848599Y-25383967D01*
X78710706Y-25125987D01*
X78525134Y-24899867D01*
X78299014Y-24714295D01*
X78244209Y-24685001D01*
X78299014Y-24655707D01*
X78525134Y-24470135D01*
X78710706Y-24244015D01*
X78848599Y-23986035D01*
X78933513Y-23706112D01*
X78962185Y-23415001D01*
X78933513Y-23123890D01*
X78848599Y-22843967D01*
X78710706Y-22585987D01*
X78525134Y-22359867D01*
X78495313Y-22335394D01*
X78564180Y-22314503D01*
X78674494Y-22255538D01*
X78692848Y-22240475D01*
X88865000Y-22240475D01*
X88865000Y-22759525D01*
X88966261Y-23268601D01*
X89164893Y-23748141D01*
X89453262Y-24179715D01*
X89820285Y-24546738D01*
X90251859Y-24835107D01*
X90731399Y-25033739D01*
X91240475Y-25135000D01*
X91759525Y-25135000D01*
X92268601Y-25033739D01*
X92748141Y-24835107D01*
X93179715Y-24546738D01*
X93546738Y-24179715D01*
X93835107Y-23748141D01*
X94033739Y-23268601D01*
X94135000Y-22759525D01*
X94135000Y-22240475D01*
X94033739Y-21731399D01*
X93933945Y-21490475D01*
X98365000Y-21490475D01*
X98365000Y-22009525D01*
X98466261Y-22518601D01*
X98664893Y-22998141D01*
X98953262Y-23429715D01*
X99320285Y-23796738D01*
X99751859Y-24085107D01*
X100231399Y-24283739D01*
X100740475Y-24385000D01*
X101259525Y-24385000D01*
X101768601Y-24283739D01*
X102248141Y-24085107D01*
X102679715Y-23796738D01*
X103046738Y-23429715D01*
X103335107Y-22998141D01*
X103533739Y-22518601D01*
X103635000Y-22009525D01*
X103635000Y-21490475D01*
X103533739Y-20981399D01*
X103335107Y-20501859D01*
X103046738Y-20070285D01*
X102679715Y-19703262D01*
X102248141Y-19414893D01*
X101768601Y-19216261D01*
X101259525Y-19115000D01*
X100740475Y-19115000D01*
X100231399Y-19216261D01*
X99751859Y-19414893D01*
X99320285Y-19703262D01*
X98953262Y-20070285D01*
X98664893Y-20501859D01*
X98466261Y-20981399D01*
X98365000Y-21490475D01*
X93933945Y-21490475D01*
X93835107Y-21251859D01*
X93546738Y-20820285D01*
X93179715Y-20453262D01*
X92748141Y-20164893D01*
X92268601Y-19966261D01*
X91759525Y-19865000D01*
X91240475Y-19865000D01*
X90731399Y-19966261D01*
X90251859Y-20164893D01*
X89820285Y-20453262D01*
X89453262Y-20820285D01*
X89164893Y-21251859D01*
X88966261Y-21731399D01*
X88865000Y-22240475D01*
X78692848Y-22240475D01*
X78771185Y-22176186D01*
X78850537Y-22079495D01*
X78909502Y-21969181D01*
X78945812Y-21849483D01*
X78958072Y-21725001D01*
X78958072Y-20025001D01*
X78945812Y-19900519D01*
X78909502Y-19780821D01*
X78850537Y-19670507D01*
X78771185Y-19573816D01*
X78674494Y-19494464D01*
X78564180Y-19435499D01*
X78444482Y-19399189D01*
X78320000Y-19386929D01*
X76620000Y-19386929D01*
X76495518Y-19399189D01*
X76375820Y-19435499D01*
X76265506Y-19494464D01*
X76168815Y-19573816D01*
X76089463Y-19670507D01*
X76030498Y-19780821D01*
X75994188Y-19900519D01*
X75981928Y-20025001D01*
X75981928Y-21725001D01*
X75994188Y-21849483D01*
X76030498Y-21969181D01*
X76089463Y-22079495D01*
X76168815Y-22176186D01*
X76265506Y-22255538D01*
X76375820Y-22314503D01*
X76444687Y-22335394D01*
X76414866Y-22359867D01*
X76229294Y-22585987D01*
X76091401Y-22843967D01*
X76006487Y-23123890D01*
X75977815Y-23415001D01*
X76006487Y-23706112D01*
X76091401Y-23986035D01*
X76229294Y-24244015D01*
X76414866Y-24470135D01*
X76640986Y-24655707D01*
X76695791Y-24685001D01*
X76640986Y-24714295D01*
X76414866Y-24899867D01*
X76229294Y-25125987D01*
X76091401Y-25383967D01*
X76006487Y-25663890D01*
X75977815Y-25955001D01*
X76006487Y-26246112D01*
X76091401Y-26526035D01*
X76229294Y-26784015D01*
X76414866Y-27010135D01*
X76640986Y-27195707D01*
X76695791Y-27225001D01*
X76640986Y-27254295D01*
X76414866Y-27439867D01*
X76313813Y-27563000D01*
X64035000Y-27563000D01*
X64035000Y-27398061D01*
X63995226Y-27198102D01*
X63917205Y-27009744D01*
X63803937Y-26840226D01*
X63659774Y-26696063D01*
X63490256Y-26582795D01*
X63301898Y-26504774D01*
X63101939Y-26465000D01*
X62898061Y-26465000D01*
X62698102Y-26504774D01*
X62509744Y-26582795D01*
X62461546Y-26615000D01*
X60378579Y-26615000D01*
X54828072Y-21064494D01*
X54828072Y-19978000D01*
X54815812Y-19853518D01*
X54779502Y-19733820D01*
X54720537Y-19623506D01*
X54641185Y-19526815D01*
X54544494Y-19447463D01*
X54434180Y-19388498D01*
X54314482Y-19352188D01*
X54190000Y-19339928D01*
X52490000Y-19339928D01*
X52365518Y-19352188D01*
X52245820Y-19388498D01*
X52135506Y-19447463D01*
X52038815Y-19526815D01*
X51959463Y-19623506D01*
X51900498Y-19733820D01*
X51864188Y-19853518D01*
X51851928Y-19978000D01*
X51851928Y-21678000D01*
X51864188Y-21802482D01*
X51900498Y-21922180D01*
X51959463Y-22032494D01*
X52038815Y-22129185D01*
X52135506Y-22208537D01*
X52245820Y-22267502D01*
X52314687Y-22288393D01*
X52284866Y-22312866D01*
X52099294Y-22538986D01*
X51961401Y-22796966D01*
X51876487Y-23076889D01*
X51847815Y-23368000D01*
X49742566Y-23368000D01*
X49783739Y-23268601D01*
X49885000Y-22759525D01*
X49885000Y-22240475D01*
X49783739Y-21731399D01*
X49585107Y-21251859D01*
X49296738Y-20820285D01*
X48929715Y-20453262D01*
X48498141Y-20164893D01*
X48018601Y-19966261D01*
X47509525Y-19865000D01*
X46990475Y-19865000D01*
X46481399Y-19966261D01*
X46001859Y-20164893D01*
X45570285Y-20453262D01*
X45203262Y-20820285D01*
X44914893Y-21251859D01*
X44716261Y-21731399D01*
X44615000Y-22240475D01*
X44127000Y-22240475D01*
X44127000Y-18627000D01*
X103873000Y-18627000D01*
X103873000Y-38373000D01*
X103873000Y-38373000D01*
G37*
X103873000Y-38373000D02*
X44127000Y-38373000D01*
X44127000Y-34240475D01*
X44615000Y-34240475D01*
X44615000Y-34759525D01*
X44716261Y-35268601D01*
X44914893Y-35748141D01*
X45203262Y-36179715D01*
X45570285Y-36546738D01*
X46001859Y-36835107D01*
X46481399Y-37033739D01*
X46990475Y-37135000D01*
X47509525Y-37135000D01*
X48018601Y-37033739D01*
X48498141Y-36835107D01*
X48929715Y-36546738D01*
X49296738Y-36179715D01*
X49585107Y-35748141D01*
X49783739Y-35268601D01*
X49885000Y-34759525D01*
X49885000Y-34240475D01*
X49783739Y-33731399D01*
X49585107Y-33251859D01*
X49296738Y-32820285D01*
X48929715Y-32453262D01*
X48498141Y-32164893D01*
X48018601Y-31966261D01*
X47509525Y-31865000D01*
X46990475Y-31865000D01*
X46481399Y-31966261D01*
X46001859Y-32164893D01*
X45570285Y-32453262D01*
X45203262Y-32820285D01*
X44914893Y-33251859D01*
X44716261Y-33731399D01*
X44615000Y-34240475D01*
X44127000Y-34240475D01*
X44127000Y-22240475D01*
X44615000Y-22240475D01*
X44615000Y-22759525D01*
X44716261Y-23268601D01*
X44914893Y-23748141D01*
X45203262Y-24179715D01*
X45570285Y-24546738D01*
X46001859Y-24835107D01*
X46481399Y-25033739D01*
X46990475Y-25135000D01*
X47509525Y-25135000D01*
X48018601Y-25033739D01*
X48498141Y-24835107D01*
X48929715Y-24546738D01*
X49296738Y-24179715D01*
X49585107Y-23748141D01*
X49742566Y-23368000D01*
X51847815Y-23368000D01*
X51876487Y-23659111D01*
X51961401Y-23939034D01*
X52099294Y-24197014D01*
X52284866Y-24423134D01*
X52510986Y-24608706D01*
X52565791Y-24638000D01*
X52510986Y-24667294D01*
X52284866Y-24852866D01*
X52099294Y-25078986D01*
X51961401Y-25336966D01*
X51876487Y-25616889D01*
X51847815Y-25908000D01*
X51876487Y-26199111D01*
X51961401Y-26479034D01*
X52099294Y-26737014D01*
X52284866Y-26963134D01*
X52510986Y-27148706D01*
X52565791Y-27178000D01*
X52510986Y-27207294D01*
X52284866Y-27392866D01*
X52099294Y-27618986D01*
X51961401Y-27876966D01*
X51876487Y-28156889D01*
X51847815Y-28448000D01*
X51876487Y-28739111D01*
X51961401Y-29019034D01*
X52099294Y-29277014D01*
X52284866Y-29503134D01*
X52510986Y-29688706D01*
X52565791Y-29718000D01*
X52510986Y-29747294D01*
X52284866Y-29932866D01*
X52099294Y-30158986D01*
X51961401Y-30416966D01*
X51876487Y-30696889D01*
X51847815Y-30988000D01*
X51876487Y-31279111D01*
X51961401Y-31559034D01*
X52099294Y-31817014D01*
X52284866Y-32043134D01*
X52510986Y-32228706D01*
X52565791Y-32258000D01*
X52510986Y-32287294D01*
X52284866Y-32472866D01*
X52099294Y-32698986D01*
X51961401Y-32956966D01*
X51876487Y-33236889D01*
X51847815Y-33528000D01*
X51876487Y-33819111D01*
X51961401Y-34099034D01*
X52099294Y-34357014D01*
X52284866Y-34583134D01*
X52510986Y-34768706D01*
X52565791Y-34798000D01*
X52510986Y-34827294D01*
X52284866Y-35012866D01*
X52099294Y-35238986D01*
X51961401Y-35496966D01*
X51876487Y-35776889D01*
X51847815Y-36068000D01*
X51876487Y-36359111D01*
X51961401Y-36639034D01*
X52099294Y-36897014D01*
X52284866Y-37123134D01*
X52510986Y-37308706D01*
X52768966Y-37446599D01*
X53048889Y-37531513D01*
X53267050Y-37553000D01*
X53412950Y-37553000D01*
X53631111Y-37531513D01*
X53911034Y-37446599D01*
X54169014Y-37308706D01*
X54395134Y-37123134D01*
X54580706Y-36897014D01*
X54718599Y-36639034D01*
X54803513Y-36359111D01*
X54832185Y-36068000D01*
X54803513Y-35776889D01*
X54718599Y-35496966D01*
X54580706Y-35238986D01*
X54395134Y-35012866D01*
X54169014Y-34827294D01*
X54114209Y-34798000D01*
X54169014Y-34768706D01*
X54395134Y-34583134D01*
X54580706Y-34357014D01*
X54718599Y-34099034D01*
X54803513Y-33819111D01*
X54832185Y-33528000D01*
X54803513Y-33236889D01*
X54718599Y-32956966D01*
X54580706Y-32698986D01*
X54395134Y-32472866D01*
X54254561Y-32357500D01*
X57563810Y-32357500D01*
X57563810Y-35277500D01*
X72936191Y-35277500D01*
X72936191Y-32357500D01*
X71543334Y-32357500D01*
X71543334Y-30607500D01*
X59456667Y-30607500D01*
X59456667Y-32357500D01*
X57563810Y-32357500D01*
X54254561Y-32357500D01*
X54169014Y-32287294D01*
X54114209Y-32258000D01*
X54169014Y-32228706D01*
X54395134Y-32043134D01*
X54580706Y-31817014D01*
X54718599Y-31559034D01*
X54803513Y-31279111D01*
X54832185Y-30988000D01*
X54803513Y-30696889D01*
X54718599Y-30416966D01*
X54580706Y-30158986D01*
X54395134Y-29932866D01*
X54169014Y-29747294D01*
X54114209Y-29718000D01*
X54169014Y-29688706D01*
X54395134Y-29503134D01*
X54534759Y-29333000D01*
X76236668Y-29333000D01*
X76414866Y-29550135D01*
X76640986Y-29735707D01*
X76695791Y-29765001D01*
X76640986Y-29794295D01*
X76414866Y-29979867D01*
X76229294Y-30205987D01*
X76091401Y-30463967D01*
X76006487Y-30743890D01*
X75977815Y-31035001D01*
X76006487Y-31326112D01*
X76091401Y-31606035D01*
X76229294Y-31864015D01*
X76414866Y-32090135D01*
X76640986Y-32275707D01*
X76695791Y-32305001D01*
X76640986Y-32334295D01*
X76414866Y-32519867D01*
X76229294Y-32745987D01*
X76091401Y-33003967D01*
X76006487Y-33283890D01*
X75977815Y-33575001D01*
X76006487Y-33866112D01*
X76091401Y-34146035D01*
X76229294Y-34404015D01*
X76414866Y-34630135D01*
X76640986Y-34815707D01*
X76695791Y-34845001D01*
X76640986Y-34874295D01*
X76414866Y-35059867D01*
X76229294Y-35285987D01*
X76091401Y-35543967D01*
X76006487Y-35823890D01*
X75977815Y-36115001D01*
X76006487Y-36406112D01*
X76091401Y-36686035D01*
X76229294Y-36944015D01*
X76414866Y-37170135D01*
X76640986Y-37355707D01*
X76898966Y-37493600D01*
X77178889Y-37578514D01*
X77397050Y-37600001D01*
X77542950Y-37600001D01*
X77761111Y-37578514D01*
X78041034Y-37493600D01*
X78299014Y-37355707D01*
X78525134Y-37170135D01*
X78710706Y-36944015D01*
X78848599Y-36686035D01*
X78933513Y-36406112D01*
X78962185Y-36115001D01*
X78933513Y-35823890D01*
X78848599Y-35543967D01*
X78710706Y-35285987D01*
X78525134Y-35059867D01*
X78299014Y-34874295D01*
X78244209Y-34845001D01*
X78299014Y-34815707D01*
X78525134Y-34630135D01*
X78710706Y-34404015D01*
X78798119Y-34240475D01*
X88865000Y-34240475D01*
X88865000Y-34759525D01*
X88966261Y-35268601D01*
X89164893Y-35748141D01*
X89453262Y-36179715D01*
X89820285Y-36546738D01*
X90251859Y-36835107D01*
X90731399Y-37033739D01*
X91240475Y-37135000D01*
X91759525Y-37135000D01*
X92268601Y-37033739D01*
X92748141Y-36835107D01*
X93179715Y-36546738D01*
X93546738Y-36179715D01*
X93835107Y-35748141D01*
X94033739Y-35268601D01*
X94089061Y-34990475D01*
X98365000Y-34990475D01*
X98365000Y-35509525D01*
X98466261Y-36018601D01*
X98664893Y-36498141D01*
X98953262Y-36929715D01*
X99320285Y-37296738D01*
X99751859Y-37585107D01*
X100231399Y-37783739D01*
X100740475Y-37885000D01*
X101259525Y-37885000D01*
X101768601Y-37783739D01*
X102248141Y-37585107D01*
X102679715Y-37296738D01*
X103046738Y-36929715D01*
X103335107Y-36498141D01*
X103533739Y-36018601D01*
X103635000Y-35509525D01*
X103635000Y-34990475D01*
X103533739Y-34481399D01*
X103335107Y-34001859D01*
X103046738Y-33570285D01*
X102679715Y-33203262D01*
X102248141Y-32914893D01*
X101768601Y-32716261D01*
X101259525Y-32615000D01*
X100740475Y-32615000D01*
X100231399Y-32716261D01*
X99751859Y-32914893D01*
X99320285Y-33203262D01*
X98953262Y-33570285D01*
X98664893Y-34001859D01*
X98466261Y-34481399D01*
X98365000Y-34990475D01*
X94089061Y-34990475D01*
X94135000Y-34759525D01*
X94135000Y-34240475D01*
X94033739Y-33731399D01*
X93835107Y-33251859D01*
X93546738Y-32820285D01*
X93179715Y-32453262D01*
X92748141Y-32164893D01*
X92268601Y-31966261D01*
X91759525Y-31865000D01*
X91240475Y-31865000D01*
X90731399Y-31966261D01*
X90251859Y-32164893D01*
X89820285Y-32453262D01*
X89453262Y-32820285D01*
X89164893Y-33251859D01*
X88966261Y-33731399D01*
X88865000Y-34240475D01*
X78798119Y-34240475D01*
X78848599Y-34146035D01*
X78933513Y-33866112D01*
X78962185Y-33575001D01*
X78933513Y-33283890D01*
X78848599Y-33003967D01*
X78710706Y-32745987D01*
X78525134Y-32519867D01*
X78299014Y-32334295D01*
X78244209Y-32305001D01*
X78299014Y-32275707D01*
X78525134Y-32090135D01*
X78710706Y-31864015D01*
X78848599Y-31606035D01*
X78933513Y-31326112D01*
X78962185Y-31035001D01*
X78933513Y-30743890D01*
X78848599Y-30463967D01*
X78710706Y-30205987D01*
X78525134Y-29979867D01*
X78299014Y-29794295D01*
X78244209Y-29765001D01*
X78299014Y-29735707D01*
X78525134Y-29550135D01*
X78710706Y-29324015D01*
X78848599Y-29066035D01*
X78933513Y-28786112D01*
X78962185Y-28495001D01*
X78933513Y-28203890D01*
X78848599Y-27923967D01*
X78710706Y-27665987D01*
X78525134Y-27439867D01*
X78299014Y-27254295D01*
X78244209Y-27225001D01*
X78299014Y-27195707D01*
X78525134Y-27010135D01*
X78710706Y-26784015D01*
X78848599Y-26526035D01*
X78933513Y-26246112D01*
X78962185Y-25955001D01*
X78933513Y-25663890D01*
X78848599Y-25383967D01*
X78710706Y-25125987D01*
X78525134Y-24899867D01*
X78299014Y-24714295D01*
X78244209Y-24685001D01*
X78299014Y-24655707D01*
X78525134Y-24470135D01*
X78710706Y-24244015D01*
X78848599Y-23986035D01*
X78933513Y-23706112D01*
X78962185Y-23415001D01*
X78933513Y-23123890D01*
X78848599Y-22843967D01*
X78710706Y-22585987D01*
X78525134Y-22359867D01*
X78495313Y-22335394D01*
X78564180Y-22314503D01*
X78674494Y-22255538D01*
X78692848Y-22240475D01*
X88865000Y-22240475D01*
X88865000Y-22759525D01*
X88966261Y-23268601D01*
X89164893Y-23748141D01*
X89453262Y-24179715D01*
X89820285Y-24546738D01*
X90251859Y-24835107D01*
X90731399Y-25033739D01*
X91240475Y-25135000D01*
X91759525Y-25135000D01*
X92268601Y-25033739D01*
X92748141Y-24835107D01*
X93179715Y-24546738D01*
X93546738Y-24179715D01*
X93835107Y-23748141D01*
X94033739Y-23268601D01*
X94135000Y-22759525D01*
X94135000Y-22240475D01*
X94033739Y-21731399D01*
X93933945Y-21490475D01*
X98365000Y-21490475D01*
X98365000Y-22009525D01*
X98466261Y-22518601D01*
X98664893Y-22998141D01*
X98953262Y-23429715D01*
X99320285Y-23796738D01*
X99751859Y-24085107D01*
X100231399Y-24283739D01*
X100740475Y-24385000D01*
X101259525Y-24385000D01*
X101768601Y-24283739D01*
X102248141Y-24085107D01*
X102679715Y-23796738D01*
X103046738Y-23429715D01*
X103335107Y-22998141D01*
X103533739Y-22518601D01*
X103635000Y-22009525D01*
X103635000Y-21490475D01*
X103533739Y-20981399D01*
X103335107Y-20501859D01*
X103046738Y-20070285D01*
X102679715Y-19703262D01*
X102248141Y-19414893D01*
X101768601Y-19216261D01*
X101259525Y-19115000D01*
X100740475Y-19115000D01*
X100231399Y-19216261D01*
X99751859Y-19414893D01*
X99320285Y-19703262D01*
X98953262Y-20070285D01*
X98664893Y-20501859D01*
X98466261Y-20981399D01*
X98365000Y-21490475D01*
X93933945Y-21490475D01*
X93835107Y-21251859D01*
X93546738Y-20820285D01*
X93179715Y-20453262D01*
X92748141Y-20164893D01*
X92268601Y-19966261D01*
X91759525Y-19865000D01*
X91240475Y-19865000D01*
X90731399Y-19966261D01*
X90251859Y-20164893D01*
X89820285Y-20453262D01*
X89453262Y-20820285D01*
X89164893Y-21251859D01*
X88966261Y-21731399D01*
X88865000Y-22240475D01*
X78692848Y-22240475D01*
X78771185Y-22176186D01*
X78850537Y-22079495D01*
X78909502Y-21969181D01*
X78945812Y-21849483D01*
X78958072Y-21725001D01*
X78958072Y-20025001D01*
X78945812Y-19900519D01*
X78909502Y-19780821D01*
X78850537Y-19670507D01*
X78771185Y-19573816D01*
X78674494Y-19494464D01*
X78564180Y-19435499D01*
X78444482Y-19399189D01*
X78320000Y-19386929D01*
X76620000Y-19386929D01*
X76495518Y-19399189D01*
X76375820Y-19435499D01*
X76265506Y-19494464D01*
X76168815Y-19573816D01*
X76089463Y-19670507D01*
X76030498Y-19780821D01*
X75994188Y-19900519D01*
X75981928Y-20025001D01*
X75981928Y-21725001D01*
X75994188Y-21849483D01*
X76030498Y-21969181D01*
X76089463Y-22079495D01*
X76168815Y-22176186D01*
X76265506Y-22255538D01*
X76375820Y-22314503D01*
X76444687Y-22335394D01*
X76414866Y-22359867D01*
X76229294Y-22585987D01*
X76091401Y-22843967D01*
X76006487Y-23123890D01*
X75977815Y-23415001D01*
X76006487Y-23706112D01*
X76091401Y-23986035D01*
X76229294Y-24244015D01*
X76414866Y-24470135D01*
X76640986Y-24655707D01*
X76695791Y-24685001D01*
X76640986Y-24714295D01*
X76414866Y-24899867D01*
X76229294Y-25125987D01*
X76091401Y-25383967D01*
X76006487Y-25663890D01*
X75977815Y-25955001D01*
X76006487Y-26246112D01*
X76091401Y-26526035D01*
X76229294Y-26784015D01*
X76414866Y-27010135D01*
X76640986Y-27195707D01*
X76695791Y-27225001D01*
X76640986Y-27254295D01*
X76414866Y-27439867D01*
X76313813Y-27563000D01*
X64035000Y-27563000D01*
X64035000Y-27398061D01*
X63995226Y-27198102D01*
X63917205Y-27009744D01*
X63803937Y-26840226D01*
X63659774Y-26696063D01*
X63490256Y-26582795D01*
X63301898Y-26504774D01*
X63101939Y-26465000D01*
X62898061Y-26465000D01*
X62698102Y-26504774D01*
X62509744Y-26582795D01*
X62461546Y-26615000D01*
X60378579Y-26615000D01*
X54828072Y-21064494D01*
X54828072Y-19978000D01*
X54815812Y-19853518D01*
X54779502Y-19733820D01*
X54720537Y-19623506D01*
X54641185Y-19526815D01*
X54544494Y-19447463D01*
X54434180Y-19388498D01*
X54314482Y-19352188D01*
X54190000Y-19339928D01*
X52490000Y-19339928D01*
X52365518Y-19352188D01*
X52245820Y-19388498D01*
X52135506Y-19447463D01*
X52038815Y-19526815D01*
X51959463Y-19623506D01*
X51900498Y-19733820D01*
X51864188Y-19853518D01*
X51851928Y-19978000D01*
X51851928Y-21678000D01*
X51864188Y-21802482D01*
X51900498Y-21922180D01*
X51959463Y-22032494D01*
X52038815Y-22129185D01*
X52135506Y-22208537D01*
X52245820Y-22267502D01*
X52314687Y-22288393D01*
X52284866Y-22312866D01*
X52099294Y-22538986D01*
X51961401Y-22796966D01*
X51876487Y-23076889D01*
X51847815Y-23368000D01*
X49742566Y-23368000D01*
X49783739Y-23268601D01*
X49885000Y-22759525D01*
X49885000Y-22240475D01*
X49783739Y-21731399D01*
X49585107Y-21251859D01*
X49296738Y-20820285D01*
X48929715Y-20453262D01*
X48498141Y-20164893D01*
X48018601Y-19966261D01*
X47509525Y-19865000D01*
X46990475Y-19865000D01*
X46481399Y-19966261D01*
X46001859Y-20164893D01*
X45570285Y-20453262D01*
X45203262Y-20820285D01*
X44914893Y-21251859D01*
X44716261Y-21731399D01*
X44615000Y-22240475D01*
X44127000Y-22240475D01*
X44127000Y-18627000D01*
X103873000Y-18627000D01*
X103873000Y-38373000D01*
G36*
X58823421Y-27563000D02*
G01*
X54534759Y-27563000D01*
X54395134Y-27392866D01*
X54169014Y-27207294D01*
X54114209Y-27178000D01*
X54169014Y-27148706D01*
X54395134Y-26963134D01*
X54580706Y-26737014D01*
X54718599Y-26479034D01*
X54803513Y-26199111D01*
X54832185Y-25908000D01*
X54803513Y-25616889D01*
X54718599Y-25336966D01*
X54580706Y-25078986D01*
X54395134Y-24852866D01*
X54169014Y-24667294D01*
X54114209Y-24638000D01*
X54169014Y-24608706D01*
X54395134Y-24423134D01*
X54580706Y-24197014D01*
X54718599Y-23939034D01*
X54803513Y-23659111D01*
X54813915Y-23553494D01*
X58823421Y-27563000D01*
X58823421Y-27563000D01*
G37*
X58823421Y-27563000D02*
X54534759Y-27563000D01*
X54395134Y-27392866D01*
X54169014Y-27207294D01*
X54114209Y-27178000D01*
X54169014Y-27148706D01*
X54395134Y-26963134D01*
X54580706Y-26737014D01*
X54718599Y-26479034D01*
X54803513Y-26199111D01*
X54832185Y-25908000D01*
X54803513Y-25616889D01*
X54718599Y-25336966D01*
X54580706Y-25078986D01*
X54395134Y-24852866D01*
X54169014Y-24667294D01*
X54114209Y-24638000D01*
X54169014Y-24608706D01*
X54395134Y-24423134D01*
X54580706Y-24197014D01*
X54718599Y-23939034D01*
X54803513Y-23659111D01*
X54813915Y-23553494D01*
X58823421Y-27563000D01*
M02*
