G04 #@! TF.GenerationSoftware,KiCad,Pcbnew,(5.1.2)-2*
G04 #@! TF.CreationDate,2019-07-31T11:15:24+03:00*
G04 #@! TF.ProjectId,Sensor board,53656e73-6f72-4206-926f-6172642e6b69,rev?*
G04 #@! TF.SameCoordinates,Original*
G04 #@! TF.FileFunction,Legend,Top*
G04 #@! TF.FilePolarity,Positive*
%FSLAX46Y46*%
G04 Gerber Fmt 4.6, Leading zero omitted, Abs format (unit mm)*
G04 Created by KiCad (PCBNEW (5.1.2)-2) date 2019-07-31 11:15:24*
%MOMM*%
%LPD*%
G04 APERTURE LIST*
%ADD10C,0.150000*%
%ADD11C,0.100000*%
%ADD12C,0.120000*%
G04 APERTURE END LIST*
D10*
X80238095Y-25500000D02*
X80142857Y-25452380D01*
X80000000Y-25452380D01*
X79857142Y-25500000D01*
X79761904Y-25595238D01*
X79714285Y-25690476D01*
X79666666Y-25880952D01*
X79666666Y-26023809D01*
X79714285Y-26214285D01*
X79761904Y-26309523D01*
X79857142Y-26404761D01*
X80000000Y-26452380D01*
X80095238Y-26452380D01*
X80238095Y-26404761D01*
X80285714Y-26357142D01*
X80285714Y-26023809D01*
X80095238Y-26023809D01*
X80714285Y-26452380D02*
X80714285Y-25452380D01*
X81285714Y-26452380D01*
X81285714Y-25452380D01*
X81761904Y-26452380D02*
X81761904Y-25452380D01*
X82000000Y-25452380D01*
X82142857Y-25500000D01*
X82238095Y-25595238D01*
X82285714Y-25690476D01*
X82333333Y-25880952D01*
X82333333Y-26023809D01*
X82285714Y-26214285D01*
X82238095Y-26309523D01*
X82142857Y-26404761D01*
X82000000Y-26452380D01*
X81761904Y-26452380D01*
D11*
X49071428Y-36714285D02*
X49142857Y-36738095D01*
X49166666Y-36761904D01*
X49190476Y-36809523D01*
X49190476Y-36880952D01*
X49166666Y-36928571D01*
X49142857Y-36952380D01*
X49095238Y-36976190D01*
X48904761Y-36976190D01*
X48904761Y-36476190D01*
X49071428Y-36476190D01*
X49119047Y-36500000D01*
X49142857Y-36523809D01*
X49166666Y-36571428D01*
X49166666Y-36619047D01*
X49142857Y-36666666D01*
X49119047Y-36690476D01*
X49071428Y-36714285D01*
X48904761Y-36714285D01*
X49404761Y-36976190D02*
X49404761Y-36476190D01*
X49571428Y-36833333D01*
X49738095Y-36476190D01*
X49738095Y-36976190D01*
X49976190Y-36976190D02*
X49976190Y-36476190D01*
X50166666Y-36476190D01*
X50214285Y-36500000D01*
X50238095Y-36523809D01*
X50261904Y-36571428D01*
X50261904Y-36642857D01*
X50238095Y-36690476D01*
X50214285Y-36714285D01*
X50166666Y-36738095D01*
X49976190Y-36738095D01*
X50357142Y-37023809D02*
X50738095Y-37023809D01*
X51142857Y-36928571D02*
X51119047Y-36952380D01*
X51047619Y-36976190D01*
X51000000Y-36976190D01*
X50928571Y-36952380D01*
X50880952Y-36904761D01*
X50857142Y-36857142D01*
X50833333Y-36761904D01*
X50833333Y-36690476D01*
X50857142Y-36595238D01*
X50880952Y-36547619D01*
X50928571Y-36500000D01*
X51000000Y-36476190D01*
X51047619Y-36476190D01*
X51119047Y-36500000D01*
X51142857Y-36523809D01*
X51333333Y-36952380D02*
X51404761Y-36976190D01*
X51523809Y-36976190D01*
X51571428Y-36952380D01*
X51595238Y-36928571D01*
X51619047Y-36880952D01*
X51619047Y-36833333D01*
X51595238Y-36785714D01*
X51571428Y-36761904D01*
X51523809Y-36738095D01*
X51428571Y-36714285D01*
X51380952Y-36690476D01*
X51357142Y-36666666D01*
X51333333Y-36619047D01*
X51333333Y-36571428D01*
X51357142Y-36523809D01*
X51380952Y-36500000D01*
X51428571Y-36476190D01*
X51547619Y-36476190D01*
X51619047Y-36500000D01*
X49714285Y-33726190D02*
X49714285Y-33226190D01*
X49880952Y-33583333D01*
X50047619Y-33226190D01*
X50047619Y-33726190D01*
X50380952Y-33226190D02*
X50476190Y-33226190D01*
X50523809Y-33250000D01*
X50571428Y-33297619D01*
X50595238Y-33392857D01*
X50595238Y-33559523D01*
X50571428Y-33654761D01*
X50523809Y-33702380D01*
X50476190Y-33726190D01*
X50380952Y-33726190D01*
X50333333Y-33702380D01*
X50285714Y-33654761D01*
X50261904Y-33559523D01*
X50261904Y-33392857D01*
X50285714Y-33297619D01*
X50333333Y-33250000D01*
X50380952Y-33226190D01*
X50785714Y-33702380D02*
X50857142Y-33726190D01*
X50976190Y-33726190D01*
X51023809Y-33702380D01*
X51047619Y-33678571D01*
X51071428Y-33630952D01*
X51071428Y-33583333D01*
X51047619Y-33535714D01*
X51023809Y-33511904D01*
X50976190Y-33488095D01*
X50880952Y-33464285D01*
X50833333Y-33440476D01*
X50809523Y-33416666D01*
X50785714Y-33369047D01*
X50785714Y-33321428D01*
X50809523Y-33273809D01*
X50833333Y-33250000D01*
X50880952Y-33226190D01*
X51000000Y-33226190D01*
X51071428Y-33250000D01*
X51285714Y-33726190D02*
X51285714Y-33226190D01*
X49714285Y-31226190D02*
X49714285Y-30726190D01*
X49880952Y-31083333D01*
X50047619Y-30726190D01*
X50047619Y-31226190D01*
X50285714Y-31226190D02*
X50285714Y-30726190D01*
X50500000Y-31202380D02*
X50571428Y-31226190D01*
X50690476Y-31226190D01*
X50738095Y-31202380D01*
X50761904Y-31178571D01*
X50785714Y-31130952D01*
X50785714Y-31083333D01*
X50761904Y-31035714D01*
X50738095Y-31011904D01*
X50690476Y-30988095D01*
X50595238Y-30964285D01*
X50547619Y-30940476D01*
X50523809Y-30916666D01*
X50500000Y-30869047D01*
X50500000Y-30821428D01*
X50523809Y-30773809D01*
X50547619Y-30750000D01*
X50595238Y-30726190D01*
X50714285Y-30726190D01*
X50785714Y-30750000D01*
X51095238Y-30726190D02*
X51190476Y-30726190D01*
X51238095Y-30750000D01*
X51285714Y-30797619D01*
X51309523Y-30892857D01*
X51309523Y-31059523D01*
X51285714Y-31154761D01*
X51238095Y-31202380D01*
X51190476Y-31226190D01*
X51095238Y-31226190D01*
X51047619Y-31202380D01*
X51000000Y-31154761D01*
X50976190Y-31059523D01*
X50976190Y-30892857D01*
X51000000Y-30797619D01*
X51047619Y-30750000D01*
X51095238Y-30726190D01*
X50452380Y-28678571D02*
X50428571Y-28702380D01*
X50357142Y-28726190D01*
X50309523Y-28726190D01*
X50238095Y-28702380D01*
X50190476Y-28654761D01*
X50166666Y-28607142D01*
X50142857Y-28511904D01*
X50142857Y-28440476D01*
X50166666Y-28345238D01*
X50190476Y-28297619D01*
X50238095Y-28250000D01*
X50309523Y-28226190D01*
X50357142Y-28226190D01*
X50428571Y-28250000D01*
X50452380Y-28273809D01*
X50904761Y-28726190D02*
X50666666Y-28726190D01*
X50666666Y-28226190D01*
X51071428Y-28726190D02*
X51071428Y-28226190D01*
X51357142Y-28726190D02*
X51142857Y-28440476D01*
X51357142Y-28226190D02*
X51071428Y-28511904D01*
X50369047Y-25750000D02*
X50321428Y-25726190D01*
X50250000Y-25726190D01*
X50178571Y-25750000D01*
X50130952Y-25797619D01*
X50107142Y-25845238D01*
X50083333Y-25940476D01*
X50083333Y-26011904D01*
X50107142Y-26107142D01*
X50130952Y-26154761D01*
X50178571Y-26202380D01*
X50250000Y-26226190D01*
X50297619Y-26226190D01*
X50369047Y-26202380D01*
X50392857Y-26178571D01*
X50392857Y-26011904D01*
X50297619Y-26011904D01*
X50607142Y-26226190D02*
X50607142Y-25726190D01*
X50892857Y-26226190D01*
X50892857Y-25726190D01*
X51130952Y-26226190D02*
X51130952Y-25726190D01*
X51250000Y-25726190D01*
X51321428Y-25750000D01*
X51369047Y-25797619D01*
X51392857Y-25845238D01*
X51416666Y-25940476D01*
X51416666Y-26011904D01*
X51392857Y-26107142D01*
X51369047Y-26154761D01*
X51321428Y-26202380D01*
X51250000Y-26226190D01*
X51130952Y-26226190D01*
X50154761Y-23226190D02*
X50464285Y-23226190D01*
X50297619Y-23416666D01*
X50369047Y-23416666D01*
X50416666Y-23440476D01*
X50440476Y-23464285D01*
X50464285Y-23511904D01*
X50464285Y-23630952D01*
X50440476Y-23678571D01*
X50416666Y-23702380D01*
X50369047Y-23726190D01*
X50226190Y-23726190D01*
X50178571Y-23702380D01*
X50154761Y-23678571D01*
X50630952Y-23392857D02*
X50750000Y-23726190D01*
X50869047Y-23392857D01*
X51011904Y-23226190D02*
X51321428Y-23226190D01*
X51154761Y-23416666D01*
X51226190Y-23416666D01*
X51273809Y-23440476D01*
X51297619Y-23464285D01*
X51321428Y-23511904D01*
X51321428Y-23630952D01*
X51297619Y-23678571D01*
X51273809Y-23702380D01*
X51226190Y-23726190D01*
X51083333Y-23726190D01*
X51035714Y-23702380D01*
X51011904Y-23678571D01*
X49297619Y-20726190D02*
X49297619Y-20226190D01*
X49297619Y-20464285D02*
X49583333Y-20464285D01*
X49583333Y-20726190D02*
X49583333Y-20226190D01*
X49821428Y-20726190D02*
X49821428Y-20226190D01*
X50059523Y-20726190D02*
X50059523Y-20226190D01*
X50059523Y-20464285D02*
X50345238Y-20464285D01*
X50345238Y-20726190D02*
X50345238Y-20226190D01*
X50464285Y-20773809D02*
X50845238Y-20773809D01*
X51250000Y-20678571D02*
X51226190Y-20702380D01*
X51154761Y-20726190D01*
X51107142Y-20726190D01*
X51035714Y-20702380D01*
X50988095Y-20654761D01*
X50964285Y-20607142D01*
X50940476Y-20511904D01*
X50940476Y-20440476D01*
X50964285Y-20345238D01*
X50988095Y-20297619D01*
X51035714Y-20250000D01*
X51107142Y-20226190D01*
X51154761Y-20226190D01*
X51226190Y-20250000D01*
X51250000Y-20273809D01*
X51440476Y-20702380D02*
X51511904Y-20726190D01*
X51630952Y-20726190D01*
X51678571Y-20702380D01*
X51702380Y-20678571D01*
X51726190Y-20630952D01*
X51726190Y-20583333D01*
X51702380Y-20535714D01*
X51678571Y-20511904D01*
X51630952Y-20488095D01*
X51535714Y-20464285D01*
X51488095Y-20440476D01*
X51464285Y-20416666D01*
X51440476Y-20369047D01*
X51440476Y-20321428D01*
X51464285Y-20273809D01*
X51488095Y-20250000D01*
X51535714Y-20226190D01*
X51654761Y-20226190D01*
X51726190Y-20250000D01*
D10*
X79809523Y-22952380D02*
X80428571Y-22952380D01*
X80095238Y-23333333D01*
X80238095Y-23333333D01*
X80333333Y-23380952D01*
X80380952Y-23428571D01*
X80428571Y-23523809D01*
X80428571Y-23761904D01*
X80380952Y-23857142D01*
X80333333Y-23904761D01*
X80238095Y-23952380D01*
X79952380Y-23952380D01*
X79857142Y-23904761D01*
X79809523Y-23857142D01*
X80761904Y-23285714D02*
X81000000Y-23952380D01*
X81238095Y-23285714D01*
X81523809Y-22952380D02*
X82142857Y-22952380D01*
X81809523Y-23333333D01*
X81952380Y-23333333D01*
X82047619Y-23380952D01*
X82095238Y-23428571D01*
X82142857Y-23523809D01*
X82142857Y-23761904D01*
X82095238Y-23857142D01*
X82047619Y-23904761D01*
X81952380Y-23952380D01*
X81666666Y-23952380D01*
X81571428Y-23904761D01*
X81523809Y-23857142D01*
D12*
X69596000Y-24364000D02*
X66146000Y-24364000D01*
X69596000Y-24364000D02*
X71546000Y-24364000D01*
X69596000Y-29484000D02*
X67646000Y-29484000D01*
X69596000Y-29484000D02*
X71546000Y-29484000D01*
X58622000Y-22114252D02*
X58622000Y-21591748D01*
X57202000Y-22114252D02*
X57202000Y-21591748D01*
X77470000Y-19545001D02*
X78800000Y-19545001D01*
X78800000Y-19545001D02*
X78800000Y-20875001D01*
X78800000Y-22145001D02*
X78800000Y-37445001D01*
X76140000Y-37445001D02*
X78800000Y-37445001D01*
X76140000Y-22145001D02*
X76140000Y-37445001D01*
X76140000Y-22145001D02*
X78800000Y-22145001D01*
X53340000Y-19498000D02*
X54670000Y-19498000D01*
X54670000Y-19498000D02*
X54670000Y-20828000D01*
X54670000Y-22098000D02*
X54670000Y-37398000D01*
X52010000Y-37398000D02*
X54670000Y-37398000D01*
X52010000Y-22098000D02*
X52010000Y-37398000D01*
X52010000Y-22098000D02*
X54670000Y-22098000D01*
X65226000Y-25661252D02*
X65226000Y-25138748D01*
X63806000Y-25661252D02*
X63806000Y-25138748D01*
X62178000Y-25661252D02*
X62178000Y-25138748D01*
X60758000Y-25661252D02*
X60758000Y-25138748D01*
D10*
X88166666Y-30428571D02*
X88309523Y-30476190D01*
X88357142Y-30523809D01*
X88404761Y-30619047D01*
X88404761Y-30761904D01*
X88357142Y-30857142D01*
X88309523Y-30904761D01*
X88214285Y-30952380D01*
X87833333Y-30952380D01*
X87833333Y-29952380D01*
X88166666Y-29952380D01*
X88261904Y-30000000D01*
X88309523Y-30047619D01*
X88357142Y-30142857D01*
X88357142Y-30238095D01*
X88309523Y-30333333D01*
X88261904Y-30380952D01*
X88166666Y-30428571D01*
X87833333Y-30428571D01*
X88833333Y-30952380D02*
X88833333Y-29952380D01*
X89166666Y-30666666D01*
X89500000Y-29952380D01*
X89500000Y-30952380D01*
X89976190Y-30952380D02*
X89976190Y-29952380D01*
X90357142Y-29952380D01*
X90452380Y-30000000D01*
X90500000Y-30047619D01*
X90547619Y-30142857D01*
X90547619Y-30285714D01*
X90500000Y-30380952D01*
X90452380Y-30428571D01*
X90357142Y-30476190D01*
X89976190Y-30476190D01*
X90738095Y-31047619D02*
X91500000Y-31047619D01*
X91738095Y-30952380D02*
X91738095Y-29952380D01*
X92071428Y-30666666D01*
X92404761Y-29952380D01*
X92404761Y-30952380D01*
X92880952Y-30952380D02*
X92880952Y-29952380D01*
X93452380Y-30952380D01*
X93452380Y-29952380D01*
X93785714Y-29952380D02*
X94357142Y-29952380D01*
X94071428Y-30952380D02*
X94071428Y-29952380D01*
X94642857Y-30047619D02*
X94690476Y-30000000D01*
X94785714Y-29952380D01*
X95023809Y-29952380D01*
X95119047Y-30000000D01*
X95166666Y-30047619D01*
X95214285Y-30142857D01*
X95214285Y-30238095D01*
X95166666Y-30380952D01*
X94595238Y-30952380D01*
X95214285Y-30952380D01*
X88166666Y-26428571D02*
X88309523Y-26476190D01*
X88357142Y-26523809D01*
X88404761Y-26619047D01*
X88404761Y-26761904D01*
X88357142Y-26857142D01*
X88309523Y-26904761D01*
X88214285Y-26952380D01*
X87833333Y-26952380D01*
X87833333Y-25952380D01*
X88166666Y-25952380D01*
X88261904Y-26000000D01*
X88309523Y-26047619D01*
X88357142Y-26142857D01*
X88357142Y-26238095D01*
X88309523Y-26333333D01*
X88261904Y-26380952D01*
X88166666Y-26428571D01*
X87833333Y-26428571D01*
X88833333Y-26952380D02*
X88833333Y-25952380D01*
X89166666Y-26666666D01*
X89500000Y-25952380D01*
X89500000Y-26952380D01*
X89976190Y-26952380D02*
X89976190Y-25952380D01*
X90357142Y-25952380D01*
X90452380Y-26000000D01*
X90500000Y-26047619D01*
X90547619Y-26142857D01*
X90547619Y-26285714D01*
X90500000Y-26380952D01*
X90452380Y-26428571D01*
X90357142Y-26476190D01*
X89976190Y-26476190D01*
X90738095Y-27047619D02*
X91500000Y-27047619D01*
X91738095Y-26952380D02*
X91738095Y-25952380D01*
X92071428Y-26666666D01*
X92404761Y-25952380D01*
X92404761Y-26952380D01*
X92880952Y-26952380D02*
X92880952Y-25952380D01*
X93452380Y-26952380D01*
X93452380Y-25952380D01*
X93785714Y-25952380D02*
X94357142Y-25952380D01*
X94071428Y-26952380D02*
X94071428Y-25952380D01*
X95214285Y-26952380D02*
X94642857Y-26952380D01*
X94928571Y-26952380D02*
X94928571Y-25952380D01*
X94833333Y-26095238D01*
X94738095Y-26190476D01*
X94642857Y-26238095D01*
X68834095Y-22976380D02*
X68834095Y-23785904D01*
X68881714Y-23881142D01*
X68929333Y-23928761D01*
X69024571Y-23976380D01*
X69215047Y-23976380D01*
X69310285Y-23928761D01*
X69357904Y-23881142D01*
X69405523Y-23785904D01*
X69405523Y-22976380D01*
X70405523Y-23976380D02*
X69834095Y-23976380D01*
X70119809Y-23976380D02*
X70119809Y-22976380D01*
X70024571Y-23119238D01*
X69929333Y-23214476D01*
X69834095Y-23262095D01*
X101535714Y-25702380D02*
X101535714Y-24702380D01*
X101869047Y-25416666D01*
X102202380Y-24702380D01*
X102202380Y-25702380D01*
X102678571Y-25702380D02*
X102678571Y-24702380D01*
X103250000Y-25702380D01*
X103250000Y-24702380D01*
X103583333Y-24702380D02*
X104154761Y-24702380D01*
X103869047Y-25702380D02*
X103869047Y-24702380D01*
X104392857Y-24702380D02*
X105011904Y-24702380D01*
X104678571Y-25083333D01*
X104821428Y-25083333D01*
X104916666Y-25130952D01*
X104964285Y-25178571D01*
X105011904Y-25273809D01*
X105011904Y-25511904D01*
X104964285Y-25607142D01*
X104916666Y-25654761D01*
X104821428Y-25702380D01*
X104535714Y-25702380D01*
X104440476Y-25654761D01*
X104392857Y-25607142D01*
X101535714Y-32452380D02*
X101535714Y-31452380D01*
X101869047Y-32166666D01*
X102202380Y-31452380D01*
X102202380Y-32452380D01*
X102678571Y-32452380D02*
X102678571Y-31452380D01*
X103250000Y-32452380D01*
X103250000Y-31452380D01*
X103583333Y-31452380D02*
X104154761Y-31452380D01*
X103869047Y-32452380D02*
X103869047Y-31452380D01*
X104916666Y-31785714D02*
X104916666Y-32452380D01*
X104678571Y-31404761D02*
X104440476Y-32119047D01*
X105059523Y-32119047D01*
X45535714Y-31702380D02*
X45535714Y-30702380D01*
X45869047Y-31416666D01*
X46202380Y-30702380D01*
X46202380Y-31702380D01*
X46678571Y-31702380D02*
X46678571Y-30702380D01*
X47250000Y-31702380D01*
X47250000Y-30702380D01*
X47583333Y-30702380D02*
X48154761Y-30702380D01*
X47869047Y-31702380D02*
X47869047Y-30702380D01*
X48440476Y-30797619D02*
X48488095Y-30750000D01*
X48583333Y-30702380D01*
X48821428Y-30702380D01*
X48916666Y-30750000D01*
X48964285Y-30797619D01*
X49011904Y-30892857D01*
X49011904Y-30988095D01*
X48964285Y-31130952D01*
X48392857Y-31702380D01*
X49011904Y-31702380D01*
X45535714Y-26202380D02*
X45535714Y-25202380D01*
X45869047Y-25916666D01*
X46202380Y-25202380D01*
X46202380Y-26202380D01*
X46678571Y-26202380D02*
X46678571Y-25202380D01*
X47250000Y-26202380D01*
X47250000Y-25202380D01*
X47583333Y-25202380D02*
X48154761Y-25202380D01*
X47869047Y-26202380D02*
X47869047Y-25202380D01*
X49011904Y-26202380D02*
X48440476Y-26202380D01*
X48726190Y-26202380D02*
X48726190Y-25202380D01*
X48630952Y-25345238D01*
X48535714Y-25440476D01*
X48440476Y-25488095D01*
X58202380Y-24916666D02*
X57726190Y-25250000D01*
X58202380Y-25488095D02*
X57202380Y-25488095D01*
X57202380Y-25107142D01*
X57250000Y-25011904D01*
X57297619Y-24964285D01*
X57392857Y-24916666D01*
X57535714Y-24916666D01*
X57630952Y-24964285D01*
X57678571Y-25011904D01*
X57726190Y-25107142D01*
X57726190Y-25488095D01*
X58202380Y-23964285D02*
X58202380Y-24535714D01*
X58202380Y-24250000D02*
X57202380Y-24250000D01*
X57345238Y-24345238D01*
X57440476Y-24440476D01*
X57488095Y-24535714D01*
X74416666Y-35702380D02*
X74416666Y-36416666D01*
X74369047Y-36559523D01*
X74273809Y-36654761D01*
X74130952Y-36702380D01*
X74035714Y-36702380D01*
X74845238Y-35797619D02*
X74892857Y-35750000D01*
X74988095Y-35702380D01*
X75226190Y-35702380D01*
X75321428Y-35750000D01*
X75369047Y-35797619D01*
X75416666Y-35892857D01*
X75416666Y-35988095D01*
X75369047Y-36130952D01*
X74797619Y-36702380D01*
X75416666Y-36702380D01*
X55666666Y-35702380D02*
X55666666Y-36416666D01*
X55619047Y-36559523D01*
X55523809Y-36654761D01*
X55380952Y-36702380D01*
X55285714Y-36702380D01*
X56666666Y-36702380D02*
X56095238Y-36702380D01*
X56380952Y-36702380D02*
X56380952Y-35702380D01*
X56285714Y-35845238D01*
X56190476Y-35940476D01*
X56095238Y-35988095D01*
X64857142Y-28666666D02*
X64904761Y-28714285D01*
X64952380Y-28857142D01*
X64952380Y-28952380D01*
X64904761Y-29095238D01*
X64809523Y-29190476D01*
X64714285Y-29238095D01*
X64523809Y-29285714D01*
X64380952Y-29285714D01*
X64190476Y-29238095D01*
X64095238Y-29190476D01*
X64000000Y-29095238D01*
X63952380Y-28952380D01*
X63952380Y-28857142D01*
X64000000Y-28714285D01*
X64047619Y-28666666D01*
X64047619Y-28285714D02*
X64000000Y-28238095D01*
X63952380Y-28142857D01*
X63952380Y-27904761D01*
X64000000Y-27809523D01*
X64047619Y-27761904D01*
X64142857Y-27714285D01*
X64238095Y-27714285D01*
X64380952Y-27761904D01*
X64952380Y-28333333D01*
X64952380Y-27714285D01*
X61857142Y-28416666D02*
X61904761Y-28464285D01*
X61952380Y-28607142D01*
X61952380Y-28702380D01*
X61904761Y-28845238D01*
X61809523Y-28940476D01*
X61714285Y-28988095D01*
X61523809Y-29035714D01*
X61380952Y-29035714D01*
X61190476Y-28988095D01*
X61095238Y-28940476D01*
X61000000Y-28845238D01*
X60952380Y-28702380D01*
X60952380Y-28607142D01*
X61000000Y-28464285D01*
X61047619Y-28416666D01*
X61952380Y-27464285D02*
X61952380Y-28035714D01*
X61952380Y-27750000D02*
X60952380Y-27750000D01*
X61095238Y-27845238D01*
X61190476Y-27940476D01*
X61238095Y-28035714D01*
M02*
